<svg class="main-svg" xmlns="http://www.w3.org/2000/svg" xmlns:xlink="http://www.w3.org/1999/xlink" width="700" height="500" style="" viewBox="0 0 700 500"><rect x="0" y="0" width="700" height="500" style="fill: rgb(255, 255, 255); fill-opacity: 1;"/><defs id="defs-b997e0"><g class="clips"><clipPath id="clipb997e0xyplot" class="plotclip"><rect width="630" height="435"/></clipPath><clipPath class="axesclip" id="clipb997e0x"><rect x="60" y="0" width="630" height="500"/></clipPath><clipPath class="axesclip" id="clipb997e0y"><rect x="0" y="25" width="700" height="435"/></clipPath><clipPath class="axesclip" id="clipb997e0xy"><rect x="60" y="25" width="630" height="435"/></clipPath></g><g class="gradients"/></defs><g class="bglayer"/><g class="layer-below"><g class="imagelayer"/><g class="shapelayer"/></g><g class="cartesianlayer"><g class="subplot xy"><g class="layer-subplot"><g class="shapelayer"/><g class="imagelayer"/></g><g class="gridlayer"><g class="x"><path class="xgrid crisp" transform="translate(67.28,0)" d="M0,25v435" style="stroke: rgb(238, 238, 238); stroke-opacity: 1; stroke-width: 1px;"/><path class="xgrid crisp" transform="translate(141.32999999999998,0)" d="M0,25v435" style="stroke: rgb(238, 238, 238); stroke-opacity: 1; stroke-width: 1px;"/><path class="xgrid crisp" transform="translate(215.38,0)" d="M0,25v435" style="stroke: rgb(238, 238, 238); stroke-opacity: 1; stroke-width: 1px;"/><path class="xgrid crisp" transform="translate(290.64,0)" d="M0,25v435" style="stroke: rgb(238, 238, 238); stroke-opacity: 1; stroke-width: 1px;"/><path class="xgrid crisp" transform="translate(364.68,0)" d="M0,25v435" style="stroke: rgb(238, 238, 238); stroke-opacity: 1; stroke-width: 1px;"/><path class="xgrid crisp" transform="translate(438.73,0)" d="M0,25v435" style="stroke: rgb(238, 238, 238); stroke-opacity: 1; stroke-width: 1px;"/><path class="xgrid crisp" transform="translate(510.35,0)" d="M0,25v435" style="stroke: rgb(238, 238, 238); stroke-opacity: 1; stroke-width: 1px;"/><path class="xgrid crisp" transform="translate(584.39,0)" d="M0,25v435" style="stroke: rgb(238, 238, 238); stroke-opacity: 1; stroke-width: 1px;"/><path class="xgrid crisp" transform="translate(658.44,0)" d="M0,25v435" style="stroke: rgb(238, 238, 238); stroke-opacity: 1; stroke-width: 1px;"/></g><g class="y"><path class="ygrid crisp" transform="translate(0,412.23)" d="M60,0h630" style="stroke: rgb(238, 238, 238); stroke-opacity: 1; stroke-width: 1px;"/><path class="ygrid crisp" transform="translate(0,364.45)" d="M60,0h630" style="stroke: rgb(238, 238, 238); stroke-opacity: 1; stroke-width: 1px;"/><path class="ygrid crisp" transform="translate(0,316.68)" d="M60,0h630" style="stroke: rgb(238, 238, 238); stroke-opacity: 1; stroke-width: 1px;"/><path class="ygrid crisp" transform="translate(0,268.9)" d="M60,0h630" style="stroke: rgb(238, 238, 238); stroke-opacity: 1; stroke-width: 1px;"/><path class="ygrid crisp" transform="translate(0,221.13)" d="M60,0h630" style="stroke: rgb(238, 238, 238); stroke-opacity: 1; stroke-width: 1px;"/><path class="ygrid crisp" transform="translate(0,173.36)" d="M60,0h630" style="stroke: rgb(238, 238, 238); stroke-opacity: 1; stroke-width: 1px;"/><path class="ygrid crisp" transform="translate(0,125.58)" d="M60,0h630" style="stroke: rgb(238, 238, 238); stroke-opacity: 1; stroke-width: 1px;"/><path class="ygrid crisp" transform="translate(0,77.81)" d="M60,0h630" style="stroke: rgb(238, 238, 238); stroke-opacity: 1; stroke-width: 1px;"/><path class="ygrid crisp" transform="translate(0,30.03)" d="M60,0h630" style="stroke: rgb(238, 238, 238); stroke-opacity: 1; stroke-width: 1px;"/></g></g><g class="zerolinelayer"><path class="yzl zl crisp" transform="translate(0,460)" d="M60,0h630" style="stroke: rgb(68, 68, 68); stroke-opacity: 1; stroke-width: 1px;"/></g><path class="xlines-below"/><path class="ylines-below"/><g class="overlines-below"/><g class="xaxislayer-below"/><g class="yaxislayer-below"/><g class="overaxes-below"/><g class="plot" transform="translate(60, 25)" clip-path="url('#clipb997e0xyplot')"><g class="scatterlayer mlayer"><g class="trace scatter tracea1087c" style="stroke-miterlimit: 2;"><g class="fills"><g><path class="js-fill" d="M630,435L0,435L0,434.98L1.21,434.97L2.43,434.96L3.64,434.94L4.86,434.92L6.07,434.9L7.28,434.85L8.5,434.82L9.71,434.78L10.92,434.74L12.14,434.69L13.35,434.63L14.57,434.52L15.78,434.39L16.99,434.24L18.21,434.19L19.42,433.99L20.64,433.77L21.85,433.57L23.06,433.3L24.28,433.03L25.49,432.8L26.71,432.51L27.92,432.26L29.13,431.83L30.35,431.38L31.56,430.92L32.77,430.54L33.99,430.18L35.2,429.84L36.42,429.5L37.63,429.07L38.84,428.65L40.06,428.31L41.27,427.94L42.49,427.78L43.7,427.58L44.91,427.3L46.13,427.06L47.34,426.84L48.55,426.57L49.77,426.28L50.98,426.1L52.2,426.01L53.41,425.9L54.62,425.74L55.84,425.61L57.05,425.42L58.27,425.23L59.48,425.1L60.69,425.04L61.91,424.93L63.12,424.81L64.34,424.78L65.55,424.7L66.76,424.66L67.98,424.66L69.19,424.71L70.4,424.71L71.62,424.79L72.83,424.82L74.05,424.89L75.26,424.86L76.47,424.89L77.69,424.95L78.9,425L80.12,425.3L81.33,425.36L82.54,425.38L83.76,425.43L84.97,425.45L86.18,425.59L87.4,426.25L88.61,426.44L89.83,426.6L91.04,426.89L92.25,427.04L93.47,427.12L94.68,427.24L95.9,427.5L97.11,427.7L98.32,428.11L99.54,428.29L100.75,428.47L101.97,428.64L103.18,428.78L104.39,429L105.61,429.18L106.82,429.33L108.03,429.48L109.25,429.59L110.46,429.72L111.68,429.94L112.89,430.13L114.1,430.42L115.32,430.59L116.53,430.83L117.75,430.98L118.96,431.05L120.17,431.19L121.39,431.25L122.6,431.33L123.82,431.47L125.03,431.57L126.24,431.63L127.46,431.68L128.67,431.86L129.88,431.97L131.1,432.07L132.31,432.23L133.53,432.37L134.74,432.49L135.95,432.52L137.17,432.65L138.38,432.71L139.6,432.79L140.81,432.94L142.02,432.97L143.24,433L144.45,433.03L145.66,433.13L146.88,433.22L148.09,433.25L149.31,433.31L150.52,433.39L151.73,433.41L152.95,433.42L154.16,433.51L155.38,433.54L156.59,433.56L157.8,433.58L159.02,433.6L160.23,433.6L161.45,433.59L162.66,433.64L163.87,433.7L165.09,433.71L166.3,433.72L167.51,433.73L168.73,433.74L169.94,433.74L171.16,433.77L172.37,433.81L173.58,433.81L174.8,433.81L176.01,433.82L177.23,433.81L178.44,433.81L179.65,433.83L180.87,433.82L182.08,433.81L183.29,433.82L184.51,433.81L185.72,433.8L186.94,433.8L188.15,433.8L189.36,433.79L190.58,433.83L191.79,433.81L193.01,433.81L194.22,433.81L195.43,433.81L196.65,433.81L197.86,433.79L199.08,433.79L200.29,433.77L201.5,433.76L202.72,433.73L203.93,433.72L205.14,433.7L206.36,433.68L207.57,433.65L208.79,433.64L210,433.62L211.21,433.59L212.43,433.58L213.64,433.56L214.86,433.53L216.07,433.47L217.28,433.41L218.5,433.33L219.71,433.24L220.92,433.17L222.14,433.12L223.35,433.02L224.57,432.9L225.78,432.8L226.99,432.69L228.21,432.59L229.42,432.51L230.64,432.44L231.85,432.34L233.06,432.24L234.28,432.12L235.49,432.02L236.71,431.94L237.92,431.85L239.13,431.77L240.35,431.68L241.56,431.59L242.77,431.49L243.99,431.42L245.2,431.32L246.42,431.26L247.63,431.21L248.84,431.13L250.06,431.04L251.27,430.94L252.49,430.88L253.7,430.79L254.91,430.69L256.13,430.65L257.34,430.59L258.55,430.53L259.77,430.44L260.98,430.36L262.2,430.26L263.41,430.19L264.62,430.16L265.84,430.1L267.05,429.97L268.27,429.84L269.48,429.69L270.69,429.51L271.91,429.37L273.12,429.25L274.34,429.02L275.55,428.7L276.76,428.3L277.98,427.85L279.19,427.44L280.4,427.09L281.62,426.67L282.83,426.17L284.05,425.52L285.26,424.75L286.47,423.83L287.69,422.94L288.9,422.2L290.12,421.36L291.33,420.15L292.54,418.82L293.76,417.23L294.97,415.59L296.18,413.77L297.4,412.39L298.61,410.63L299.83,408.59L301.04,406.41L302.25,403.87L303.47,401.43L304.68,398.87L305.9,397.11L307.11,395.05L308.32,392.65L309.54,389.87L310.75,387.31L311.97,384.12L313.18,381.62L314.39,380.22L315.61,378.62L316.82,376.39L318.03,374.32L319.25,371.56L320.46,369.22L321.68,366.92L322.89,366.42L324.1,364.89L325.32,363.99L326.53,362.22L327.75,360.74L328.96,359.35L330.17,357.99L331.39,358.86L332.6,358.72L333.82,359.35L335.03,358.96L336.24,359.72L337.46,359.58L338.67,358.97L339.88,359.66L341.1,360.48L342.31,362.27L343.53,362.39L344.74,362.6L345.95,362.94L347.17,362.83L348.38,363.45L349.6,364.53L350.81,367.11L352.02,368.45L353.24,369.04L354.45,369.56L355.66,369.45L356.88,370.49L358.09,371.62L359.31,373.3L360.52,374.29L361.73,375.02L362.95,375.74L364.16,375.5L365.38,376.37L366.59,377.1L367.8,377.78L369.02,378.28L370.23,379.59L371.45,379.49L372.66,379.41L373.87,380.04L375.09,380.66L376.3,381.07L377.51,380.55L378.73,380.08L379.94,379.86L381.16,379.94L382.37,380.49L383.58,380.62L384.8,380.66L386.01,380.44L387.23,380.5L388.44,380.27L389.65,379.59L390.87,379.97L392.08,380.53L393.29,381.04L394.51,381.36L395.72,381.68L396.94,381.71L398.15,382.13L399.36,382.73L400.58,383.83L401.79,384.98L403.01,385.64L404.22,387.03L405.43,387.34L406.65,387.29L407.86,388.03L409.08,388.91L410.29,389.33L411.5,389.65L412.72,390.3L413.93,390.73L415.14,391.62L416.36,392.23L417.57,393.17L418.79,393.46L420,393.89L421.21,394L422.43,394.2L423.64,394.2L424.86,394.91L426.07,395.45L427.28,395.81L428.5,396.3L429.71,396.57L430.92,396.65L432.14,396.51L433.35,396.96L434.57,397.38L435.78,397.84L436.99,398.26L438.21,398.46L439.42,398.25L440.64,397.84L441.85,397.94L443.06,397.93L444.28,397.79L445.49,397.15L446.71,396.34L447.92,395.64L449.13,394.64L450.35,394.46L451.56,393.82L452.77,393.21L453.99,392.34L455.2,391.39L456.42,390.49L457.63,389.82L458.84,389.85L460.06,389.24L461.27,388.46L462.49,387.48L463.7,386.34L464.91,385.31L466.13,384.24L467.34,384.33L468.55,383.78L469.77,383.5L470.98,382.69L472.2,381.82L473.41,380.97L474.62,380.38L475.84,381.2L477.05,381.43L478.27,381.37L479.48,381.21L480.69,380.85L481.91,380.36L483.12,380.23L484.34,380.93L485.55,381.23L486.76,381.39L487.98,381.16L489.19,380.99L490.4,381.03L491.62,380.63L492.83,380.53L494.05,381.9L495.26,382.66L496.47,382.99L497.69,383.75L498.9,384.06L500.12,384.07L501.33,384.89L502.54,385.39L503.76,385.83L504.97,386.27L506.18,386.58L507.4,386.72L508.61,386.79L509.83,387.85L511.04,388.88L512.25,389.55L513.47,389.88L514.68,390.52L515.9,390.91L517.11,390.93L518.32,391.73L519.54,392.18L520.75,392.69L521.97,393.08L523.18,393.32L524.39,393.86L525.61,393.83L526.82,394.53L528.03,395.45L529.25,396.1L530.46,396.51L531.68,397.01L532.89,397.72L534.1,398.32L535.32,399.3L536.53,400.23L537.75,401.33L538.96,401.94L540.17,402.55L541.39,403.2L542.6,403.58L543.82,404.15L545.03,404.87L546.24,405.69L547.46,406.38L548.67,407.12L549.88,407.89L551.1,408.14L552.31,408.59L553.53,409.38L554.74,410.15L555.95,410.81L557.17,411.47L558.38,411.88L559.6,412.23L560.81,412.67L562.02,413.43L563.24,414.93L564.45,415.36L565.66,415.87L566.88,416.33L568.09,416.63L569.31,416.99L570.52,417.64L571.73,418.29L572.95,418.82L574.16,419.21L575.38,419.48L576.59,419.68L577.8,419.92L579.02,424.88L580.23,425.27L581.45,425.58L582.66,426.2L583.87,426.48L585.09,426.62L586.3,427.66L587.51,428.03L588.73,428.44L589.94,429.05L591.16,429.24L592.37,429.48L593.58,429.54L594.8,429.78L596.01,429.95L597.23,430.18L598.44,430.28L599.65,430.43L600.87,430.65L602.08,430.73L603.29,430.84L604.51,430.93L605.72,431L606.94,431.04L608.15,431.04L609.36,431.08L610.58,431.07L611.79,431.14L613.01,431.12L614.22,431.02L615.43,431.09L616.65,430.92L617.86,430.84L619.08,430.59L620.29,430.46L621.5,430.29L622.72,430.1L623.93,429.76L625.14,429.39L626.36,429.03L627.57,428.67L628.79,428.48L630,428.28" style="fill: rgb(31, 119, 180); fill-opacity: 1; stroke-width: 0;"/></g><g><path class="js-fill" d="M0,434.98L1.21,434.97L2.43,434.96L3.64,434.94L4.86,434.92L6.07,434.9L7.28,434.85L8.5,434.82L9.71,434.78L10.92,434.73L12.14,434.67L13.35,434.61L14.57,434.49L15.78,434.35L16.99,434.19L18.21,434.13L19.42,433.91L20.64,433.68L21.85,433.45L23.06,433.17L24.28,432.86L25.49,432.59L26.71,432.27L27.92,431.97L29.13,431.5L30.35,431L31.56,430.46L32.77,430.02L33.99,429.6L35.2,429.19L36.42,428.79L37.63,428.29L38.84,427.78L40.06,427.35L41.27,426.91L42.49,426.68L43.7,426.39L44.91,426.04L46.13,425.74L47.34,425.44L48.55,425.1L49.77,424.76L50.98,424.52L52.2,424.38L53.41,424.21L54.62,424L55.84,423.81L57.05,423.56L58.27,423.33L59.48,423.14L60.69,423.02L61.91,422.86L63.12,422.7L64.34,422.61L65.55,422.48L66.76,422.4L67.98,422.35L69.19,422.35L70.4,422.31L71.62,422.35L72.83,422.34L74.05,422.37L75.26,422.32L76.47,422.31L77.69,422.33L78.9,422.36L80.12,422.62L81.33,422.66L82.54,422.63L83.76,422.67L84.97,422.67L86.18,422.79L87.4,423.42L88.61,423.57L89.83,423.71L91.04,423.99L92.25,424.12L93.47,424.18L94.68,424.28L95.9,424.53L97.11,424.7L98.32,425.09L99.54,425.26L100.75,425.42L101.97,425.58L103.18,425.7L104.39,425.92L105.61,426.07L106.82,426.22L108.03,426.35L109.25,426.46L110.46,426.57L111.68,426.79L112.89,426.97L114.1,427.25L115.32,427.41L116.53,427.64L117.75,427.78L118.96,427.85L120.17,427.98L121.39,428.03L122.6,428.11L123.82,428.24L125.03,428.34L126.24,428.39L127.46,428.44L128.67,428.61L129.88,428.71L131.1,428.81L132.31,428.96L133.53,429.1L134.74,429.21L135.95,429.24L137.17,429.37L138.38,429.42L139.6,429.49L140.81,429.64L142.02,429.67L143.24,429.69L144.45,429.72L145.66,429.82L146.88,429.91L148.09,429.94L149.31,430L150.52,430.07L151.73,430.09L152.95,430.1L154.16,430.19L155.38,430.22L156.59,430.23L157.8,430.25L159.02,430.27L160.23,430.27L161.45,430.26L162.66,430.3L163.87,430.37L165.09,430.38L166.3,430.38L167.51,430.39L168.73,430.4L169.94,430.4L171.16,430.42L172.37,430.46L173.58,430.46L174.8,430.46L176.01,430.47L177.23,430.46L178.44,430.47L179.65,430.48L180.87,430.47L182.08,430.46L183.29,430.47L184.51,430.46L185.72,430.45L186.94,430.44L188.15,430.44L189.36,430.44L190.58,430.47L191.79,430.46L193.01,430.45L194.22,430.45L195.43,430.45L196.65,430.45L197.86,430.43L199.08,430.43L200.29,430.4L201.5,430.4L202.72,430.37L203.93,430.36L205.14,430.34L206.36,430.32L207.57,430.29L208.79,430.27L210,430.24L211.21,430.21L212.43,430.2L213.64,430.18L214.86,430.15L216.07,430.09L217.28,430.02L218.5,429.94L219.71,429.85L220.92,429.78L222.14,429.73L223.35,429.63L224.57,429.52L225.78,429.41L226.99,429.3L228.21,429.2L229.42,429.12L230.64,429.05L231.85,428.95L233.06,428.84L234.28,428.73L235.49,428.62L236.71,428.54L237.92,428.45L239.13,428.37L240.35,428.28L241.56,428.19L242.77,428.09L243.99,428.01L245.2,427.92L246.42,427.85L247.63,427.8L248.84,427.72L250.06,427.64L251.27,427.54L252.49,427.47L253.7,427.37L254.91,427.28L256.13,427.24L257.34,427.18L258.55,427.11L259.77,427.02L260.98,426.93L262.2,426.84L263.41,426.77L264.62,426.73L265.84,426.67L267.05,426.54L268.27,426.41L269.48,426.25L270.69,426.07L271.91,425.93L273.12,425.81L274.34,425.58L275.55,425.25L276.76,424.85L277.98,424.4L279.19,423.99L280.4,423.63L281.62,423.21L282.83,422.7L284.05,422.04L285.26,421.27L286.47,420.34L287.69,419.45L288.9,418.7L290.12,417.85L291.33,416.63L292.54,415.29L293.76,413.69L294.97,412.03L296.18,410.2L297.4,408.8L298.61,407.02L299.83,404.96L301.04,402.77L302.25,400.21L303.47,397.74L304.68,395.16L305.9,393.38L307.11,391.28L308.32,388.85L309.54,386.03L310.75,383.43L311.97,380.19L313.18,377.67L314.39,376.23L315.61,374.57L316.82,372.29L318.03,370.16L319.25,367.35L320.46,364.95L321.68,362.6L322.89,362.05L324.1,360.45L325.32,359.48L326.53,357.65L327.75,356.1L328.96,354.64L330.17,353.23L331.39,354.04L332.6,353.81L333.82,354.38L335.03,353.91L336.24,354.59L337.46,354.39L338.67,353.72L339.88,354.35L341.1,355.09L342.31,356.82L343.53,356.84L344.74,356.98L345.95,357.25L347.17,357.09L348.38,357.66L349.6,358.68L350.81,361.21L352.02,362.46L353.24,362.98L354.45,363.45L355.66,363.29L356.88,364.28L358.09,365.33L359.31,366.95L360.52,367.87L361.73,368.53L362.95,369.2L364.16,368.92L365.38,369.76L366.59,370.43L367.8,371.06L369.02,371.51L370.23,372.77L371.45,372.65L372.66,372.54L373.87,373.12L375.09,373.68L376.3,374.04L377.51,373.46L378.73,372.95L379.94,372.7L381.16,372.75L382.37,373.26L383.58,373.32L384.8,373.32L386.01,373.05L387.23,373.06L388.44,372.78L389.65,372.06L390.87,372.4L392.08,372.91L393.29,373.36L394.51,373.64L395.72,373.91L396.94,373.9L398.15,374.27L399.36,374.84L400.58,375.89L401.79,376.98L403.01,377.6L404.22,378.94L405.43,379.2L406.65,379.13L407.86,379.82L409.08,380.65L410.29,381.03L411.5,381.3L412.72,381.91L413.93,382.29L415.14,383.17L416.36,383.74L417.57,384.64L418.79,384.88L420,385.27L421.21,385.34L422.43,385.5L423.64,385.48L424.86,386.16L426.07,386.66L427.28,386.99L428.5,387.44L429.71,387.68L430.92,387.73L432.14,387.57L433.35,388L434.57,388.39L435.78,388.81L436.99,389.2L438.21,389.36L439.42,389.13L440.64,388.7L441.85,388.76L443.06,388.73L444.28,388.55L445.49,387.88L446.71,387.05L447.92,386.32L449.13,385.31L450.35,385.1L451.56,384.43L452.77,383.78L453.99,382.89L455.2,381.9L456.42,380.98L457.63,380.28L458.84,380.29L460.06,379.64L461.27,378.83L462.49,377.81L463.7,376.63L464.91,375.57L466.13,374.48L467.34,374.53L468.55,373.93L469.77,373.62L470.98,372.76L472.2,371.86L473.41,370.97L474.62,370.35L475.84,371.14L477.05,371.31L478.27,371.21L479.48,371.01L480.69,370.6L481.91,370.08L483.12,369.92L484.34,370.57L485.55,370.83L486.76,370.94L487.98,370.66L489.19,370.45L490.4,370.45L491.62,370.02L492.83,369.89L494.05,371.23L495.26,371.92L496.47,372.21L497.69,372.9L498.9,373.18L500.12,373.16L501.33,373.94L502.54,374.39L503.76,374.78L504.97,375.19L506.18,375.46L507.4,375.57L508.61,375.61L509.83,376.65L511.04,377.64L512.25,378.28L513.47,378.57L514.68,379.18L515.9,379.54L517.11,379.54L518.32,380.31L519.54,380.72L520.75,381.2L521.97,381.56L523.18,381.77L524.39,382.3L525.61,382.25L526.82,382.93L528.03,383.82L529.25,384.44L530.46,384.83L531.68,385.31L532.89,386L534.1,386.59L535.32,387.54L536.53,388.45L537.75,389.52L538.96,390.12L540.17,390.71L541.39,391.34L542.6,391.71L543.82,392.27L545.03,392.98L546.24,393.78L547.46,394.46L548.67,395.17L549.88,395.93L551.1,396.18L552.31,396.61L553.53,397.39L554.74,398.15L555.95,398.79L557.17,399.44L558.38,399.84L559.6,400.19L560.81,400.62L562.02,401.37L563.24,402.86L564.45,403.29L565.66,403.79L566.88,404.25L568.09,404.54L569.31,404.9L570.52,405.53L571.73,406.17L572.95,406.7L574.16,407.08L575.38,407.35L576.59,407.55L577.8,407.79L579.02,412.74L580.23,413.12L581.45,413.43L582.66,414.05L583.87,414.32L585.09,414.46L586.3,415.49L587.51,415.86L588.73,416.28L589.94,416.88L591.16,417.07L592.37,417.31L593.58,417.36L594.8,417.59L596.01,417.77L597.23,417.99L598.44,418.09L599.65,418.24L600.87,418.45L602.08,418.54L603.29,418.64L604.51,418.73L605.72,418.8L606.94,418.83L608.15,418.84L609.36,418.87L610.58,418.87L611.79,418.93L613.01,418.9L614.22,418.8L615.43,418.88L616.65,418.7L617.86,418.63L619.08,418.38L620.29,418.24L621.5,418.07L622.72,417.88L623.93,417.54L625.14,417.16L626.36,416.8L627.57,416.44L628.79,416.25L630,416.05L630,428.28L628.79,428.48L627.57,428.67L626.36,429.03L625.14,429.39L623.93,429.76L622.72,430.1L621.5,430.29L620.29,430.46L619.08,430.59L617.86,430.84L616.65,430.92L615.43,431.09L614.22,431.02L613.01,431.12L611.79,431.14L610.58,431.07L609.36,431.08L608.15,431.04L606.94,431.04L605.72,431L604.51,430.93L603.29,430.84L602.08,430.73L600.87,430.65L599.65,430.43L598.44,430.28L597.23,430.18L596.01,429.95L594.8,429.78L593.58,429.54L592.37,429.48L591.16,429.24L589.94,429.05L588.73,428.44L587.51,428.03L586.3,427.66L585.09,426.62L583.87,426.48L582.66,426.2L581.45,425.58L580.23,425.27L579.02,424.88L577.8,419.92L576.59,419.68L575.38,419.48L574.16,419.21L572.95,418.82L571.73,418.29L570.52,417.64L569.31,416.99L568.09,416.63L566.88,416.33L565.66,415.87L564.45,415.36L563.24,414.93L562.02,413.43L560.81,412.67L559.6,412.23L558.38,411.88L557.17,411.47L555.95,410.81L554.74,410.15L553.53,409.38L552.31,408.59L551.1,408.14L549.88,407.89L548.67,407.12L547.46,406.38L546.24,405.69L545.03,404.87L543.82,404.15L542.6,403.58L541.39,403.2L540.17,402.55L538.96,401.94L537.75,401.33L536.53,400.23L535.32,399.3L534.1,398.32L532.89,397.72L531.68,397.01L530.46,396.51L529.25,396.1L528.03,395.45L526.82,394.53L525.61,393.83L524.39,393.86L523.18,393.32L521.97,393.08L520.75,392.69L519.54,392.18L518.32,391.73L517.11,390.93L515.9,390.91L514.68,390.52L513.47,389.88L512.25,389.55L511.04,388.88L509.83,387.85L508.61,386.79L507.4,386.72L506.18,386.58L504.97,386.27L503.76,385.83L502.54,385.39L501.33,384.89L500.12,384.07L498.9,384.06L497.69,383.75L496.47,382.99L495.26,382.66L494.05,381.9L492.83,380.53L491.62,380.63L490.4,381.03L489.19,380.99L487.98,381.16L486.76,381.39L485.55,381.23L484.34,380.93L483.12,380.23L481.91,380.36L480.69,380.85L479.48,381.21L478.27,381.37L477.05,381.43L475.84,381.2L474.62,380.38L473.41,380.97L472.2,381.82L470.98,382.69L469.77,383.5L468.55,383.78L467.34,384.33L466.13,384.24L464.91,385.31L463.7,386.34L462.49,387.48L461.27,388.46L460.06,389.24L458.84,389.85L457.63,389.82L456.42,390.49L455.2,391.39L453.99,392.34L452.77,393.21L451.56,393.82L450.35,394.46L449.13,394.64L447.92,395.64L446.71,396.34L445.49,397.15L444.28,397.79L443.06,397.93L441.85,397.94L440.64,397.84L439.42,398.25L438.21,398.46L436.99,398.26L435.78,397.84L434.57,397.38L433.35,396.96L432.14,396.51L430.92,396.65L429.71,396.57L428.5,396.3L427.28,395.81L426.07,395.45L424.86,394.91L423.64,394.2L422.43,394.2L421.21,394L420,393.89L418.79,393.46L417.57,393.17L416.36,392.23L415.14,391.62L413.93,390.73L412.72,390.3L411.5,389.65L410.29,389.33L409.08,388.91L407.86,388.03L406.65,387.29L405.43,387.34L404.22,387.03L403.01,385.64L401.79,384.98L400.58,383.83L399.36,382.73L398.15,382.13L396.94,381.71L395.72,381.68L394.51,381.36L393.29,381.04L392.08,380.53L390.87,379.97L389.65,379.59L388.44,380.27L387.23,380.5L386.01,380.44L384.8,380.66L383.58,380.62L382.37,380.49L381.16,379.94L379.94,379.86L378.73,380.08L377.51,380.55L376.3,381.07L375.09,380.66L373.87,380.04L372.66,379.41L371.45,379.49L370.23,379.59L369.02,378.28L367.8,377.78L366.59,377.1L365.38,376.37L364.16,375.5L362.95,375.74L361.73,375.02L360.52,374.29L359.31,373.3L358.09,371.62L356.88,370.49L355.66,369.45L354.45,369.56L353.24,369.04L352.02,368.45L350.81,367.11L349.6,364.53L348.38,363.45L347.17,362.83L345.95,362.94L344.74,362.6L343.53,362.39L342.31,362.27L341.1,360.48L339.88,359.66L338.67,358.97L337.46,359.58L336.24,359.72L335.03,358.96L333.82,359.35L332.6,358.72L331.39,358.86L330.17,357.99L328.96,359.35L327.75,360.74L326.53,362.22L325.32,363.99L324.1,364.89L322.89,366.42L321.68,366.92L320.46,369.22L319.25,371.56L318.03,374.32L316.82,376.39L315.61,378.62L314.39,380.22L313.18,381.62L311.97,384.12L310.75,387.31L309.54,389.87L308.32,392.65L307.11,395.05L305.9,397.11L304.68,398.87L303.47,401.43L302.25,403.87L301.04,406.41L299.83,408.59L298.61,410.63L297.4,412.39L296.18,413.77L294.97,415.59L293.76,417.23L292.54,418.82L291.33,420.15L290.12,421.36L288.9,422.2L287.69,422.94L286.47,423.83L285.26,424.75L284.05,425.52L282.83,426.17L281.62,426.67L280.4,427.09L279.19,427.44L277.98,427.85L276.76,428.3L275.55,428.7L274.34,429.02L273.12,429.25L271.91,429.37L270.69,429.51L269.48,429.69L268.27,429.84L267.05,429.97L265.84,430.1L264.62,430.16L263.41,430.19L262.2,430.26L260.98,430.36L259.77,430.44L258.55,430.53L257.34,430.59L256.13,430.65L254.91,430.69L253.7,430.79L252.49,430.88L251.27,430.94L250.06,431.04L248.84,431.13L247.63,431.21L246.42,431.26L245.2,431.32L243.99,431.42L242.77,431.49L241.56,431.59L240.35,431.68L239.13,431.77L237.92,431.85L236.71,431.94L235.49,432.02L234.28,432.12L233.06,432.24L231.85,432.34L230.64,432.44L229.42,432.51L228.21,432.59L226.99,432.69L225.78,432.8L224.57,432.9L223.35,433.02L222.14,433.12L220.92,433.17L219.71,433.24L218.5,433.33L217.28,433.41L216.07,433.47L214.86,433.53L213.64,433.56L212.43,433.58L211.21,433.59L210,433.62L208.79,433.64L207.57,433.65L206.36,433.68L205.14,433.7L203.93,433.72L202.72,433.73L201.5,433.76L200.29,433.77L199.08,433.79L197.86,433.79L196.65,433.81L195.43,433.81L194.22,433.81L193.01,433.81L191.79,433.81L190.58,433.83L189.36,433.79L188.15,433.8L186.94,433.8L185.72,433.8L184.51,433.81L183.29,433.82L182.08,433.81L180.87,433.82L179.65,433.83L178.44,433.81L177.23,433.81L176.01,433.82L174.8,433.81L173.58,433.81L172.37,433.81L171.16,433.77L169.94,433.74L168.73,433.74L167.51,433.73L166.3,433.72L165.09,433.71L163.87,433.7L162.66,433.64L161.45,433.59L160.23,433.6L159.02,433.6L157.8,433.58L156.59,433.56L155.38,433.54L154.16,433.51L152.95,433.42L151.73,433.41L150.52,433.39L149.31,433.31L148.09,433.25L146.88,433.22L145.66,433.13L144.45,433.03L143.24,433L142.02,432.97L140.81,432.94L139.6,432.79L138.38,432.71L137.17,432.65L135.95,432.52L134.74,432.49L133.53,432.37L132.31,432.23L131.1,432.07L129.88,431.97L128.67,431.86L127.46,431.68L126.24,431.63L125.03,431.57L123.82,431.47L122.6,431.33L121.39,431.25L120.17,431.19L118.96,431.05L117.75,430.98L116.53,430.83L115.32,430.59L114.1,430.42L112.89,430.13L111.68,429.94L110.46,429.72L109.25,429.59L108.03,429.48L106.82,429.33L105.61,429.18L104.39,429L103.18,428.78L101.97,428.64L100.75,428.47L99.54,428.29L98.32,428.11L97.11,427.7L95.9,427.5L94.68,427.24L93.47,427.12L92.25,427.04L91.04,426.89L89.83,426.6L88.61,426.44L87.4,426.25L86.18,425.59L84.97,425.45L83.76,425.43L82.54,425.38L81.33,425.36L80.12,425.3L78.9,425L77.69,424.95L76.47,424.89L75.26,424.86L74.05,424.89L72.83,424.82L71.62,424.79L70.4,424.71L69.19,424.71L67.98,424.66L66.76,424.66L65.55,424.7L64.34,424.78L63.12,424.81L61.91,424.93L60.69,425.04L59.48,425.1L58.27,425.23L57.05,425.42L55.84,425.61L54.62,425.74L53.41,425.9L52.2,426.01L50.98,426.1L49.77,426.28L48.55,426.57L47.34,426.84L46.13,427.06L44.91,427.3L43.7,427.58L42.49,427.78L41.27,427.94L40.06,428.31L38.84,428.65L37.63,429.07L36.42,429.5L35.2,429.84L33.99,430.18L32.77,430.54L31.56,430.92L30.35,431.38L29.13,431.83L27.92,432.26L26.71,432.51L25.49,432.8L24.28,433.03L23.06,433.3L21.85,433.57L20.64,433.77L19.42,433.99L18.21,434.19L16.99,434.24L15.78,434.39L14.57,434.52L13.35,434.63L12.14,434.69L10.92,434.74L9.71,434.78L8.5,434.82L7.28,434.85L6.07,434.9L4.86,434.92L3.64,434.94L2.43,434.96L1.21,434.97L0,434.98Z" style="fill: rgb(228, 19, 23); fill-opacity: 1; stroke-width: 0;"/></g></g><g class="errorbars"/><g class="lines"/><g class="points"/><g class="text"/></g><g class="trace scatter trace9732a9" style="stroke-miterlimit: 2;"><g class="fills"><g><path class="js-fill" d="M0,434.98L1.21,434.97L2.43,434.96L3.64,434.94L4.86,434.92L6.07,434.89L7.28,434.84L8.5,434.81L9.71,434.76L10.92,434.7L12.14,434.63L13.35,434.56L14.57,434.44L15.78,434.3L16.99,434.12L18.21,434.03L19.42,433.81L20.64,433.56L21.85,433.31L23.06,432.98L24.28,432.64L25.49,432.33L26.71,431.99L27.92,431.59L29.13,431.08L30.35,430.51L31.56,429.88L32.77,429.35L33.99,428.89L35.2,428.39L36.42,427.89L37.63,427.3L38.84,426.74L40.06,426.16L41.27,425.67L42.49,425.28L43.7,424.89L44.91,424.43L46.13,423.99L47.34,423.55L48.55,423.09L49.77,422.68L50.98,422.34L52.2,422.05L53.41,421.68L54.62,421.28L55.84,420.9L57.05,420.45L58.27,420.06L59.48,419.76L60.69,419.47L61.91,419.22L63.12,418.86L64.34,418.52L65.55,418.19L66.76,417.9L67.98,417.68L69.19,417.42L70.4,417.1L71.62,416.85L72.83,416.56L74.05,416.33L75.26,416.11L76.47,415.95L77.69,415.75L78.9,415.55L80.12,415.37L81.33,415.18L82.54,415L83.76,414.87L84.97,414.75L86.18,414.65L87.4,414.51L88.61,414.38L89.83,414.25L91.04,414.14L92.25,414.07L93.47,414L94.68,413.86L95.9,413.78L97.11,413.68L98.32,413.61L99.54,413.52L100.75,413.46L101.97,413.42L103.18,413.34L104.39,413.28L105.61,413.21L106.82,413.15L108.03,413.09L109.25,413.04L110.46,413.01L111.68,412.97L112.89,412.92L114.1,412.86L115.32,412.81L116.53,412.77L117.75,412.74L118.96,412.72L120.17,412.69L121.39,412.66L122.6,412.64L123.82,412.59L125.03,412.57L126.24,412.55L127.46,412.52L128.67,412.49L129.88,412.47L131.1,412.44L132.31,412.42L133.53,412.39L134.74,412.36L135.95,412.33L137.17,412.31L138.38,412.28L139.6,412.24L140.81,412.26L142.02,412.23L143.24,412.21L144.45,412.19L145.66,412.18L146.88,412.12L148.09,412.1L149.31,412.07L150.52,412.06L151.73,412.04L152.95,412.03L154.16,412.01L155.38,412L156.59,411.98L157.8,411.96L159.02,411.93L160.23,411.91L161.45,411.89L162.66,411.88L163.87,411.86L165.09,411.84L166.3,411.82L167.51,411.8L168.73,411.78L169.94,411.76L171.16,411.75L172.37,411.73L173.58,411.71L174.8,411.69L176.01,411.67L177.23,411.64L178.44,411.63L179.65,411.61L180.87,411.59L182.08,411.56L183.29,411.53L184.51,411.51L185.72,411.48L186.94,411.47L188.15,411.45L189.36,411.42L190.58,411.38L191.79,411.35L193.01,411.32L194.22,411.3L195.43,411.28L196.65,411.26L197.86,411.23L199.08,411.19L200.29,411.14L201.5,411.1L202.72,411.06L203.93,411.03L205.14,410.99L206.36,410.95L207.57,410.9L208.79,410.84L210,410.78L211.21,410.74L212.43,410.71L213.64,410.67L214.86,410.61L216.07,410.53L217.28,410.44L218.5,410.34L219.71,410.22L220.92,410.13L222.14,410.05L223.35,409.91L224.57,409.78L225.78,409.64L226.99,409.5L228.21,409.37L229.42,409.28L230.64,409.18L231.85,409.06L233.06,408.92L234.28,408.76L235.49,408.6L236.71,408.47L237.92,408.36L239.13,408.23L240.35,408.1L241.56,407.94L242.77,407.79L243.99,407.64L245.2,407.51L246.42,407.41L247.63,407.29L248.84,407.15L250.06,407L251.27,406.82L252.49,406.66L253.7,406.51L254.91,406.38L256.13,406.25L257.34,406.09L258.55,405.92L259.77,405.74L260.98,405.56L262.2,405.39L263.41,405.25L264.62,405.09L265.84,404.92L267.05,404.67L268.27,404.43L269.48,404.16L270.69,403.92L271.91,403.7L273.12,403.44L274.34,403.09L275.55,402.67L276.76,402.15L277.98,401.61L279.19,401.09L280.4,400.64L281.62,400.08L282.83,399.38L284.05,398.54L285.26,397.58L286.47,396.54L287.69,395.42L288.9,394.53L290.12,393.49L291.33,392.04L292.54,390.5L293.76,388.67L294.97,386.8L296.18,384.76L297.4,383.14L298.61,381.04L299.83,378.65L301.04,376.09L302.25,373.12L303.47,370.08L304.68,367.22L305.9,365.1L307.11,362.4L308.32,359.48L309.54,356.18L310.75,352.57L311.97,348.77L313.18,345.65L314.39,343.24L315.61,339.89L316.82,336.74L318.03,333.11L319.25,329.2L320.46,325.64L321.68,322.39L322.89,319.78L324.1,316.7L325.32,313.43L326.53,309.97L327.75,306.41L328.96,303.09L330.17,300.39L331.39,298.19L332.6,295.98L333.82,293.51L335.03,290.73L336.24,288.03L337.46,285.51L338.67,283.54L339.88,281.97L341.1,280.13L342.31,278.15L343.53,275.93L344.74,273.63L345.95,271.61L347.17,269.81L348.38,268.5L349.6,267.08L350.81,265.87L352.02,264.24L353.24,262.45L354.45,260.55L355.66,258.84L356.88,257.69L358.09,256.27L359.31,254.59L360.52,252.85L361.73,251.38L362.95,249.82L364.16,248.38L365.38,247.34L366.59,246.07L367.8,244.74L369.02,243.01L370.23,241.19L371.45,240.2L372.66,239.35L373.87,238.53L375.09,237.46L376.3,235.91L377.51,233.66L378.73,231.54L379.94,230.41L381.16,229.05L382.37,228.02L383.58,226.55L384.8,224.61L386.01,222.85L387.23,221.17L388.44,219.27L389.65,217.49L390.87,216.29L392.08,214.93L393.29,213.42L394.51,211.77L395.72,210.23L396.94,208.67L398.15,207.47L399.36,206.63L400.58,205.63L401.79,204.33L403.01,202.99L404.22,201.69L405.43,200.41L406.65,199.3L407.86,198.48L409.08,197.47L410.29,196.02L411.5,194.65L412.72,193.35L413.93,192.14L415.14,191.06L416.36,190.31L417.57,189.38L418.79,188.12L420,186.82L421.21,185.46L422.43,184.18L423.64,183.06L424.86,182.3L426.07,181.29L427.28,180.05L428.5,178.61L429.71,177.28L430.92,175.99L432.14,174.93L433.35,174.23L434.57,173.24L435.78,172.08L436.99,170.77L438.21,169.29L439.42,167.87L440.64,166.58L441.85,165.66L443.06,164.39L444.28,162.83L445.49,160.93L446.71,158.97L447.92,157.16L449.13,155.5L450.35,154.24L451.56,152.61L452.77,150.62L453.99,148.44L455.2,146.15L456.42,143.89L457.63,141.91L458.84,140.58L460.06,138.7L461.27,136.57L462.49,134.12L463.7,131.56L464.91,129.07L466.13,127.03L467.34,125.58L468.55,123.63L469.77,121.43L470.98,119.05L472.2,116.59L473.41,114.31L474.62,112.39L475.84,110.05L477.05,108.26L478.27,106.23L479.48,103.96L480.69,101.67L481.91,99.4L483.12,97.52L484.34,96.29L485.55,94.76L486.76,92.61L487.98,90.35L489.19,88.26L490.4,86.23L491.62,84.5L492.83,83.48L494.05,82.74L495.26,81.43L496.47,79.79L497.69,77.98L498.9,76.31L500.12,74.8L501.33,73.87L502.54,72.58L503.76,71.04L504.97,69.42L506.18,67.9L507.4,66.43L508.61,65.22L509.83,64.37L511.04,63.22L512.25,61.89L513.47,60.36L514.68,58.95L515.9,57.63L517.11,56.37L518.32,55.57L519.54,54.57L520.75,53.3L521.97,51.93L523.18,50.64L524.39,49.4L525.61,48.53L526.82,47.96L528.03,47.09L529.25,46.08L530.46,44.95L531.68,43.95L532.89,42.97L534.1,42.18L535.32,41.7L536.53,41.03L537.75,40.28L538.96,39.51L540.17,38.79L541.39,38.15L542.6,37.6L543.82,37.27L545.03,36.85L546.24,36.32L547.46,35.78L548.67,35.28L549.88,34.83L551.1,34.44L552.31,34.21L553.53,33.9L554.74,33.52L555.95,33.13L557.17,32.77L558.38,32.45L559.6,32.17L560.81,32L562.02,31.76L563.24,31.48L564.45,31.29L565.66,31.05L566.88,30.82L568.09,30.6L569.31,30.48L570.52,30.3L571.73,30.09L572.95,29.89L574.16,29.71L575.38,29.54L576.59,29.41L577.8,29.32L579.02,29.2L580.23,29.07L581.45,28.94L582.66,28.83L583.87,28.72L585.09,28.64L586.3,28.59L587.51,28.51L588.73,28.4L589.94,28.38L591.16,28.3L592.37,28.22L593.58,28.15L594.8,28.11L596.01,28.05L597.23,27.97L598.44,27.89L599.65,27.81L600.87,27.73L602.08,27.65L603.29,27.6L604.51,27.52L605.72,27.42L606.94,27.29L608.15,27.15L609.36,27.02L610.58,26.89L611.79,26.8L613.01,26.66L614.22,26.45L615.43,26.21L616.65,25.94L617.86,25.64L619.08,25.34L620.29,25.14L621.5,24.8L622.72,24.4L623.93,23.91L625.14,23.42L626.36,22.93L627.57,22.48L628.79,22.18L630,21.75L630,416.05L628.79,416.25L627.57,416.44L626.36,416.8L625.14,417.16L623.93,417.54L622.72,417.88L621.5,418.07L620.29,418.24L619.08,418.38L617.86,418.63L616.65,418.7L615.43,418.88L614.22,418.8L613.01,418.9L611.79,418.93L610.58,418.87L609.36,418.87L608.15,418.84L606.94,418.83L605.72,418.8L604.51,418.73L603.29,418.64L602.08,418.54L600.87,418.45L599.65,418.24L598.44,418.09L597.23,417.99L596.01,417.77L594.8,417.59L593.58,417.36L592.37,417.31L591.16,417.07L589.94,416.88L588.73,416.28L587.51,415.86L586.3,415.49L585.09,414.46L583.87,414.32L582.66,414.05L581.45,413.43L580.23,413.12L579.02,412.74L577.8,407.79L576.59,407.55L575.38,407.35L574.16,407.08L572.95,406.7L571.73,406.17L570.52,405.53L569.31,404.9L568.09,404.54L566.88,404.25L565.66,403.79L564.45,403.29L563.24,402.86L562.02,401.37L560.81,400.62L559.6,400.19L558.38,399.84L557.17,399.44L555.95,398.79L554.74,398.15L553.53,397.39L552.31,396.61L551.1,396.18L549.88,395.93L548.67,395.17L547.46,394.46L546.24,393.78L545.03,392.98L543.82,392.27L542.6,391.71L541.39,391.34L540.17,390.71L538.96,390.12L537.75,389.52L536.53,388.45L535.32,387.54L534.1,386.59L532.89,386L531.68,385.31L530.46,384.83L529.25,384.44L528.03,383.82L526.82,382.93L525.61,382.25L524.39,382.3L523.18,381.77L521.97,381.56L520.75,381.2L519.54,380.72L518.32,380.31L517.11,379.54L515.9,379.54L514.68,379.18L513.47,378.57L512.25,378.28L511.04,377.64L509.83,376.65L508.61,375.61L507.4,375.57L506.18,375.46L504.97,375.19L503.76,374.78L502.54,374.39L501.33,373.94L500.12,373.16L498.9,373.18L497.69,372.9L496.47,372.21L495.26,371.92L494.05,371.23L492.83,369.89L491.62,370.02L490.4,370.45L489.19,370.45L487.98,370.66L486.76,370.94L485.55,370.83L484.34,370.57L483.12,369.92L481.91,370.08L480.69,370.6L479.48,371.01L478.27,371.21L477.05,371.31L475.84,371.14L474.62,370.35L473.41,370.97L472.2,371.86L470.98,372.76L469.77,373.62L468.55,373.93L467.34,374.53L466.13,374.48L464.91,375.57L463.7,376.63L462.49,377.81L461.27,378.83L460.06,379.64L458.84,380.29L457.63,380.28L456.42,380.98L455.2,381.9L453.99,382.89L452.77,383.78L451.56,384.43L450.35,385.1L449.13,385.31L447.92,386.32L446.71,387.05L445.49,387.88L444.28,388.55L443.06,388.73L441.85,388.76L440.64,388.7L439.42,389.13L438.21,389.36L436.99,389.2L435.78,388.81L434.57,388.39L433.35,388L432.14,387.57L430.92,387.73L429.71,387.68L428.5,387.44L427.28,386.99L426.07,386.66L424.86,386.16L423.64,385.48L422.43,385.5L421.21,385.34L420,385.27L418.79,384.88L417.57,384.64L416.36,383.74L415.14,383.17L413.93,382.29L412.72,381.91L411.5,381.3L410.29,381.03L409.08,380.65L407.86,379.82L406.65,379.13L405.43,379.2L404.22,378.94L403.01,377.6L401.79,376.98L400.58,375.89L399.36,374.84L398.15,374.27L396.94,373.9L395.72,373.91L394.51,373.64L393.29,373.36L392.08,372.91L390.87,372.4L389.65,372.06L388.44,372.78L387.23,373.06L386.01,373.05L384.8,373.32L383.58,373.32L382.37,373.26L381.16,372.75L379.94,372.7L378.73,372.95L377.51,373.46L376.3,374.04L375.09,373.68L373.87,373.12L372.66,372.54L371.45,372.65L370.23,372.77L369.02,371.51L367.8,371.06L366.59,370.43L365.38,369.76L364.16,368.92L362.95,369.2L361.73,368.53L360.52,367.87L359.31,366.95L358.09,365.33L356.88,364.28L355.66,363.29L354.45,363.45L353.24,362.98L352.02,362.46L350.81,361.21L349.6,358.68L348.38,357.66L347.17,357.09L345.95,357.25L344.74,356.98L343.53,356.84L342.31,356.82L341.1,355.09L339.88,354.35L338.67,353.72L337.46,354.39L336.24,354.59L335.03,353.91L333.82,354.38L332.6,353.81L331.39,354.04L330.17,353.23L328.96,354.64L327.75,356.1L326.53,357.65L325.32,359.48L324.1,360.45L322.89,362.05L321.68,362.6L320.46,364.95L319.25,367.35L318.03,370.16L316.82,372.29L315.61,374.57L314.39,376.23L313.18,377.67L311.97,380.19L310.75,383.43L309.54,386.03L308.32,388.85L307.11,391.28L305.9,393.38L304.68,395.16L303.47,397.74L302.25,400.21L301.04,402.77L299.83,404.96L298.61,407.02L297.4,408.8L296.18,410.2L294.97,412.03L293.76,413.69L292.54,415.29L291.33,416.63L290.12,417.85L288.9,418.7L287.69,419.45L286.47,420.34L285.26,421.27L284.05,422.04L282.83,422.7L281.62,423.21L280.4,423.63L279.19,423.99L277.98,424.4L276.76,424.85L275.55,425.25L274.34,425.58L273.12,425.81L271.91,425.93L270.69,426.07L269.48,426.25L268.27,426.41L267.05,426.54L265.84,426.67L264.62,426.73L263.41,426.77L262.2,426.84L260.98,426.93L259.77,427.02L258.55,427.11L257.34,427.18L256.13,427.24L254.91,427.28L253.7,427.37L252.49,427.47L251.27,427.54L250.06,427.64L248.84,427.72L247.63,427.8L246.42,427.85L245.2,427.92L243.99,428.01L242.77,428.09L241.56,428.19L240.35,428.28L239.13,428.37L237.92,428.45L236.71,428.54L235.49,428.62L234.28,428.73L233.06,428.84L231.85,428.95L230.64,429.05L229.42,429.12L228.21,429.2L226.99,429.3L225.78,429.41L224.57,429.52L223.35,429.63L222.14,429.73L220.92,429.78L219.71,429.85L218.5,429.94L217.28,430.02L216.07,430.09L214.86,430.15L213.64,430.18L212.43,430.2L211.21,430.21L210,430.24L208.79,430.27L207.57,430.29L206.36,430.32L205.14,430.34L203.93,430.36L202.72,430.37L201.5,430.4L200.29,430.4L199.08,430.43L197.86,430.43L196.65,430.45L195.43,430.45L194.22,430.45L193.01,430.45L191.79,430.46L190.58,430.47L189.36,430.44L188.15,430.44L186.94,430.44L185.72,430.45L184.51,430.46L183.29,430.47L182.08,430.46L180.87,430.47L179.65,430.48L178.44,430.47L177.23,430.46L176.01,430.47L174.8,430.46L173.58,430.46L172.37,430.46L171.16,430.42L169.94,430.4L168.73,430.4L167.51,430.39L166.3,430.38L165.09,430.38L163.87,430.37L162.66,430.3L161.45,430.26L160.23,430.27L159.02,430.27L157.8,430.25L156.59,430.23L155.38,430.22L154.16,430.19L152.95,430.1L151.73,430.09L150.52,430.07L149.31,430L148.09,429.94L146.88,429.91L145.66,429.82L144.45,429.72L143.24,429.69L142.02,429.67L140.81,429.64L139.6,429.49L138.38,429.42L137.17,429.37L135.95,429.24L134.74,429.21L133.53,429.1L132.31,428.96L131.1,428.81L129.88,428.71L128.67,428.61L127.46,428.44L126.24,428.39L125.03,428.34L123.82,428.24L122.6,428.11L121.39,428.03L120.17,427.98L118.96,427.85L117.75,427.78L116.53,427.64L115.32,427.41L114.1,427.25L112.89,426.97L111.68,426.79L110.46,426.57L109.25,426.46L108.03,426.35L106.82,426.22L105.61,426.07L104.39,425.92L103.18,425.7L101.97,425.58L100.75,425.42L99.54,425.26L98.32,425.09L97.11,424.7L95.9,424.53L94.68,424.28L93.47,424.18L92.25,424.12L91.04,423.99L89.83,423.71L88.61,423.57L87.4,423.42L86.18,422.79L84.97,422.67L83.76,422.67L82.54,422.63L81.33,422.66L80.12,422.62L78.9,422.36L77.69,422.33L76.47,422.31L75.26,422.32L74.05,422.37L72.83,422.34L71.62,422.35L70.4,422.31L69.19,422.35L67.98,422.35L66.76,422.4L65.55,422.48L64.34,422.61L63.12,422.7L61.91,422.86L60.69,423.02L59.48,423.14L58.27,423.33L57.05,423.56L55.84,423.81L54.62,424L53.41,424.21L52.2,424.38L50.98,424.52L49.77,424.76L48.55,425.1L47.34,425.44L46.13,425.74L44.91,426.04L43.7,426.39L42.49,426.68L41.27,426.91L40.06,427.35L38.84,427.78L37.63,428.29L36.42,428.79L35.2,429.19L33.99,429.6L32.77,430.02L31.56,430.46L30.35,431L29.13,431.5L27.92,431.97L26.71,432.27L25.49,432.59L24.28,432.86L23.06,433.17L21.85,433.45L20.64,433.68L19.42,433.91L18.21,434.13L16.99,434.19L15.78,434.35L14.57,434.49L13.35,434.61L12.14,434.67L10.92,434.73L9.71,434.78L8.5,434.82L7.28,434.85L6.07,434.9L4.86,434.92L3.64,434.94L2.43,434.96L1.21,434.97L0,434.98Z" style="fill: rgb(34, 139, 34); fill-opacity: 1; stroke-width: 0;"/></g></g><g class="errorbars"/><g class="lines"/><g class="points"/><g class="text"/></g><g class="trace scatter tracebfb3e2" style="stroke-miterlimit: 2;"><g class="fills"/><g class="errorbars"/><g class="lines"/><g class="points"/><g class="text"/></g></g></g><g class="overplot"/><path class="xlines-above crisp" style="fill: none;" d="M0,0"/><path class="ylines-above crisp" style="fill: none;" d="M0,0"/><g class="overlines-above"/><g class="xaxislayer-above"><g class="xtick"><text text-anchor="middle" x="0" y="473" transform="translate(67.28,0)" style="font-family: 'Open Sans', verdana, arial, sans-serif; font-size: 12px; fill: rgb(68, 68, 68); fill-opacity: 1; white-space: pre;">Mar 2020</text></g><g class="xtick"><text text-anchor="middle" x="0" y="473" transform="translate(141.32999999999998,0)" style="font-family: 'Open Sans', verdana, arial, sans-serif; font-size: 12px; fill: rgb(68, 68, 68); fill-opacity: 1; white-space: pre;">May 2020</text></g><g class="xtick"><text text-anchor="middle" x="0" y="473" transform="translate(215.38,0)" style="font-family: 'Open Sans', verdana, arial, sans-serif; font-size: 12px; fill: rgb(68, 68, 68); fill-opacity: 1; white-space: pre;">Jul 2020</text></g><g class="xtick"><text text-anchor="middle" x="0" y="473" transform="translate(290.64,0)" style="font-family: 'Open Sans', verdana, arial, sans-serif; font-size: 12px; fill: rgb(68, 68, 68); fill-opacity: 1; white-space: pre;">Sep 2020</text></g><g class="xtick"><text text-anchor="middle" x="0" y="473" transform="translate(364.68,0)" style="font-family: 'Open Sans', verdana, arial, sans-serif; font-size: 12px; fill: rgb(68, 68, 68); fill-opacity: 1; white-space: pre;">Nov 2020</text></g><g class="xtick"><text text-anchor="middle" x="0" y="473" transform="translate(438.73,0)" style="font-family: 'Open Sans', verdana, arial, sans-serif; font-size: 12px; fill: rgb(68, 68, 68); fill-opacity: 1; white-space: pre;">Jan 2021</text></g><g class="xtick"><text text-anchor="middle" x="0" y="473" transform="translate(510.35,0)" style="font-family: 'Open Sans', verdana, arial, sans-serif; font-size: 12px; fill: rgb(68, 68, 68); fill-opacity: 1; white-space: pre;">Mar 2021</text></g><g class="xtick"><text text-anchor="middle" x="0" y="473" transform="translate(584.39,0)" style="font-family: 'Open Sans', verdana, arial, sans-serif; font-size: 12px; fill: rgb(68, 68, 68); fill-opacity: 1; white-space: pre;">May 2021</text></g><g class="xtick"><text text-anchor="middle" x="0" y="473" transform="translate(658.44,0)" style="font-family: 'Open Sans', verdana, arial, sans-serif; font-size: 12px; fill: rgb(68, 68, 68); fill-opacity: 1; white-space: pre;">Jul 2021</text></g></g><g class="yaxislayer-above"><g class="ytick"><text text-anchor="end" x="59" y="4.199999999999999" transform="translate(0,460)" style="font-family: 'Open Sans', verdana, arial, sans-serif; font-size: 12px; fill: rgb(68, 68, 68); fill-opacity: 1; white-space: pre;">0</text></g><g class="ytick"><text text-anchor="end" x="59" y="4.199999999999999" transform="translate(0,412.23)" style="font-family: 'Open Sans', verdana, arial, sans-serif; font-size: 12px; fill: rgb(68, 68, 68); fill-opacity: 1; white-space: pre;">0.5M</text></g><g class="ytick"><text text-anchor="end" x="59" y="4.199999999999999" transform="translate(0,364.45)" style="font-family: 'Open Sans', verdana, arial, sans-serif; font-size: 12px; fill: rgb(68, 68, 68); fill-opacity: 1; white-space: pre;">1M</text></g><g class="ytick"><text text-anchor="end" x="59" y="4.199999999999999" transform="translate(0,316.68)" style="font-family: 'Open Sans', verdana, arial, sans-serif; font-size: 12px; fill: rgb(68, 68, 68); fill-opacity: 1; white-space: pre;">1.5M</text></g><g class="ytick"><text text-anchor="end" x="59" y="4.199999999999999" transform="translate(0,268.9)" style="font-family: 'Open Sans', verdana, arial, sans-serif; font-size: 12px; fill: rgb(68, 68, 68); fill-opacity: 1; white-space: pre;">2M</text></g><g class="ytick"><text text-anchor="end" x="59" y="4.199999999999999" transform="translate(0,221.13)" style="font-family: 'Open Sans', verdana, arial, sans-serif; font-size: 12px; fill: rgb(68, 68, 68); fill-opacity: 1; white-space: pre;">2.5M</text></g><g class="ytick"><text text-anchor="end" x="59" y="4.199999999999999" transform="translate(0,173.36)" style="font-family: 'Open Sans', verdana, arial, sans-serif; font-size: 12px; fill: rgb(68, 68, 68); fill-opacity: 1; white-space: pre;">3M</text></g><g class="ytick"><text text-anchor="end" x="59" y="4.199999999999999" transform="translate(0,125.58)" style="font-family: 'Open Sans', verdana, arial, sans-serif; font-size: 12px; fill: rgb(68, 68, 68); fill-opacity: 1; white-space: pre;">3.5M</text></g><g class="ytick"><text text-anchor="end" x="59" y="4.199999999999999" transform="translate(0,77.81)" style="font-family: 'Open Sans', verdana, arial, sans-serif; font-size: 12px; fill: rgb(68, 68, 68); fill-opacity: 1; white-space: pre;">4M</text></g><g class="ytick"><text text-anchor="end" x="59" y="4.199999999999999" transform="translate(0,30.03)" style="font-family: 'Open Sans', verdana, arial, sans-serif; font-size: 12px; fill: rgb(68, 68, 68); fill-opacity: 1; white-space: pre;">4.5M</text></g></g><g class="overaxes-above"/></g></g><g class="polarlayer"/><g class="ternarylayer"/><g class="geolayer"/><g class="funnelarealayer"/><g class="pielayer"/><g class="treemaplayer"/><g class="sunburstlayer"/><g class="glimages"/><defs id="topdefs-b997e0"><g class="clips"/><clipPath id="legendb997e0"><rect width="109" height="67" x="0" y="0"/></clipPath></defs><g class="layer-above"><g class="imagelayer"/><g class="shapelayer"/></g><g class="infolayer"><g class="legend" pointer-events="all" transform="translate(123, 68.5)"><rect class="bg" shape-rendering="crispEdges" style="stroke: rgb(68, 68, 68); stroke-opacity: 1; fill: rgb(255, 255, 255); fill-opacity: 1; stroke-width: 0px;" width="109" height="67" x="0" y="0"/><g class="scrollbox" transform="translate(0, 0)" clip-path="url('#legendb997e0')"><g class="groups"><g class="traces" style="opacity: 1;" transform="translate(0, 14.5)"><text class="legendtext" text-anchor="start" x="40" y="4.680000000000001" style="font-family: 'Open Sans', verdana, arial, sans-serif; font-size: 12px; fill: rgb(68, 68, 68); fill-opacity: 1; white-space: pre;">Recovered</text><g class="layers"><g class="legendfill"><path class="js-fill" d="M5,-3h30v6h-30z" style="stroke-width: 0; fill: rgb(34, 139, 34); fill-opacity: 1;"/></g><g class="legendlines"/><g class="legendsymbols"><g class="legendpoints"/></g></g><rect class="legendtoggle" x="0" y="-9.5" width="103.03125" height="19" style="fill: rgb(0, 0, 0); fill-opacity: 0;"/></g><g class="traces" style="opacity: 1;" transform="translate(0, 33.5)"><text class="legendtext" text-anchor="start" x="40" y="4.680000000000001" style="font-family: 'Open Sans', verdana, arial, sans-serif; font-size: 12px; fill: rgb(68, 68, 68); fill-opacity: 1; white-space: pre;">Death</text><g class="layers"><g class="legendfill"><path class="js-fill" d="M5,-3h30v6h-30z" style="stroke-width: 0; fill: rgb(228, 19, 23); fill-opacity: 1;"/></g><g class="legendlines"/><g class="legendsymbols"><g class="legendpoints"/></g></g><rect class="legendtoggle" x="0" y="-9.5" width="103.03125" height="19" style="fill: rgb(0, 0, 0); fill-opacity: 0;"/></g><g class="traces" style="opacity: 1;" transform="translate(0, 52.5)"><text class="legendtext" text-anchor="start" x="40" y="4.680000000000001" style="font-family: 'Open Sans', verdana, arial, sans-serif; font-size: 12px; fill: rgb(68, 68, 68); fill-opacity: 1; white-space: pre;">Active</text><g class="layers"><g class="legendfill"><path class="js-fill" d="M5,-3h30v6h-30z" style="stroke-width: 0; fill: rgb(31, 119, 180); fill-opacity: 1;"/></g><g class="legendlines"/><g class="legendsymbols"><g class="legendpoints"/></g></g><rect class="legendtoggle" x="0" y="-9.5" width="103.03125" height="19" style="fill: rgb(0, 0, 0); fill-opacity: 0;"/></g></g></g><rect class="scrollbar" rx="20" ry="3" width="0" height="0" style="fill: rgb(128, 139, 164); fill-opacity: 1;" x="0" y="0"/></g><g class="g-gtitle"><text class="gtitle" x="350" y="12.5" text-anchor="middle" dy="0em" style="font-family: 'Open Sans', verdana, arial, sans-serif; font-size: 17px; fill: rgb(68, 68, 68); opacity: 1; font-weight: normal; white-space: pre;">Italy - Distribution of Covid19 Cases</text></g><g class="g-xtitle" transform="translate(0,-15)"><text class="xtitle" x="375" y="512" text-anchor="middle" style="font-family: 'Open Sans', verdana, arial, sans-serif; font-size: 14px; fill: rgb(68, 68, 68); opacity: 1; font-weight: normal; white-space: pre;">Source: Italy Department of Civil Protection</text></g><g class="g-ytitle"><text class="ytitle" transform="rotate(-90,22,242.5)" x="22" y="242.5" text-anchor="middle" style="font-family: 'Open Sans', verdana, arial, sans-serif; font-size: 14px; fill: rgb(68, 68, 68); opacity: 1; font-weight: normal; white-space: pre;">Number of Cases</text></g></g></svg>