<svg class="main-svg" xmlns="http://www.w3.org/2000/svg" xmlns:xlink="http://www.w3.org/1999/xlink" width="700" height="500" style="" viewBox="0 0 700 500"><rect x="0" y="0" width="700" height="500" style="fill: rgb(255, 255, 255); fill-opacity: 1;"/><defs id="defs-c089cb"><g class="clips"><clipPath id="clipc089cbxyplot" class="plotclip"><rect width="516" height="435"/></clipPath><clipPath class="axesclip" id="clipc089cbx"><rect x="60" y="0" width="516" height="500"/></clipPath><clipPath class="axesclip" id="clipc089cby"><rect x="0" y="25" width="700" height="435"/></clipPath><clipPath class="axesclip" id="clipc089cbxy"><rect x="60" y="25" width="516" height="435"/></clipPath></g><g class="gradients"/></defs><g class="bglayer"/><g class="layer-below"><g class="imagelayer"/><g class="shapelayer"/></g><g class="cartesianlayer"><g class="subplot xy"><g class="layer-subplot"><g class="shapelayer"/><g class="imagelayer"/></g><g class="gridlayer"><g class="x"><path class="xgrid crisp" transform="translate(98.57,0)" d="M0,25v435" style="stroke: rgb(238, 238, 238); stroke-opacity: 1; stroke-width: 1px;"/><path class="xgrid crisp" transform="translate(193.43,0)" d="M0,25v435" style="stroke: rgb(238, 238, 238); stroke-opacity: 1; stroke-width: 1px;"/><path class="xgrid crisp" transform="translate(289.33000000000004,0)" d="M0,25v435" style="stroke: rgb(238, 238, 238); stroke-opacity: 1; stroke-width: 1px;"/><path class="xgrid crisp" transform="translate(385.24,0)" d="M0,25v435" style="stroke: rgb(238, 238, 238); stroke-opacity: 1; stroke-width: 1px;"/><path class="xgrid crisp" transform="translate(479.05,0)" d="M0,25v435" style="stroke: rgb(238, 238, 238); stroke-opacity: 1; stroke-width: 1px;"/><path class="xgrid crisp" transform="translate(573.92,0)" d="M0,25v435" style="stroke: rgb(238, 238, 238); stroke-opacity: 1; stroke-width: 1px;"/></g><g class="y"><path class="ygrid crisp" transform="translate(0,408.72)" d="M60,0h516" style="stroke: rgb(238, 238, 238); stroke-opacity: 1; stroke-width: 1px;"/><path class="ygrid crisp" transform="translate(0,357.45)" d="M60,0h516" style="stroke: rgb(238, 238, 238); stroke-opacity: 1; stroke-width: 1px;"/><path class="ygrid crisp" transform="translate(0,306.17)" d="M60,0h516" style="stroke: rgb(238, 238, 238); stroke-opacity: 1; stroke-width: 1px;"/><path class="ygrid crisp" transform="translate(0,254.9)" d="M60,0h516" style="stroke: rgb(238, 238, 238); stroke-opacity: 1; stroke-width: 1px;"/><path class="ygrid crisp" transform="translate(0,203.62)" d="M60,0h516" style="stroke: rgb(238, 238, 238); stroke-opacity: 1; stroke-width: 1px;"/><path class="ygrid crisp" transform="translate(0,152.35)" d="M60,0h516" style="stroke: rgb(238, 238, 238); stroke-opacity: 1; stroke-width: 1px;"/><path class="ygrid crisp" transform="translate(0,101.07)" d="M60,0h516" style="stroke: rgb(238, 238, 238); stroke-opacity: 1; stroke-width: 1px;"/><path class="ygrid crisp" transform="translate(0,49.8)" d="M60,0h516" style="stroke: rgb(238, 238, 238); stroke-opacity: 1; stroke-width: 1px;"/></g></g><g class="zerolinelayer"><path class="yzl zl crisp" transform="translate(0,460)" d="M60,0h516" style="stroke: rgb(68, 68, 68); stroke-opacity: 1; stroke-width: 1px;"/></g><path class="xlines-below"/><path class="ylines-below"/><g class="overlines-below"/><g class="xaxislayer-below"/><g class="yaxislayer-below"/><g class="overaxes-below"/><g class="plot" transform="translate(60, 25)" clip-path="url('#clipc089cbxyplot')"><g class="scatterlayer mlayer"><g class="trace scatter trace6edac0" style="stroke-miterlimit: 2;"><g class="fills"><g><path class="js-fill" d="M516,435L0,435L0,434.95L1.04,434.92L2.08,434.89L3.13,434.85L4.17,434.79L5.21,434.72L6.25,434.59L7.3,434.52L8.34,434.49L9.38,434.45L10.42,434.41L11.47,434.46L12.51,434.06L13.55,433.88L14.59,433.49L15.64,433.67L16.68,433.09L17.72,432.42L18.76,431.82L19.81,430.97L20.85,430.25L21.89,429.77L22.93,429.3L23.98,428.8L25.02,427.34L26.06,425.16L27.1,423.66L28.15,422.81L29.19,421.4L30.23,420.29L31.27,419.15L32.32,417.75L33.36,416.21L34.4,414.73L35.44,413.16L36.48,412.57L37.53,411.71L38.57,410.32L39.61,409.13L40.65,408.04L41.7,406.66L42.74,405.1L43.78,404.07L44.82,403.44L45.87,402.65L46.91,401.74L47.95,400.88L48.99,399.75L50.04,398.56L51.08,397.91L52.12,397.52L53.16,396.7L54.21,395.63L55.25,394.82L56.29,393.96L57.33,393.68L58.38,393.59L59.42,393.41L60.46,393.21L61.5,393.1L62.55,392.81L63.59,392.85L64.63,392.58L65.67,392.18L66.72,392.12L67.76,392.11L68.8,393.1L69.84,393.06L70.88,393.05L71.93,393.24L72.97,393.12L74.01,393.59L75.05,396.84L76.1,397.5L77.14,398L78.18,399.12L79.22,399.78L80.27,400.16L81.31,400.42L82.35,401.47L83.39,402.12L84.44,403.99L85.48,404.74L86.52,405.63L87.56,406.49L88.61,407.1L89.65,408.11L90.69,408.82L91.73,409.48L92.78,410.14L93.82,410.68L94.86,411.12L95.9,412.18L96.95,413.09L97.99,414.43L99.03,415.2L100.07,416.25L101.12,416.91L102.16,417.13L103.2,417.79L104.24,417.98L105.28,418.29L106.33,418.92L107.37,419.32L108.41,419.56L109.45,419.76L110.5,420.63L111.54,421.08L112.58,421.53L113.62,422.24L114.67,422.94L115.71,423.48L116.75,423.61L117.79,424.19L118.84,424.41L119.88,424.71L120.92,425.39L121.96,425.47L123.01,425.51L124.05,425.53L125.09,425.97L126.13,426.32L127.18,426.44L128.22,426.71L129.26,427.06L130.3,427.09L131.35,427.17L132.39,427.63L133.43,427.75L134.47,427.81L135.52,427.9L136.56,428.02L137.6,428.01L138.64,427.98L139.68,428.22L140.73,428.53L141.77,428.58L142.81,428.58L143.85,428.64L144.9,428.68L145.94,428.68L146.98,428.8L148.02,429.03L149.07,429.02L150.11,429.03L151.15,429.07L152.19,429.03L153.24,429.05L154.28,429.12L155.32,429.08L156.36,429.03L157.41,429.08L158.45,429.02L159.49,428.96L160.53,428.95L161.58,428.94L162.62,428.93L163.66,429.14L164.7,429.02L165.75,429L166.79,429L167.83,429L168.87,429.01L169.92,428.93L170.96,428.9L172,428.79L173.04,428.78L174.08,428.61L175.13,428.57L176.17,428.48L177.21,428.36L178.25,428.21L179.3,428.12L180.34,428.03L181.38,427.88L182.42,427.82L183.47,427.73L184.51,427.6L185.55,427.28L186.59,426.95L187.64,426.53L188.68,426.08L189.72,425.73L190.76,425.47L191.81,424.94L192.85,424.37L193.89,423.83L194.93,423.25L195.98,422.76L197.02,422.34L198.06,422.04L199.1,421.53L200.15,421.01L201.19,420.45L202.23,419.9L203.27,419.48L204.32,419.04L205.36,418.65L206.4,418.18L207.44,417.72L208.48,417.19L209.53,416.86L210.57,416.4L211.61,416.1L212.65,415.88L213.7,415.49L214.74,415.08L215.78,414.56L216.82,414.2L217.87,413.72L218.91,413.27L219.95,413.13L220.99,412.84L222.04,412.54L223.08,412.06L224.12,411.62L225.16,411.15L226.21,410.86L227.25,410.74L228.29,410.42L229.33,409.74L230.38,409.07L231.42,408.3L232.46,407.39L233.5,406.75L234.55,406.19L235.59,405.03L236.63,403.38L237.67,401.34L238.72,399.05L239.76,396.99L240.8,395.27L241.84,393.16L242.88,390.68L243.93,387.37L244.97,383.47L246.01,378.8L247.05,374.31L248.1,370.63L249.14,366.59L250.18,360.42L251.22,353.67L252.27,345.57L253.31,337.18L254.35,327.82L255.39,320.96L256.44,312.08L257.48,301.72L258.52,290.62L259.56,277.56L260.61,264.98L261.65,251.8L262.69,242.9L263.73,232.56L264.78,220.25L265.82,205.95L266.86,192.67L267.9,176.17L268.95,163.53L269.99,156.65L271.03,148.63L272.07,137.18L273.12,126.32L274.16,112.08L275.2,99.8L276.24,87.86L277.28,85.43L278.33,77.55L279.37,73L280.41,63.59L281.45,55.84L282.5,48.42L283.54,41.28L284.58,46.16L285.62,45.31L286.67,48.62L287.71,46.35L288.75,50.22L289.79,49.28L290.84,45.75L291.88,49.65L292.92,53.78L293.96,63.17L295.01,63.45L296.05,64.31L297.09,65.57L298.13,65.07L299.18,68.43L300.22,73.97L301.26,87.59L302.3,94.46L303.35,97.36L304.39,99.87L305.43,99.08L306.47,104.66L307.52,110.45L308.56,119.21L309.6,124.24L310.64,127.75L311.68,131.44L312.73,129.99L313.77,134.68L314.81,138.47L315.85,141.89L316.9,144.28L317.94,150.99L318.98,150.4L320.02,150.11L321.07,153.64L322.11,156.82L323.15,158.99L324.19,155.97L325.24,153.3L326.28,152.19L327.32,152.7L328.36,155.78L329.41,156.48L330.45,156.59L331.49,155.46L332.53,155.81L333.58,154.53L334.62,150.99L335.66,153.12L336.7,156.22L337.75,158.8L338.79,160.31L339.83,161.86L340.87,162L341.92,164.21L342.96,167.53L344,173.32L345.04,179.33L346.08,182.67L347.13,189.92L348.17,191.42L349.21,191.15L350.25,195.14L351.3,199.81L352.34,201.98L353.38,203.47L354.42,206.75L355.47,208.86L356.51,213.67L357.55,217.04L358.59,222.09L359.64,223.49L360.68,225.6L361.72,226.1L362.76,227.07L363.81,227L364.85,230.96L365.89,233.84L366.93,235.69L367.98,238.13L369.02,239.47L370.06,239.72L371.1,239L372.15,241.44L373.19,243.67L374.23,246.03L375.27,248.11L376.32,249.1L377.36,247.93L378.4,245.8L379.44,246.5L380.48,246.56L381.53,245.76L382.57,242.35L383.61,238.01L384.65,234.32L385.7,229.13L386.74,228.4L387.78,225.23L388.82,222.08L389.87,217.69L390.91,212.69L391.95,208.09L392.99,204.72L394.04,205.29L395.08,202.35L396.12,198.43L397.16,193.37L398.21,187.47L399.25,182.25L400.29,176.74L401.33,177.67L402.38,175.16L403.42,173.92L404.46,169.66L405.5,165.13L406.55,160.68L407.59,157.74L408.63,162.47L409.67,163.92L410.72,163.61L411.76,162.77L412.8,160.88L413.84,158.34L414.88,157.71L415.93,161.68L416.97,163.34L418.01,164.18L419.05,162.81L420.1,161.76L421.14,161.88L422.18,159.7L423.22,159.36L424.27,167.02L425.31,171.02L426.35,172.57L427.39,176.26L428.44,177.68L429.48,177.51L430.52,181.96L431.56,184.4L432.61,186.42L433.65,188.36L434.69,189.58L435.73,189.97L436.78,190.08L437.82,195.8L438.86,201.03L439.9,204.38L440.95,205.76L441.99,208.81L443.03,210.63L444.07,210.58L445.12,214.86L446.16,217.04L447.2,219.54L448.24,221.33L449.28,222.34L450.33,224.96L451.37,224.75L452.41,228.53L453.45,233.34L454.5,236.44L455.54,238.29L456.58,240.68L457.62,244.2L458.67,247.21L459.71,252.42L460.75,257.14L461.79,262.64L462.84,265.53L463.88,268.51L464.92,271.67L465.96,273.5L467.01,276.5L468.05,280.11L469.09,284.22L470.13,287.55L471.18,291.23L472.22,295.11L473.26,296.29L474.3,298.55L475.35,302.57L476.39,306.49L477.43,309.75L478.47,313L479.52,314.98L480.56,316.74L481.6,319.04L482.64,322.93L483.68,330.78L484.73,332.99L485.77,335.59L486.81,337.89L487.85,339.35L488.9,341.28L489.94,344.57L490.98,347.89L492.02,350.64L493.07,352.57L494.11,353.89L495.15,354.91L496.19,356.14L497.24,382.66L498.28,384.59L499.32,386.15L500.36,389.38L501.41,390.77L502.45,391.48L503.49,397.02L504.53,398.95L505.58,401.09L506.62,404.26L507.66,405.25L508.7,406.46L509.75,406.73L510.79,407.99L511.83,408.91L512.87,410.08L513.92,410.59L514.96,411.36L516,412.45" style="fill: rgb(253, 187, 188); fill-opacity: 1; stroke-width: 0;"/></g><g><path class="js-fill" d="M0,434.9L1.04,434.86L2.08,434.82L3.13,434.73L4.17,434.61L5.21,434.52L6.25,434.26L7.3,434.14L8.34,433.96L9.38,433.76L10.42,433.49L11.47,433.23L12.51,432.7L13.55,432.06L14.59,431.28L15.64,431.08L16.68,430.1L17.72,429.01L18.76,428.01L19.81,426.68L20.85,425.29L21.89,424.12L22.93,422.69L23.98,421.44L25.02,419.26L26.06,416.95L27.1,414.58L28.15,412.63L29.19,410.79L30.23,409.04L31.27,407.3L32.32,405.05L33.36,402.86L34.4,401.05L35.44,399.12L36.48,398.31L37.53,397.26L38.57,395.76L39.61,394.49L40.65,393.3L41.7,391.79L42.74,390.25L43.78,389.22L44.82,388.71L45.87,388.05L46.91,387.17L47.95,386.4L48.99,385.32L50.04,384.28L51.08,383.54L52.12,383.16L53.16,382.53L54.21,381.84L55.25,381.6L56.29,381.14L57.33,380.84L58.38,380.82L59.42,381.04L60.46,381L61.5,381.38L62.55,381.49L63.59,381.8L64.63,381.63L65.67,381.75L66.72,382.01L67.76,382.26L68.8,383.8L69.84,384.05L70.88,384.15L71.93,384.4L72.97,384.49L74.01,385.24L75.05,388.75L76.1,389.72L77.14,390.5L78.18,392.03L79.22,392.8L80.27,393.22L81.31,393.82L82.35,395.23L83.39,396.24L84.44,398.46L85.48,399.41L86.52,400.34L87.56,401.26L88.61,401.97L89.65,403.17L90.69,404.07L91.73,404.89L92.78,405.68L93.82,406.26L94.86,406.92L95.9,408.12L96.95,409.13L97.99,410.65L99.03,411.57L100.07,412.83L101.12,413.64L102.16,414.01L103.2,414.75L104.24,415.03L105.28,415.47L106.33,416.2L107.37,416.75L108.41,417.07L109.45,417.34L110.5,418.28L111.54,418.87L112.58,419.41L113.62,420.25L114.67,421.02L115.71,421.64L116.75,421.82L117.79,422.49L118.84,422.82L119.88,423.24L120.92,424.04L121.96,424.2L123.01,424.32L124.05,424.48L125.09,425.02L126.13,425.49L127.18,425.67L128.22,426.01L129.26,426.42L130.3,426.5L131.35,426.59L132.39,427.07L133.43,427.22L134.47,427.32L135.52,427.41L136.56,427.54L137.6,427.53L138.64,427.49L139.68,427.73L140.73,428.07L141.77,428.13L142.81,428.15L143.85,428.21L144.9,428.28L145.94,428.29L146.98,428.41L148.02,428.62L149.07,428.63L150.11,428.64L151.15,428.68L152.19,428.65L153.24,428.66L154.28,428.74L155.32,428.71L156.36,428.66L157.41,428.72L158.45,428.64L159.49,428.58L160.53,428.57L161.58,428.56L162.62,428.55L163.66,428.75L164.7,428.65L165.75,428.63L166.79,428.63L167.83,428.62L168.87,428.62L169.92,428.54L170.96,428.51L172,428.39L173.04,428.38L174.08,428.22L175.13,428.17L176.17,428.07L177.21,427.96L178.25,427.81L179.3,427.72L180.34,427.64L181.38,427.47L182.42,427.41L183.47,427.29L184.51,427.16L185.55,426.82L186.59,426.48L187.64,426.06L188.68,425.58L189.72,425.19L190.76,424.93L191.81,424.39L192.85,423.79L193.89,423.23L194.93,422.65L195.98,422.12L197.02,421.68L198.06,421.34L199.1,420.79L200.15,420.24L201.19,419.63L202.23,419.07L203.27,418.62L204.32,418.16L205.36,417.75L206.4,417.27L207.44,416.77L208.48,416.24L209.53,415.86L210.57,415.35L211.61,415.01L212.65,414.74L213.7,414.32L214.74,413.87L215.78,413.34L216.82,412.98L217.87,412.5L218.91,412L219.95,411.8L220.99,411.48L222.04,411.14L223.08,410.66L224.12,410.21L225.16,409.69L226.21,409.33L227.25,409.18L228.29,408.86L229.33,408.15L230.38,407.46L231.42,406.66L232.46,405.71L233.5,404.96L234.55,404.33L235.59,403.09L236.63,401.37L237.67,399.25L238.72,396.83L239.76,394.67L240.8,392.79L241.84,390.56L242.88,387.88L243.93,384.4L244.97,380.3L246.01,375.4L247.05,370.66L248.1,366.7L249.14,362.26L250.18,355.77L251.22,348.7L252.27,340.17L253.31,331.4L254.35,321.67L255.39,314.3L256.44,304.93L257.48,294.03L258.52,282.44L259.56,268.85L260.61,255.77L261.65,242.11L262.69,232.72L263.73,221.74L264.78,208.91L265.82,194.03L266.86,180.37L267.9,163.29L268.95,149.97L269.99,142.48L271.03,133.94L272.07,122.08L273.12,111L274.16,96.23L275.2,83.7L276.24,71.42L277.28,68.75L278.33,60.59L279.37,55.82L280.41,46.36L281.45,38.42L282.5,30.96L283.54,23.7L284.58,28.37L285.62,27.58L286.67,31.03L287.71,28.9L288.75,32.95L289.79,32.21L290.84,28.89L291.88,32.63L292.92,36.96L293.96,46.53L295.01,47.16L296.05,48.32L297.09,50.1L298.13,49.49L299.18,52.78L300.22,58.55L301.26,72.39L302.3,79.54L303.35,82.71L304.39,85.48L305.43,84.86L306.47,90.42L307.52,96.43L308.56,105.41L309.6,110.69L310.64,114.54L311.68,118.44L312.73,117.09L313.77,121.79L314.81,125.67L315.85,129.3L316.9,131.94L317.94,138.99L318.98,138.44L320.02,138.02L321.07,141.37L322.11,144.69L323.15,146.9L324.19,144.1L325.24,141.6L326.28,140.43L327.32,140.87L328.36,143.82L329.41,144.48L330.45,144.71L331.49,143.52L332.53,143.86L333.58,142.6L334.62,138.98L335.66,141.02L336.7,144.06L337.75,146.73L338.79,148.46L339.83,150.14L340.87,150.32L341.92,152.54L342.96,155.8L344,161.68L345.04,167.81L346.08,171.37L347.13,178.8L348.17,180.45L349.21,180.23L350.25,184.16L351.3,188.86L352.34,191.13L353.38,192.81L354.42,196.29L355.47,198.55L356.51,203.36L357.55,206.65L358.59,211.67L359.64,213.2L360.68,215.48L361.72,216.07L362.76,217.12L363.81,217.12L364.85,220.95L365.89,223.84L366.93,225.81L367.98,228.42L369.02,229.86L370.06,230.23L371.1,229.54L372.15,231.95L373.19,234.2L374.23,236.66L375.27,238.9L376.32,239.96L377.36,238.84L378.4,236.67L379.44,237.19L380.48,237.18L381.53,236.42L382.57,232.99L383.61,228.63L384.65,224.9L385.7,219.57L386.74,218.6L387.78,215.2L388.82,211.95L389.87,207.36L390.91,202.24L391.95,197.47L392.99,193.88L394.04,194.09L395.08,190.87L396.12,186.7L397.16,181.45L398.21,175.34L399.25,169.87L400.29,164.17L401.33,164.68L402.38,161.78L403.42,160.32L404.46,155.97L405.5,151.36L406.55,146.8L407.59,143.64L408.63,148.09L409.67,149.34L410.72,149.03L411.76,148.2L412.8,146.28L413.84,143.67L414.88,142.99L415.93,146.73L416.97,148.35L418.01,149.22L419.05,147.96L420.1,147.04L421.14,147.27L422.18,145.13L423.22,144.6L424.27,151.98L425.31,155.98L426.35,157.77L427.39,161.83L428.44,163.5L429.48,163.54L430.52,167.95L431.56,170.58L432.61,172.9L433.65,175.24L434.69,176.9L435.73,177.62L436.78,177.96L437.82,183.63L438.86,189.1L439.9,192.69L440.95,194.43L441.99,197.82L443.03,199.88L444.07,199.98L445.12,204.28L446.16,206.62L447.2,209.36L448.24,211.41L449.28,212.63L450.33,215.53L451.37,215.35L452.41,219.1L453.45,224.02L454.5,227.46L455.54,229.65L456.58,232.3L457.62,236.1L458.67,239.3L459.71,244.51L460.75,249.49L461.79,255.32L462.84,258.55L463.88,261.82L464.92,265.27L465.96,267.28L467.01,270.34L468.05,274.19L469.09,278.57L470.13,282.23L471.18,286.14L472.22,290.24L473.26,291.59L474.3,293.96L475.35,298.19L476.39,302.33L477.43,305.79L478.47,309.31L479.52,311.49L480.56,313.36L481.6,315.71L482.64,319.75L483.68,327.78L484.73,330.06L485.77,332.78L486.81,335.23L487.85,336.81L488.9,338.76L489.94,342.17L490.98,345.64L492.02,348.51L493.07,350.58L494.11,352.02L495.15,353.09L496.19,354.37L497.24,380.96L498.28,383.02L499.32,384.67L500.36,388L501.41,389.49L502.45,390.23L503.49,395.79L504.53,397.77L505.58,399.99L506.62,403.22L507.66,404.27L508.7,405.55L509.75,405.84L510.79,407.11L511.83,408.05L512.87,409.26L513.92,409.81L514.96,410.61L516,411.74L516,412.45L514.96,411.36L513.92,410.59L512.87,410.08L511.83,408.91L510.79,407.99L509.75,406.73L508.7,406.46L507.66,405.25L506.62,404.26L505.58,401.09L504.53,398.95L503.49,397.02L502.45,391.48L501.41,390.77L500.36,389.38L499.32,386.15L498.28,384.59L497.24,382.66L496.19,356.14L495.15,354.91L494.11,353.89L493.07,352.57L492.02,350.64L490.98,347.89L489.94,344.57L488.9,341.28L487.85,339.35L486.81,337.89L485.77,335.59L484.73,332.99L483.68,330.78L482.64,322.93L481.6,319.04L480.56,316.74L479.52,314.98L478.47,313L477.43,309.75L476.39,306.49L475.35,302.57L474.3,298.55L473.26,296.29L472.22,295.11L471.18,291.23L470.13,287.55L469.09,284.22L468.05,280.11L467.01,276.5L465.96,273.5L464.92,271.67L463.88,268.51L462.84,265.53L461.79,262.64L460.75,257.14L459.71,252.42L458.67,247.21L457.62,244.2L456.58,240.68L455.54,238.29L454.5,236.44L453.45,233.34L452.41,228.53L451.37,224.75L450.33,224.96L449.28,222.34L448.24,221.33L447.2,219.54L446.16,217.04L445.12,214.86L444.07,210.58L443.03,210.63L441.99,208.81L440.95,205.76L439.9,204.38L438.86,201.03L437.82,195.8L436.78,190.08L435.73,189.97L434.69,189.58L433.65,188.36L432.61,186.42L431.56,184.4L430.52,181.96L429.48,177.51L428.44,177.68L427.39,176.26L426.35,172.57L425.31,171.02L424.27,167.02L423.22,159.36L422.18,159.7L421.14,161.88L420.1,161.76L419.05,162.81L418.01,164.18L416.97,163.34L415.93,161.68L414.88,157.71L413.84,158.34L412.8,160.88L411.76,162.77L410.72,163.61L409.67,163.92L408.63,162.47L407.59,157.74L406.55,160.68L405.5,165.13L404.46,169.66L403.42,173.92L402.38,175.16L401.33,177.67L400.29,176.74L399.25,182.25L398.21,187.47L397.16,193.37L396.12,198.43L395.08,202.35L394.04,205.29L392.99,204.72L391.95,208.09L390.91,212.69L389.87,217.69L388.82,222.08L387.78,225.23L386.74,228.4L385.7,229.13L384.65,234.32L383.61,238.01L382.57,242.35L381.53,245.76L380.48,246.56L379.44,246.5L378.4,245.8L377.36,247.93L376.32,249.1L375.27,248.11L374.23,246.03L373.19,243.67L372.15,241.44L371.1,239L370.06,239.72L369.02,239.47L367.98,238.13L366.93,235.69L365.89,233.84L364.85,230.96L363.81,227L362.76,227.07L361.72,226.1L360.68,225.6L359.64,223.49L358.59,222.09L357.55,217.04L356.51,213.67L355.47,208.86L354.42,206.75L353.38,203.47L352.34,201.98L351.3,199.81L350.25,195.14L349.21,191.15L348.17,191.42L347.13,189.92L346.08,182.67L345.04,179.33L344,173.32L342.96,167.53L341.92,164.21L340.87,162L339.83,161.86L338.79,160.31L337.75,158.8L336.7,156.22L335.66,153.12L334.62,150.99L333.58,154.53L332.53,155.81L331.49,155.46L330.45,156.59L329.41,156.48L328.36,155.78L327.32,152.7L326.28,152.19L325.24,153.3L324.19,155.97L323.15,158.99L322.11,156.82L321.07,153.64L320.02,150.11L318.98,150.4L317.94,150.99L316.9,144.28L315.85,141.89L314.81,138.47L313.77,134.68L312.73,129.99L311.68,131.44L310.64,127.75L309.6,124.24L308.56,119.21L307.52,110.45L306.47,104.66L305.43,99.08L304.39,99.87L303.35,97.36L302.3,94.46L301.26,87.59L300.22,73.97L299.18,68.43L298.13,65.07L297.09,65.57L296.05,64.31L295.01,63.45L293.96,63.17L292.92,53.78L291.88,49.65L290.84,45.75L289.79,49.28L288.75,50.22L287.71,46.35L286.67,48.62L285.62,45.31L284.58,46.16L283.54,41.28L282.5,48.42L281.45,55.84L280.41,63.59L279.37,73L278.33,77.55L277.28,85.43L276.24,87.86L275.2,99.8L274.16,112.08L273.12,126.32L272.07,137.18L271.03,148.63L269.99,156.65L268.95,163.53L267.9,176.17L266.86,192.67L265.82,205.95L264.78,220.25L263.73,232.56L262.69,242.9L261.65,251.8L260.61,264.98L259.56,277.56L258.52,290.62L257.48,301.72L256.44,312.08L255.39,320.96L254.35,327.82L253.31,337.18L252.27,345.57L251.22,353.67L250.18,360.42L249.14,366.59L248.1,370.63L247.05,374.31L246.01,378.8L244.97,383.47L243.93,387.37L242.88,390.68L241.84,393.16L240.8,395.27L239.76,396.99L238.72,399.05L237.67,401.34L236.63,403.38L235.59,405.03L234.55,406.19L233.5,406.75L232.46,407.39L231.42,408.3L230.38,409.07L229.33,409.74L228.29,410.42L227.25,410.74L226.21,410.86L225.16,411.15L224.12,411.62L223.08,412.06L222.04,412.54L220.99,412.84L219.95,413.13L218.91,413.27L217.87,413.72L216.82,414.2L215.78,414.56L214.74,415.08L213.7,415.49L212.65,415.88L211.61,416.1L210.57,416.4L209.53,416.86L208.48,417.19L207.44,417.72L206.4,418.18L205.36,418.65L204.32,419.04L203.27,419.48L202.23,419.9L201.19,420.45L200.15,421.01L199.1,421.53L198.06,422.04L197.02,422.34L195.98,422.76L194.93,423.25L193.89,423.83L192.85,424.37L191.81,424.94L190.76,425.47L189.72,425.73L188.68,426.08L187.64,426.53L186.59,426.95L185.55,427.28L184.51,427.6L183.47,427.73L182.42,427.82L181.38,427.88L180.34,428.03L179.3,428.12L178.25,428.21L177.21,428.36L176.17,428.48L175.13,428.57L174.08,428.61L173.04,428.78L172,428.79L170.96,428.9L169.92,428.93L168.87,429.01L167.83,429L166.79,429L165.75,429L164.7,429.02L163.66,429.14L162.62,428.93L161.58,428.94L160.53,428.95L159.49,428.96L158.45,429.02L157.41,429.08L156.36,429.03L155.32,429.08L154.28,429.12L153.24,429.05L152.19,429.03L151.15,429.07L150.11,429.03L149.07,429.02L148.02,429.03L146.98,428.8L145.94,428.68L144.9,428.68L143.85,428.64L142.81,428.58L141.77,428.58L140.73,428.53L139.68,428.22L138.64,427.98L137.6,428.01L136.56,428.02L135.52,427.9L134.47,427.81L133.43,427.75L132.39,427.63L131.35,427.17L130.3,427.09L129.26,427.06L128.22,426.71L127.18,426.44L126.13,426.32L125.09,425.97L124.05,425.53L123.01,425.51L121.96,425.47L120.92,425.39L119.88,424.71L118.84,424.41L117.79,424.19L116.75,423.61L115.71,423.48L114.67,422.94L113.62,422.24L112.58,421.53L111.54,421.08L110.5,420.63L109.45,419.76L108.41,419.56L107.37,419.32L106.33,418.92L105.28,418.29L104.24,417.98L103.2,417.79L102.16,417.13L101.12,416.91L100.07,416.25L99.03,415.2L97.99,414.43L96.95,413.09L95.9,412.18L94.86,411.12L93.82,410.68L92.78,410.14L91.73,409.48L90.69,408.82L89.65,408.11L88.61,407.1L87.56,406.49L86.52,405.63L85.48,404.74L84.44,403.99L83.39,402.12L82.35,401.47L81.31,400.42L80.27,400.16L79.22,399.78L78.18,399.12L77.14,398L76.1,397.5L75.05,396.84L74.01,393.59L72.97,393.12L71.93,393.24L70.88,393.05L69.84,393.06L68.8,393.1L67.76,392.11L66.72,392.12L65.67,392.18L64.63,392.58L63.59,392.85L62.55,392.81L61.5,393.1L60.46,393.21L59.42,393.41L58.38,393.59L57.33,393.68L56.29,393.96L55.25,394.82L54.21,395.63L53.16,396.7L52.12,397.52L51.08,397.91L50.04,398.56L48.99,399.75L47.95,400.88L46.91,401.74L45.87,402.65L44.82,403.44L43.78,404.07L42.74,405.1L41.7,406.66L40.65,408.04L39.61,409.13L38.57,410.32L37.53,411.71L36.48,412.57L35.44,413.16L34.4,414.73L33.36,416.21L32.32,417.75L31.27,419.15L30.23,420.29L29.19,421.4L28.15,422.81L27.1,423.66L26.06,425.16L25.02,427.34L23.98,428.8L22.93,429.3L21.89,429.77L20.85,430.25L19.81,430.97L18.76,431.82L17.72,432.42L16.68,433.09L15.64,433.67L14.59,433.49L13.55,433.88L12.51,434.06L11.47,434.46L10.42,434.41L9.38,434.45L8.34,434.49L7.3,434.52L6.25,434.59L5.21,434.72L4.17,434.79L3.13,434.85L2.08,434.89L1.04,434.92L0,434.95Z" style="fill: rgb(228, 19, 23); fill-opacity: 1; stroke-width: 0;"/></g></g><g class="errorbars"/><g class="lines"/><g class="points"/><g class="text"/></g><g class="trace scatter trace44d2a2" style="stroke-miterlimit: 2;"><g class="fills"><g><path class="js-fill" d="M0,434.89L1.04,434.84L2.08,434.8L3.13,434.7L4.17,434.58L5.21,434.46L6.25,434.19L7.3,434.06L8.34,433.84L9.38,433.61L10.42,433.31L11.47,432.99L12.51,432.4L13.55,431.73L14.59,430.91L15.64,430.63L16.68,429.57L17.72,428.42L18.76,427.33L19.81,425.9L20.85,424.44L21.89,423.17L22.93,421.64L23.98,420.28L25.02,417.98L26.06,415.59L27.1,413.12L28.15,411.09L29.19,409.15L30.23,407.3L31.27,405.51L32.32,403.2L33.36,400.95L34.4,399.07L35.44,397.12L36.48,396.27L37.53,395.19L38.57,393.69L39.61,392.42L40.65,391.22L41.7,389.74L42.74,388.21L43.78,387.22L44.82,386.77L45.87,386.15L46.91,385.33L47.95,384.61L48.99,383.59L50.04,382.57L51.08,381.87L52.12,381.52L53.16,380.95L54.21,380.34L55.25,380.16L56.29,379.74L57.33,379.49L58.38,379.5L59.42,379.77L60.46,379.78L61.5,380.21L62.55,380.38L63.59,380.73L64.63,380.6L65.67,380.74L66.72,381.06L67.76,381.34L68.8,382.93L69.84,383.24L70.88,383.36L71.93,383.63L72.97,383.74L74.01,384.51L75.05,388.07L76.1,389.05L77.14,389.9L78.18,391.5L79.22,392.28L80.27,392.7L81.31,393.33L82.35,394.77L83.39,395.81L84.44,398.05L85.48,399.01L86.52,399.95L87.56,400.87L88.61,401.61L89.65,402.82L90.69,403.74L91.73,404.58L92.78,405.39L93.82,405.98L94.86,406.64L95.9,407.85L96.95,408.87L97.99,410.4L99.03,411.32L100.07,412.6L101.12,413.41L102.16,413.79L103.2,414.54L104.24,414.85L105.28,415.3L106.33,416.04L107.37,416.6L108.41,416.92L109.45,417.19L110.5,418.14L111.54,418.74L112.58,419.29L113.62,420.13L114.67,420.91L115.71,421.53L116.75,421.72L117.79,422.4L118.84,422.73L119.88,423.15L120.92,423.95L121.96,424.12L123.01,424.25L124.05,424.42L125.09,424.96L126.13,425.43L127.18,425.62L128.22,425.96L129.26,426.37L130.3,426.45L131.35,426.54L132.39,427.02L133.43,427.18L134.47,427.28L135.52,427.37L136.56,427.5L137.6,427.49L138.64,427.46L139.68,427.7L140.73,428.03L141.77,428.1L142.81,428.11L143.85,428.18L144.9,428.24L145.94,428.25L146.98,428.38L148.02,428.59L149.07,428.6L150.11,428.61L151.15,428.66L152.19,428.62L153.24,428.64L154.28,428.72L155.32,428.68L156.36,428.64L157.41,428.69L158.45,428.62L159.49,428.56L160.53,428.55L161.58,428.53L162.62,428.53L163.66,428.73L164.7,428.63L165.75,428.61L166.79,428.61L167.83,428.6L168.87,428.6L169.92,428.52L170.96,428.49L172,428.37L173.04,428.36L174.08,428.2L175.13,428.15L176.17,428.05L177.21,427.93L178.25,427.78L179.3,427.69L180.34,427.61L181.38,427.45L182.42,427.38L183.47,427.26L184.51,427.12L185.55,426.79L186.59,426.45L187.64,426.03L188.68,425.55L189.72,425.16L190.76,424.89L191.81,424.36L192.85,423.75L193.89,423.19L194.93,422.61L195.98,422.08L197.02,421.63L198.06,421.28L199.1,420.74L200.15,420.17L201.19,419.57L202.23,419.01L203.27,418.55L204.32,418.08L205.36,417.67L206.4,417.19L207.44,416.69L208.48,416.15L209.53,415.77L210.57,415.25L211.61,414.91L212.65,414.64L213.7,414.22L214.74,413.77L215.78,413.23L216.82,412.87L217.87,412.39L218.91,411.89L219.95,411.68L220.99,411.36L222.04,411.01L223.08,410.53L224.12,410.08L225.16,409.56L226.21,409.2L227.25,409.04L228.29,408.71L229.33,408.01L230.38,407.31L231.42,406.51L232.46,405.55L233.5,404.8L234.55,404.17L235.59,402.91L236.63,401.18L237.67,399.05L238.72,396.63L239.76,394.45L240.8,392.56L241.84,390.29L242.88,387.6L243.93,384.1L244.97,379.98L246.01,375.04L247.05,370.27L248.1,366.29L249.14,361.81L250.18,355.3L251.22,348.19L252.27,339.63L253.31,330.82L254.35,321.05L255.39,313.64L256.44,304.2L257.48,293.25L258.52,281.59L259.56,267.95L260.61,254.83L261.65,241.11L262.69,231.69L263.73,220.6L264.78,207.73L265.82,192.8L266.86,179.08L267.9,161.94L268.95,148.56L269.99,141.02L271.03,132.42L272.07,120.5L273.12,109.38L274.16,94.57L275.2,82L276.24,69.67L277.28,66.96L278.33,58.74L279.37,53.94L280.41,44.45L281.45,36.5L282.5,29.03L283.54,21.75L284.58,26.42L285.62,25.63L286.67,29.06L287.71,26.93L288.75,31.01L289.79,30.28L290.84,26.97L291.88,30.71L292.92,35.08L293.96,44.68L295.01,45.32L296.05,46.49L297.09,48.3L298.13,47.72L299.18,51.04L300.22,56.83L301.26,70.68L302.3,77.86L303.35,81.04L304.39,83.84L305.43,83.24L306.47,88.84L307.52,94.89L308.56,103.91L309.6,109.23L310.64,113.1L311.68,117.01L312.73,115.68L313.77,120.39L314.81,124.3L315.85,127.96L316.9,130.61L317.94,137.66L318.98,137.12L320.02,136.7L321.07,140.05L322.11,143.38L323.15,145.61L324.19,142.79L325.24,140.29L326.28,139.11L327.32,139.55L328.36,142.5L329.41,143.16L330.45,143.39L331.49,142.19L332.53,142.53L333.58,141.27L334.62,137.64L335.66,139.67L336.7,142.71L337.75,145.41L338.79,147.15L339.83,148.85L340.87,149.03L341.92,151.26L342.96,154.5L344,160.41L345.04,166.55L346.08,170.13L347.13,177.57L348.17,179.22L349.21,178.99L350.25,182.92L351.3,187.64L352.34,189.92L353.38,191.64L354.42,195.12L355.47,197.42L356.51,202.23L357.55,205.5L358.59,210.54L359.64,212.1L360.68,214.38L361.72,214.97L362.76,216.04L363.81,216.04L364.85,219.85L365.89,222.74L366.93,224.72L367.98,227.33L369.02,228.78L370.06,229.18L371.1,228.47L372.15,230.87L373.19,233.14L374.23,235.61L375.27,237.85L376.32,238.9L377.36,237.78L378.4,235.59L379.44,236.1L380.48,236.08L381.53,235.32L382.57,231.88L383.61,227.51L384.65,223.76L385.7,218.43L386.74,217.42L387.78,214.01L388.82,210.71L389.87,206.09L390.91,200.94L391.95,196.15L392.99,192.54L394.04,192.71L395.08,189.45L396.12,185.25L397.16,179.98L398.21,173.85L399.25,168.34L400.29,162.59L401.33,163.06L402.38,160.11L403.42,158.62L404.46,154.26L405.5,149.63L406.55,145.06L407.59,141.87L408.63,146.29L409.67,147.52L410.72,147.19L411.76,146.34L412.8,144.42L413.84,141.8L414.88,141.11L415.93,144.82L416.97,146.44L418.01,147.32L419.05,146.08L420.1,145.14L421.14,145.37L422.18,143.23L423.22,142.68L424.27,150.06L425.31,154.1L426.35,155.89L427.39,159.98L428.44,161.66L429.48,161.7L430.52,166.1L431.56,168.77L432.61,171.11L433.65,173.49L434.69,175.17L435.73,175.9L436.78,176.26L437.82,181.96L438.86,187.49L439.9,191.12L440.95,192.88L441.99,196.29L443.03,198.39L444.07,198.51L445.12,202.82L446.16,205.21L447.2,207.97L448.24,210.05L449.28,211.3L450.33,214.24L451.37,214.05L452.41,217.82L453.45,222.78L454.5,226.24L455.54,228.46L456.58,231.15L457.62,234.97L458.67,238.18L459.71,243.4L460.75,248.43L461.79,254.3L462.84,257.58L463.88,260.87L464.92,264.34L465.96,266.37L467.01,269.44L468.05,273.33L469.09,277.72L470.13,281.44L471.18,285.39L472.22,289.51L473.26,290.87L474.3,293.26L475.35,297.51L476.39,301.67L477.43,305.18L478.47,308.72L479.52,310.93L480.56,312.81L481.6,315.18L482.64,319.25L483.68,327.3L484.73,329.6L485.77,332.35L486.81,334.82L487.85,336.41L488.9,338.37L489.94,341.82L490.98,345.3L492.02,348.19L493.07,350.27L494.11,351.72L495.15,352.8L496.19,354.09L497.24,380.7L498.28,382.77L499.32,384.44L500.36,387.79L501.41,389.29L502.45,390.03L503.49,395.59L504.53,397.59L505.58,399.82L506.62,403.05L507.66,404.11L508.7,405.4L509.75,405.69L510.79,406.96L511.83,407.91L512.87,409.14L513.92,409.69L514.96,410.5L516,411.63L516,411.74L514.96,410.61L513.92,409.81L512.87,409.26L511.83,408.05L510.79,407.11L509.75,405.84L508.7,405.55L507.66,404.27L506.62,403.22L505.58,399.99L504.53,397.77L503.49,395.79L502.45,390.23L501.41,389.49L500.36,388L499.32,384.67L498.28,383.02L497.24,380.96L496.19,354.37L495.15,353.09L494.11,352.02L493.07,350.58L492.02,348.51L490.98,345.64L489.94,342.17L488.9,338.76L487.85,336.81L486.81,335.23L485.77,332.78L484.73,330.06L483.68,327.78L482.64,319.75L481.6,315.71L480.56,313.36L479.52,311.49L478.47,309.31L477.43,305.79L476.39,302.33L475.35,298.19L474.3,293.96L473.26,291.59L472.22,290.24L471.18,286.14L470.13,282.23L469.09,278.57L468.05,274.19L467.01,270.34L465.96,267.28L464.92,265.27L463.88,261.82L462.84,258.55L461.79,255.32L460.75,249.49L459.71,244.51L458.67,239.3L457.62,236.1L456.58,232.3L455.54,229.65L454.5,227.46L453.45,224.02L452.41,219.1L451.37,215.35L450.33,215.53L449.28,212.63L448.24,211.41L447.2,209.36L446.16,206.62L445.12,204.28L444.07,199.98L443.03,199.88L441.99,197.82L440.95,194.43L439.9,192.69L438.86,189.1L437.82,183.63L436.78,177.96L435.73,177.62L434.69,176.9L433.65,175.24L432.61,172.9L431.56,170.58L430.52,167.95L429.48,163.54L428.44,163.5L427.39,161.83L426.35,157.77L425.31,155.98L424.27,151.98L423.22,144.6L422.18,145.13L421.14,147.27L420.1,147.04L419.05,147.96L418.01,149.22L416.97,148.35L415.93,146.73L414.88,142.99L413.84,143.67L412.8,146.28L411.76,148.2L410.72,149.03L409.67,149.34L408.63,148.09L407.59,143.64L406.55,146.8L405.5,151.36L404.46,155.97L403.42,160.32L402.38,161.78L401.33,164.68L400.29,164.17L399.25,169.87L398.21,175.34L397.16,181.45L396.12,186.7L395.08,190.87L394.04,194.09L392.99,193.88L391.95,197.47L390.91,202.24L389.87,207.36L388.82,211.95L387.78,215.2L386.74,218.6L385.7,219.57L384.65,224.9L383.61,228.63L382.57,232.99L381.53,236.42L380.48,237.18L379.44,237.19L378.4,236.67L377.36,238.84L376.32,239.96L375.27,238.9L374.23,236.66L373.19,234.2L372.15,231.95L371.1,229.54L370.06,230.23L369.02,229.86L367.98,228.42L366.93,225.81L365.89,223.84L364.85,220.95L363.81,217.12L362.76,217.12L361.72,216.07L360.68,215.48L359.64,213.2L358.59,211.67L357.55,206.65L356.51,203.36L355.47,198.55L354.42,196.29L353.38,192.81L352.34,191.13L351.3,188.86L350.25,184.16L349.21,180.23L348.17,180.45L347.13,178.8L346.08,171.37L345.04,167.81L344,161.68L342.96,155.8L341.92,152.54L340.87,150.32L339.83,150.14L338.79,148.46L337.75,146.73L336.7,144.06L335.66,141.02L334.62,138.98L333.58,142.6L332.53,143.86L331.49,143.52L330.45,144.71L329.41,144.48L328.36,143.82L327.32,140.87L326.28,140.43L325.24,141.6L324.19,144.1L323.15,146.9L322.11,144.69L321.07,141.37L320.02,138.02L318.98,138.44L317.94,138.99L316.9,131.94L315.85,129.3L314.81,125.67L313.77,121.79L312.73,117.09L311.68,118.44L310.64,114.54L309.6,110.69L308.56,105.41L307.52,96.43L306.47,90.42L305.43,84.86L304.39,85.48L303.35,82.71L302.3,79.54L301.26,72.39L300.22,58.55L299.18,52.78L298.13,49.49L297.09,50.1L296.05,48.32L295.01,47.16L293.96,46.53L292.92,36.96L291.88,32.63L290.84,28.89L289.79,32.21L288.75,32.95L287.71,28.9L286.67,31.03L285.62,27.58L284.58,28.37L283.54,23.7L282.5,30.96L281.45,38.42L280.41,46.36L279.37,55.82L278.33,60.59L277.28,68.75L276.24,71.42L275.2,83.7L274.16,96.23L273.12,111L272.07,122.08L271.03,133.94L269.99,142.48L268.95,149.97L267.9,163.29L266.86,180.37L265.82,194.03L264.78,208.91L263.73,221.74L262.69,232.72L261.65,242.11L260.61,255.77L259.56,268.85L258.52,282.44L257.48,294.03L256.44,304.93L255.39,314.3L254.35,321.67L253.31,331.4L252.27,340.17L251.22,348.7L250.18,355.77L249.14,362.26L248.1,366.7L247.05,370.66L246.01,375.4L244.97,380.3L243.93,384.4L242.88,387.88L241.84,390.56L240.8,392.79L239.76,394.67L238.72,396.83L237.67,399.25L236.63,401.37L235.59,403.09L234.55,404.33L233.5,404.96L232.46,405.71L231.42,406.66L230.38,407.46L229.33,408.15L228.29,408.86L227.25,409.18L226.21,409.33L225.16,409.69L224.12,410.21L223.08,410.66L222.04,411.14L220.99,411.48L219.95,411.8L218.91,412L217.87,412.5L216.82,412.98L215.78,413.34L214.74,413.87L213.7,414.32L212.65,414.74L211.61,415.01L210.57,415.35L209.53,415.86L208.48,416.24L207.44,416.77L206.4,417.27L205.36,417.75L204.32,418.16L203.27,418.62L202.23,419.07L201.19,419.63L200.15,420.24L199.1,420.79L198.06,421.34L197.02,421.68L195.98,422.12L194.93,422.65L193.89,423.23L192.85,423.79L191.81,424.39L190.76,424.93L189.72,425.19L188.68,425.58L187.64,426.06L186.59,426.48L185.55,426.82L184.51,427.16L183.47,427.29L182.42,427.41L181.38,427.47L180.34,427.64L179.3,427.72L178.25,427.81L177.21,427.96L176.17,428.07L175.13,428.17L174.08,428.22L173.04,428.38L172,428.39L170.96,428.51L169.92,428.54L168.87,428.62L167.83,428.62L166.79,428.63L165.75,428.63L164.7,428.65L163.66,428.75L162.62,428.55L161.58,428.56L160.53,428.57L159.49,428.58L158.45,428.64L157.41,428.72L156.36,428.66L155.32,428.71L154.28,428.74L153.24,428.66L152.19,428.65L151.15,428.68L150.11,428.64L149.07,428.63L148.02,428.62L146.98,428.41L145.94,428.29L144.9,428.28L143.85,428.21L142.81,428.15L141.77,428.13L140.73,428.07L139.68,427.73L138.64,427.49L137.6,427.53L136.56,427.54L135.52,427.41L134.47,427.32L133.43,427.22L132.39,427.07L131.35,426.59L130.3,426.5L129.26,426.42L128.22,426.01L127.18,425.67L126.13,425.49L125.09,425.02L124.05,424.48L123.01,424.32L121.96,424.2L120.92,424.04L119.88,423.24L118.84,422.82L117.79,422.49L116.75,421.82L115.71,421.64L114.67,421.02L113.62,420.25L112.58,419.41L111.54,418.87L110.5,418.28L109.45,417.34L108.41,417.07L107.37,416.75L106.33,416.2L105.28,415.47L104.24,415.03L103.2,414.75L102.16,414.01L101.12,413.64L100.07,412.83L99.03,411.57L97.99,410.65L96.95,409.13L95.9,408.12L94.86,406.92L93.82,406.26L92.78,405.68L91.73,404.89L90.69,404.07L89.65,403.17L88.61,401.97L87.56,401.26L86.52,400.34L85.48,399.41L84.44,398.46L83.39,396.24L82.35,395.23L81.31,393.82L80.27,393.22L79.22,392.8L78.18,392.03L77.14,390.5L76.1,389.72L75.05,388.75L74.01,385.24L72.97,384.49L71.93,384.4L70.88,384.15L69.84,384.05L68.8,383.8L67.76,382.26L66.72,382.01L65.67,381.75L64.63,381.63L63.59,381.8L62.55,381.49L61.5,381.38L60.46,381L59.42,381.04L58.38,380.82L57.33,380.84L56.29,381.14L55.25,381.6L54.21,381.84L53.16,382.53L52.12,383.16L51.08,383.54L50.04,384.28L48.99,385.32L47.95,386.4L46.91,387.17L45.87,388.05L44.82,388.71L43.78,389.22L42.74,390.25L41.7,391.79L40.65,393.3L39.61,394.49L38.57,395.76L37.53,397.26L36.48,398.31L35.44,399.12L34.4,401.05L33.36,402.86L32.32,405.05L31.27,407.3L30.23,409.04L29.19,410.79L28.15,412.63L27.1,414.58L26.06,416.95L25.02,419.26L23.98,421.44L22.93,422.69L21.89,424.12L20.85,425.29L19.81,426.68L18.76,428.01L17.72,429.01L16.68,430.1L15.64,431.08L14.59,431.28L13.55,432.06L12.51,432.7L11.47,433.23L10.42,433.49L9.38,433.76L8.34,433.96L7.3,434.14L6.25,434.26L5.21,434.52L4.17,434.61L3.13,434.73L2.08,434.82L1.04,434.86L0,434.9Z" style="fill: rgb(158, 0, 3); fill-opacity: 1; stroke-width: 0;"/></g></g><g class="errorbars"/><g class="lines"/><g class="points"/><g class="text"/></g><g class="trace scatter trace41c0f9" style="stroke-miterlimit: 2;"><g class="fills"/><g class="errorbars"/><g class="lines"/><g class="points"/><g class="text"/></g></g></g><g class="overplot"/><path class="xlines-above crisp" style="fill: none;" d="M0,0"/><path class="ylines-above crisp" style="fill: none;" d="M0,0"/><g class="overlines-above"/><g class="xaxislayer-above"><g class="xtick"><text text-anchor="middle" x="0" y="473" transform="translate(98.57,0)" style="font-family: 'Open Sans', verdana, arial, sans-serif; font-size: 12px; fill: rgb(68, 68, 68); fill-opacity: 1; white-space: pre;">Apr 2020</text></g><g class="xtick"><text text-anchor="middle" x="0" y="473" transform="translate(193.43,0)" style="font-family: 'Open Sans', verdana, arial, sans-serif; font-size: 12px; fill: rgb(68, 68, 68); fill-opacity: 1; white-space: pre;">Jul 2020</text></g><g class="xtick"><text text-anchor="middle" x="0" y="473" transform="translate(289.33000000000004,0)" style="font-family: 'Open Sans', verdana, arial, sans-serif; font-size: 12px; fill: rgb(68, 68, 68); fill-opacity: 1; white-space: pre;">Oct 2020</text></g><g class="xtick"><text text-anchor="middle" x="0" y="473" transform="translate(385.24,0)" style="font-family: 'Open Sans', verdana, arial, sans-serif; font-size: 12px; fill: rgb(68, 68, 68); fill-opacity: 1; white-space: pre;">Jan 2021</text></g><g class="xtick"><text text-anchor="middle" x="0" y="473" transform="translate(479.05,0)" style="font-family: 'Open Sans', verdana, arial, sans-serif; font-size: 12px; fill: rgb(68, 68, 68); fill-opacity: 1; white-space: pre;">Apr 2021</text></g><g class="xtick"><text text-anchor="middle" x="0" y="473" transform="translate(573.92,0)" style="font-family: 'Open Sans', verdana, arial, sans-serif; font-size: 12px; fill: rgb(68, 68, 68); fill-opacity: 1; white-space: pre;">Jul 2021</text></g></g><g class="yaxislayer-above"><g class="ytick"><text text-anchor="end" x="59" y="4.199999999999999" transform="translate(0,460)" style="font-family: 'Open Sans', verdana, arial, sans-serif; font-size: 12px; fill: rgb(68, 68, 68); fill-opacity: 1; white-space: pre;">0</text></g><g class="ytick"><text text-anchor="end" x="59" y="4.199999999999999" transform="translate(0,408.72)" style="font-family: 'Open Sans', verdana, arial, sans-serif; font-size: 12px; fill: rgb(68, 68, 68); fill-opacity: 1; white-space: pre;">100k</text></g><g class="ytick"><text text-anchor="end" x="59" y="4.199999999999999" transform="translate(0,357.45)" style="font-family: 'Open Sans', verdana, arial, sans-serif; font-size: 12px; fill: rgb(68, 68, 68); fill-opacity: 1; white-space: pre;">200k</text></g><g class="ytick"><text text-anchor="end" x="59" y="4.199999999999999" transform="translate(0,306.17)" style="font-family: 'Open Sans', verdana, arial, sans-serif; font-size: 12px; fill: rgb(68, 68, 68); fill-opacity: 1; white-space: pre;">300k</text></g><g class="ytick"><text text-anchor="end" x="59" y="4.199999999999999" transform="translate(0,254.9)" style="font-family: 'Open Sans', verdana, arial, sans-serif; font-size: 12px; fill: rgb(68, 68, 68); fill-opacity: 1; white-space: pre;">400k</text></g><g class="ytick"><text text-anchor="end" x="59" y="4.199999999999999" transform="translate(0,203.62)" style="font-family: 'Open Sans', verdana, arial, sans-serif; font-size: 12px; fill: rgb(68, 68, 68); fill-opacity: 1; white-space: pre;">500k</text></g><g class="ytick"><text text-anchor="end" x="59" y="4.199999999999999" transform="translate(0,152.35)" style="font-family: 'Open Sans', verdana, arial, sans-serif; font-size: 12px; fill: rgb(68, 68, 68); fill-opacity: 1; white-space: pre;">600k</text></g><g class="ytick"><text text-anchor="end" x="59" y="4.199999999999999" transform="translate(0,101.07)" style="font-family: 'Open Sans', verdana, arial, sans-serif; font-size: 12px; fill: rgb(68, 68, 68); fill-opacity: 1; white-space: pre;">700k</text></g><g class="ytick"><text text-anchor="end" x="59" y="4.199999999999999" transform="translate(0,49.8)" style="font-family: 'Open Sans', verdana, arial, sans-serif; font-size: 12px; fill: rgb(68, 68, 68); fill-opacity: 1; white-space: pre;">800k</text></g></g><g class="overaxes-above"/></g></g><g class="polarlayer"/><g class="ternarylayer"/><g class="geolayer"/><g class="funnelarealayer"/><g class="pielayer"/><g class="treemaplayer"/><g class="sunburstlayer"/><g class="glimages"/><defs id="topdefs-c089cb"><g class="clips"/><clipPath id="legendc089cb"><rect width="217" height="67" x="0" y="0"/></clipPath></defs><g class="layer-above"><g class="imagelayer"/><g class="shapelayer"/></g><g class="infolayer"><g class="legend" pointer-events="all" transform="translate(472.8, 68.5)"><rect class="bg" shape-rendering="crispEdges" style="stroke: rgb(68, 68, 68); stroke-opacity: 1; fill: rgb(255, 255, 255); fill-opacity: 1; stroke-width: 0px;" width="217" height="67" x="0" y="0"/><g class="scrollbox" transform="translate(0, 0)" clip-path="url('#legendc089cb')"><g class="groups"><g class="traces" style="opacity: 1;" transform="translate(0, 14.5)"><text class="legendtext" text-anchor="start" x="40" y="4.680000000000001" style="font-family: 'Open Sans', verdana, arial, sans-serif; font-size: 12px; fill: rgb(68, 68, 68); fill-opacity: 1; white-space: pre;">Intensive Care</text><g class="layers"><g class="legendfill"><path class="js-fill" d="M5,-3h30v6h-30z" style="stroke-width: 0; fill: rgb(158, 0, 3); fill-opacity: 1;"/></g><g class="legendlines"/><g class="legendsymbols"><g class="legendpoints"/></g></g><rect class="legendtoggle" x="0" y="-9.5" width="211.046875" height="19" style="fill: rgb(0, 0, 0); fill-opacity: 0;"/></g><g class="traces" style="opacity: 1;" transform="translate(0, 33.5)"><text class="legendtext" text-anchor="start" x="40" y="4.680000000000001" style="font-family: 'Open Sans', verdana, arial, sans-serif; font-size: 12px; fill: rgb(68, 68, 68); fill-opacity: 1; white-space: pre;">Hospitalized with Symptoms</text><g class="layers"><g class="legendfill"><path class="js-fill" d="M5,-3h30v6h-30z" style="stroke-width: 0; fill: rgb(228, 19, 23); fill-opacity: 1;"/></g><g class="legendlines"/><g class="legendsymbols"><g class="legendpoints"/></g></g><rect class="legendtoggle" x="0" y="-9.5" width="211.046875" height="19" style="fill: rgb(0, 0, 0); fill-opacity: 0;"/></g><g class="traces" style="opacity: 1;" transform="translate(0, 52.5)"><text class="legendtext" text-anchor="start" x="40" y="4.680000000000001" style="font-family: 'Open Sans', verdana, arial, sans-serif; font-size: 12px; fill: rgb(68, 68, 68); fill-opacity: 1; white-space: pre;">Home Confinement</text><g class="layers"><g class="legendfill"><path class="js-fill" d="M5,-3h30v6h-30z" style="stroke-width: 0; fill: rgb(253, 187, 188); fill-opacity: 1;"/></g><g class="legendlines"/><g class="legendsymbols"><g class="legendpoints"/></g></g><rect class="legendtoggle" x="0" y="-9.5" width="211.046875" height="19" style="fill: rgb(0, 0, 0); fill-opacity: 0;"/></g></g></g><rect class="scrollbar" rx="20" ry="3" width="0" height="0" style="fill: rgb(128, 139, 164); fill-opacity: 1;" x="0" y="0"/></g><g class="g-gtitle"><text class="gtitle" x="350" y="12.5" text-anchor="middle" dy="0em" style="font-family: 'Open Sans', verdana, arial, sans-serif; font-size: 17px; fill: rgb(68, 68, 68); opacity: 1; font-weight: normal; white-space: pre;">Italy - Distribution of Active Covid19 Cases</text></g><g class="g-xtitle" transform="translate(0,-15)"><text class="xtitle" x="318" y="512" text-anchor="middle" style="font-family: 'Open Sans', verdana, arial, sans-serif; font-size: 14px; fill: rgb(68, 68, 68); opacity: 1; font-weight: normal; white-space: pre;">Source: Italy Department of Civil Protection</text></g><g class="g-ytitle"><text class="ytitle" transform="rotate(-90,22,242.5)" x="22" y="242.5" text-anchor="middle" style="font-family: 'Open Sans', verdana, arial, sans-serif; font-size: 14px; fill: rgb(68, 68, 68); opacity: 1; font-weight: normal; white-space: pre;">Number of Cases</text></g></g></svg>