<svg class="main-svg" xmlns="http://www.w3.org/2000/svg" xmlns:xlink="http://www.w3.org/1999/xlink" width="700" height="500" style="" viewBox="0 0 700 500"><rect x="0" y="0" width="700" height="500" style="fill: rgb(255, 255, 255); fill-opacity: 1;"/><defs id="defs-804d0a"><g class="clips"><clipPath id="clip804d0axyplot" class="plotclip"><rect width="516" height="435"/></clipPath><clipPath class="axesclip" id="clip804d0ax"><rect x="60" y="0" width="516" height="500"/></clipPath><clipPath class="axesclip" id="clip804d0ay"><rect x="0" y="25" width="700" height="435"/></clipPath><clipPath class="axesclip" id="clip804d0axy"><rect x="60" y="25" width="516" height="435"/></clipPath></g><g class="gradients"/></defs><g class="bglayer"/><g class="layer-below"><g class="imagelayer"/><g class="shapelayer"/></g><g class="cartesianlayer"><g class="subplot xy"><g class="layer-subplot"><g class="shapelayer"/><g class="imagelayer"/></g><g class="gridlayer"><g class="x"><path class="xgrid crisp" transform="translate(98.41,0)" d="M0,25v435" style="stroke: rgb(238, 238, 238); stroke-opacity: 1; stroke-width: 1px;"/><path class="xgrid crisp" transform="translate(192.89,0)" d="M0,25v435" style="stroke: rgb(238, 238, 238); stroke-opacity: 1; stroke-width: 1px;"/><path class="xgrid crisp" transform="translate(288.40999999999997,0)" d="M0,25v435" style="stroke: rgb(238, 238, 238); stroke-opacity: 1; stroke-width: 1px;"/><path class="xgrid crisp" transform="translate(383.93,0)" d="M0,25v435" style="stroke: rgb(238, 238, 238); stroke-opacity: 1; stroke-width: 1px;"/><path class="xgrid crisp" transform="translate(477.37,0)" d="M0,25v435" style="stroke: rgb(238, 238, 238); stroke-opacity: 1; stroke-width: 1px;"/><path class="xgrid crisp" transform="translate(571.85,0)" d="M0,25v435" style="stroke: rgb(238, 238, 238); stroke-opacity: 1; stroke-width: 1px;"/></g><g class="y"><path class="ygrid crisp" transform="translate(0,408.72)" d="M60,0h516" style="stroke: rgb(238, 238, 238); stroke-opacity: 1; stroke-width: 1px;"/><path class="ygrid crisp" transform="translate(0,357.45)" d="M60,0h516" style="stroke: rgb(238, 238, 238); stroke-opacity: 1; stroke-width: 1px;"/><path class="ygrid crisp" transform="translate(0,306.17)" d="M60,0h516" style="stroke: rgb(238, 238, 238); stroke-opacity: 1; stroke-width: 1px;"/><path class="ygrid crisp" transform="translate(0,254.9)" d="M60,0h516" style="stroke: rgb(238, 238, 238); stroke-opacity: 1; stroke-width: 1px;"/><path class="ygrid crisp" transform="translate(0,203.62)" d="M60,0h516" style="stroke: rgb(238, 238, 238); stroke-opacity: 1; stroke-width: 1px;"/><path class="ygrid crisp" transform="translate(0,152.35)" d="M60,0h516" style="stroke: rgb(238, 238, 238); stroke-opacity: 1; stroke-width: 1px;"/><path class="ygrid crisp" transform="translate(0,101.07)" d="M60,0h516" style="stroke: rgb(238, 238, 238); stroke-opacity: 1; stroke-width: 1px;"/><path class="ygrid crisp" transform="translate(0,49.8)" d="M60,0h516" style="stroke: rgb(238, 238, 238); stroke-opacity: 1; stroke-width: 1px;"/></g></g><g class="zerolinelayer"><path class="yzl zl crisp" transform="translate(0,460)" d="M60,0h516" style="stroke: rgb(68, 68, 68); stroke-opacity: 1; stroke-width: 1px;"/></g><path class="xlines-below"/><path class="ylines-below"/><g class="overlines-below"/><g class="xaxislayer-below"/><g class="yaxislayer-below"/><g class="overaxes-below"/><g class="plot" transform="translate(60, 25)" clip-path="url('#clip804d0axyplot')"><g class="scatterlayer mlayer"><g class="trace scatter trace8429d8" style="stroke-miterlimit: 2;"><g class="fills"><g><path class="js-fill" d="M516,435L0,435L0,434.95L1.04,434.92L2.08,434.89L3.11,434.85L4.15,434.79L5.19,434.72L6.23,434.59L7.27,434.52L8.31,434.49L9.34,434.45L10.38,434.41L11.42,434.46L12.46,434.06L13.5,433.88L14.54,433.49L15.57,433.67L16.61,433.09L17.65,432.42L18.69,431.82L19.73,430.97L20.76,430.25L21.8,429.77L22.84,429.3L23.88,428.8L24.92,427.34L25.96,425.16L26.99,423.66L28.03,422.81L29.07,421.4L30.11,420.29L31.15,419.15L32.19,417.75L33.22,416.21L34.26,414.73L35.3,413.16L36.34,412.57L37.38,411.71L38.41,410.32L39.45,409.13L40.49,408.04L41.53,406.66L42.57,405.1L43.61,404.07L44.64,403.44L45.68,402.65L46.72,401.74L47.76,400.88L48.8,399.75L49.84,398.56L50.87,397.91L51.91,397.52L52.95,396.7L53.99,395.63L55.03,394.82L56.06,393.96L57.1,393.68L58.14,393.59L59.18,393.41L60.22,393.21L61.26,393.1L62.29,392.81L63.33,392.85L64.37,392.58L65.41,392.18L66.45,392.12L67.48,392.11L68.52,393.1L69.56,393.06L70.6,393.05L71.64,393.24L72.68,393.12L73.71,393.59L74.75,396.84L75.79,397.5L76.83,398L77.87,399.12L78.91,399.78L79.94,400.16L80.98,400.42L82.02,401.47L83.06,402.12L84.1,403.99L85.13,404.74L86.17,405.63L87.21,406.49L88.25,407.1L89.29,408.11L90.33,408.82L91.36,409.48L92.4,410.14L93.44,410.68L94.48,411.12L95.52,412.18L96.56,413.09L97.59,414.43L98.63,415.2L99.67,416.25L100.71,416.91L101.75,417.13L102.78,417.79L103.82,417.98L104.86,418.29L105.9,418.92L106.94,419.32L107.98,419.56L109.01,419.76L110.05,420.63L111.09,421.08L112.13,421.53L113.17,422.24L114.21,422.94L115.24,423.48L116.28,423.61L117.32,424.19L118.36,424.41L119.4,424.71L120.43,425.39L121.47,425.47L122.51,425.51L123.55,425.53L124.59,425.97L125.63,426.32L126.66,426.44L127.7,426.71L128.74,427.06L129.78,427.09L130.82,427.17L131.86,427.63L132.89,427.75L133.93,427.81L134.97,427.9L136.01,428.02L137.05,428.01L138.08,427.98L139.12,428.22L140.16,428.53L141.2,428.58L142.24,428.58L143.28,428.64L144.31,428.68L145.35,428.68L146.39,428.8L147.43,429.03L148.47,429.02L149.51,429.03L150.54,429.07L151.58,429.03L152.62,429.05L153.66,429.12L154.7,429.08L155.73,429.03L156.77,429.08L157.81,429.02L158.85,428.96L159.89,428.95L160.93,428.94L161.96,428.93L163,429.14L164.04,429.02L165.08,429L166.12,429L167.15,429L168.19,429.01L169.23,428.93L170.27,428.9L171.31,428.79L172.35,428.78L173.38,428.61L174.42,428.57L175.46,428.48L176.5,428.36L177.54,428.21L178.58,428.12L179.61,428.03L180.65,427.88L181.69,427.82L182.73,427.73L183.77,427.6L184.8,427.28L185.84,426.95L186.88,426.53L187.92,426.08L188.96,425.73L190,425.47L191.03,424.94L192.07,424.37L193.11,423.83L194.15,423.25L195.19,422.76L196.23,422.34L197.26,422.04L198.3,421.53L199.34,421.01L200.38,420.45L201.42,419.9L202.45,419.48L203.49,419.04L204.53,418.65L205.57,418.18L206.61,417.72L207.65,417.19L208.68,416.86L209.72,416.4L210.76,416.1L211.8,415.88L212.84,415.49L213.88,415.08L214.91,414.56L215.95,414.2L216.99,413.72L218.03,413.27L219.07,413.13L220.1,412.84L221.14,412.54L222.18,412.06L223.22,411.62L224.26,411.15L225.3,410.86L226.33,410.74L227.37,410.42L228.41,409.74L229.45,409.07L230.49,408.3L231.53,407.39L232.56,406.75L233.6,406.19L234.64,405.03L235.68,403.38L236.72,401.34L237.75,399.05L238.79,396.99L239.83,395.27L240.87,393.16L241.91,390.68L242.95,387.37L243.98,383.47L245.02,378.8L246.06,374.31L247.1,370.63L248.14,366.59L249.18,360.42L250.21,353.67L251.25,345.57L252.29,337.18L253.33,327.82L254.37,320.96L255.4,312.08L256.44,301.72L257.48,290.62L258.52,277.56L259.56,264.98L260.6,251.8L261.63,242.9L262.67,232.56L263.71,220.25L264.75,205.95L265.79,192.67L266.82,176.17L267.86,163.53L268.9,156.65L269.94,148.63L270.98,137.18L272.02,126.32L273.05,112.08L274.09,99.8L275.13,87.86L276.17,85.43L277.21,77.55L278.25,73L279.28,63.59L280.32,55.84L281.36,48.42L282.4,41.28L283.44,46.16L284.47,45.31L285.51,48.62L286.55,46.35L287.59,50.22L288.63,49.28L289.67,45.75L290.7,49.65L291.74,53.78L292.78,63.17L293.82,63.45L294.86,64.31L295.9,65.57L296.93,65.07L297.97,68.43L299.01,73.97L300.05,87.59L301.09,94.46L302.12,97.36L303.16,99.87L304.2,99.08L305.24,104.66L306.28,110.45L307.32,119.21L308.35,124.24L309.39,127.75L310.43,131.44L311.47,129.99L312.51,134.68L313.55,138.47L314.58,141.89L315.62,144.28L316.66,150.99L317.7,150.4L318.74,150.11L319.77,153.64L320.81,156.82L321.85,158.99L322.89,155.97L323.93,153.3L324.97,152.19L326,152.7L327.04,155.78L328.08,156.48L329.12,156.59L330.16,155.46L331.2,155.81L332.23,154.53L333.27,150.99L334.31,153.12L335.35,156.22L336.39,158.8L337.42,160.31L338.46,161.86L339.5,162L340.54,164.21L341.58,167.53L342.62,173.32L343.65,179.33L344.69,182.67L345.73,189.92L346.77,191.42L347.81,191.15L348.85,195.14L349.88,199.81L350.92,201.98L351.96,203.47L353,206.75L354.04,208.86L355.07,213.67L356.11,217.04L357.15,222.09L358.19,223.49L359.23,225.6L360.27,226.1L361.3,227.07L362.34,227L363.38,230.96L364.42,233.84L365.46,235.69L366.49,238.13L367.53,239.47L368.57,239.72L369.61,239L370.65,241.44L371.69,243.67L372.72,246.03L373.76,248.11L374.8,249.1L375.84,247.93L376.88,245.8L377.92,246.5L378.95,246.56L379.99,245.76L381.03,242.35L382.07,238.01L383.11,234.32L384.14,229.13L385.18,228.4L386.22,225.23L387.26,222.08L388.3,217.69L389.34,212.69L390.37,208.09L391.41,204.72L392.45,205.29L393.49,202.35L394.53,198.43L395.57,193.37L396.6,187.47L397.64,182.25L398.68,176.74L399.72,177.67L400.76,175.16L401.79,173.92L402.83,169.66L403.87,165.13L404.91,160.68L405.95,157.74L406.99,162.47L408.02,163.92L409.06,163.61L410.1,162.77L411.14,160.88L412.18,158.34L413.22,157.71L414.25,161.68L415.29,163.34L416.33,164.18L417.37,162.81L418.41,161.76L419.44,161.88L420.48,159.7L421.52,159.36L422.56,167.02L423.6,171.02L424.64,172.57L425.67,176.26L426.71,177.68L427.75,177.51L428.79,181.96L429.83,184.4L430.87,186.42L431.9,188.36L432.94,189.58L433.98,189.97L435.02,190.08L436.06,195.8L437.09,201.03L438.13,204.38L439.17,205.76L440.21,208.81L441.25,210.63L442.29,210.58L443.32,214.86L444.36,217.04L445.4,219.54L446.44,221.33L447.48,222.34L448.52,224.96L449.55,224.75L450.59,228.53L451.63,233.34L452.67,236.44L453.71,238.29L454.74,240.68L455.78,244.2L456.82,247.21L457.86,252.42L458.9,257.14L459.94,262.64L460.97,265.53L462.01,268.51L463.05,271.67L464.09,273.5L465.13,276.5L466.16,280.11L467.2,284.22L468.24,287.55L469.28,291.23L470.32,295.11L471.36,296.29L472.39,298.55L473.43,302.57L474.47,306.49L475.51,309.75L476.55,313L477.59,314.98L478.62,316.74L479.66,319.04L480.7,322.93L481.74,330.78L482.78,332.99L483.81,335.59L484.85,337.89L485.89,339.35L486.93,341.28L487.97,344.57L489.01,347.89L490.04,350.64L491.08,352.57L492.12,353.89L493.16,354.91L494.2,356.14L495.24,382.66L496.27,384.59L497.31,386.15L498.35,389.38L499.39,390.77L500.43,391.48L501.46,397.02L502.5,398.95L503.54,401.09L504.58,404.26L505.62,405.25L506.66,406.46L507.69,406.73L508.73,407.99L509.77,408.91L510.81,410.08L511.85,410.59L512.89,411.36L513.92,412.45L514.96,412.9L516,413.46" style="fill: rgb(253, 187, 188); fill-opacity: 1; stroke-width: 0;"/></g><g><path class="js-fill" d="M0,434.9L1.04,434.86L2.08,434.82L3.11,434.73L4.15,434.61L5.19,434.52L6.23,434.26L7.27,434.14L8.31,433.96L9.34,433.76L10.38,433.49L11.42,433.23L12.46,432.7L13.5,432.06L14.54,431.28L15.57,431.08L16.61,430.1L17.65,429.01L18.69,428.01L19.73,426.68L20.76,425.29L21.8,424.12L22.84,422.69L23.88,421.44L24.92,419.26L25.96,416.95L26.99,414.58L28.03,412.63L29.07,410.79L30.11,409.04L31.15,407.3L32.19,405.05L33.22,402.86L34.26,401.05L35.3,399.12L36.34,398.31L37.38,397.26L38.41,395.76L39.45,394.49L40.49,393.3L41.53,391.79L42.57,390.25L43.61,389.22L44.64,388.71L45.68,388.05L46.72,387.17L47.76,386.4L48.8,385.32L49.84,384.28L50.87,383.54L51.91,383.16L52.95,382.53L53.99,381.84L55.03,381.6L56.06,381.14L57.1,380.84L58.14,380.82L59.18,381.04L60.22,381L61.26,381.38L62.29,381.49L63.33,381.8L64.37,381.63L65.41,381.75L66.45,382.01L67.48,382.26L68.52,383.8L69.56,384.05L70.6,384.15L71.64,384.4L72.68,384.49L73.71,385.24L74.75,388.75L75.79,389.72L76.83,390.5L77.87,392.03L78.91,392.8L79.94,393.22L80.98,393.82L82.02,395.23L83.06,396.24L84.1,398.46L85.13,399.41L86.17,400.34L87.21,401.26L88.25,401.97L89.29,403.17L90.33,404.07L91.36,404.89L92.4,405.68L93.44,406.26L94.48,406.92L95.52,408.12L96.56,409.13L97.59,410.65L98.63,411.57L99.67,412.83L100.71,413.64L101.75,414.01L102.78,414.75L103.82,415.03L104.86,415.47L105.9,416.2L106.94,416.75L107.98,417.07L109.01,417.34L110.05,418.28L111.09,418.87L112.13,419.41L113.17,420.25L114.21,421.02L115.24,421.64L116.28,421.82L117.32,422.49L118.36,422.82L119.4,423.24L120.43,424.04L121.47,424.2L122.51,424.32L123.55,424.48L124.59,425.02L125.63,425.49L126.66,425.67L127.7,426.01L128.74,426.42L129.78,426.5L130.82,426.59L131.86,427.07L132.89,427.22L133.93,427.32L134.97,427.41L136.01,427.54L137.05,427.53L138.08,427.49L139.12,427.73L140.16,428.07L141.2,428.13L142.24,428.15L143.28,428.21L144.31,428.28L145.35,428.29L146.39,428.41L147.43,428.62L148.47,428.63L149.51,428.64L150.54,428.68L151.58,428.65L152.62,428.66L153.66,428.74L154.7,428.71L155.73,428.66L156.77,428.72L157.81,428.64L158.85,428.58L159.89,428.57L160.93,428.56L161.96,428.55L163,428.75L164.04,428.65L165.08,428.63L166.12,428.63L167.15,428.62L168.19,428.62L169.23,428.54L170.27,428.51L171.31,428.39L172.35,428.38L173.38,428.22L174.42,428.17L175.46,428.07L176.5,427.96L177.54,427.81L178.58,427.72L179.61,427.64L180.65,427.47L181.69,427.41L182.73,427.29L183.77,427.16L184.8,426.82L185.84,426.48L186.88,426.06L187.92,425.58L188.96,425.19L190,424.93L191.03,424.39L192.07,423.79L193.11,423.23L194.15,422.65L195.19,422.12L196.23,421.68L197.26,421.34L198.3,420.79L199.34,420.24L200.38,419.63L201.42,419.07L202.45,418.62L203.49,418.16L204.53,417.75L205.57,417.27L206.61,416.77L207.65,416.24L208.68,415.86L209.72,415.35L210.76,415.01L211.8,414.74L212.84,414.32L213.88,413.87L214.91,413.34L215.95,412.98L216.99,412.5L218.03,412L219.07,411.8L220.1,411.48L221.14,411.14L222.18,410.66L223.22,410.21L224.26,409.69L225.3,409.33L226.33,409.18L227.37,408.86L228.41,408.15L229.45,407.46L230.49,406.66L231.53,405.71L232.56,404.96L233.6,404.33L234.64,403.09L235.68,401.37L236.72,399.25L237.75,396.83L238.79,394.67L239.83,392.79L240.87,390.56L241.91,387.88L242.95,384.4L243.98,380.3L245.02,375.4L246.06,370.66L247.1,366.7L248.14,362.26L249.18,355.77L250.21,348.7L251.25,340.17L252.29,331.4L253.33,321.67L254.37,314.3L255.4,304.93L256.44,294.03L257.48,282.44L258.52,268.85L259.56,255.77L260.6,242.11L261.63,232.72L262.67,221.74L263.71,208.91L264.75,194.03L265.79,180.37L266.82,163.29L267.86,149.97L268.9,142.48L269.94,133.94L270.98,122.08L272.02,111L273.05,96.23L274.09,83.7L275.13,71.42L276.17,68.75L277.21,60.59L278.25,55.82L279.28,46.36L280.32,38.42L281.36,30.96L282.4,23.7L283.44,28.37L284.47,27.58L285.51,31.03L286.55,28.9L287.59,32.95L288.63,32.21L289.67,28.89L290.7,32.63L291.74,36.96L292.78,46.53L293.82,47.16L294.86,48.32L295.9,50.1L296.93,49.49L297.97,52.78L299.01,58.55L300.05,72.39L301.09,79.54L302.12,82.71L303.16,85.48L304.2,84.86L305.24,90.42L306.28,96.43L307.32,105.41L308.35,110.69L309.39,114.54L310.43,118.44L311.47,117.09L312.51,121.79L313.55,125.67L314.58,129.3L315.62,131.94L316.66,138.99L317.7,138.44L318.74,138.02L319.77,141.37L320.81,144.69L321.85,146.9L322.89,144.1L323.93,141.6L324.97,140.43L326,140.87L327.04,143.82L328.08,144.48L329.12,144.71L330.16,143.52L331.2,143.86L332.23,142.6L333.27,138.98L334.31,141.02L335.35,144.06L336.39,146.73L337.42,148.46L338.46,150.14L339.5,150.32L340.54,152.54L341.58,155.8L342.62,161.68L343.65,167.81L344.69,171.37L345.73,178.8L346.77,180.45L347.81,180.23L348.85,184.16L349.88,188.86L350.92,191.13L351.96,192.81L353,196.29L354.04,198.55L355.07,203.36L356.11,206.65L357.15,211.67L358.19,213.2L359.23,215.48L360.27,216.07L361.3,217.12L362.34,217.12L363.38,220.95L364.42,223.84L365.46,225.81L366.49,228.42L367.53,229.86L368.57,230.23L369.61,229.54L370.65,231.95L371.69,234.2L372.72,236.66L373.76,238.9L374.8,239.96L375.84,238.84L376.88,236.67L377.92,237.19L378.95,237.18L379.99,236.42L381.03,232.99L382.07,228.63L383.11,224.9L384.14,219.57L385.18,218.6L386.22,215.2L387.26,211.95L388.3,207.36L389.34,202.24L390.37,197.47L391.41,193.88L392.45,194.09L393.49,190.87L394.53,186.7L395.57,181.45L396.6,175.34L397.64,169.87L398.68,164.17L399.72,164.68L400.76,161.78L401.79,160.32L402.83,155.97L403.87,151.36L404.91,146.8L405.95,143.64L406.99,148.09L408.02,149.34L409.06,149.03L410.1,148.2L411.14,146.28L412.18,143.67L413.22,142.99L414.25,146.73L415.29,148.35L416.33,149.22L417.37,147.96L418.41,147.04L419.44,147.27L420.48,145.13L421.52,144.6L422.56,151.98L423.6,155.98L424.64,157.77L425.67,161.83L426.71,163.5L427.75,163.54L428.79,167.95L429.83,170.58L430.87,172.9L431.9,175.24L432.94,176.9L433.98,177.62L435.02,177.96L436.06,183.63L437.09,189.1L438.13,192.69L439.17,194.43L440.21,197.82L441.25,199.88L442.29,199.98L443.32,204.28L444.36,206.62L445.4,209.36L446.44,211.41L447.48,212.63L448.52,215.53L449.55,215.35L450.59,219.1L451.63,224.02L452.67,227.46L453.71,229.65L454.74,232.3L455.78,236.1L456.82,239.3L457.86,244.51L458.9,249.49L459.94,255.32L460.97,258.55L462.01,261.82L463.05,265.27L464.09,267.28L465.13,270.34L466.16,274.19L467.2,278.57L468.24,282.23L469.28,286.14L470.32,290.24L471.36,291.59L472.39,293.96L473.43,298.19L474.47,302.33L475.51,305.79L476.55,309.31L477.59,311.49L478.62,313.36L479.66,315.71L480.7,319.75L481.74,327.78L482.78,330.06L483.81,332.78L484.85,335.23L485.89,336.81L486.93,338.76L487.97,342.17L489.01,345.64L490.04,348.51L491.08,350.58L492.12,352.02L493.16,353.09L494.2,354.37L495.24,380.96L496.27,383.02L497.31,384.67L498.35,388L499.39,389.49L500.43,390.23L501.46,395.79L502.5,397.77L503.54,399.99L504.58,403.22L505.62,404.27L506.66,405.55L507.69,405.84L508.73,407.11L509.77,408.05L510.81,409.26L511.85,409.81L512.89,410.61L513.92,411.74L514.96,412.2L516,412.78L516,413.46L514.96,412.9L513.92,412.45L512.89,411.36L511.85,410.59L510.81,410.08L509.77,408.91L508.73,407.99L507.69,406.73L506.66,406.46L505.62,405.25L504.58,404.26L503.54,401.09L502.5,398.95L501.46,397.02L500.43,391.48L499.39,390.77L498.35,389.38L497.31,386.15L496.27,384.59L495.24,382.66L494.2,356.14L493.16,354.91L492.12,353.89L491.08,352.57L490.04,350.64L489.01,347.89L487.97,344.57L486.93,341.28L485.89,339.35L484.85,337.89L483.81,335.59L482.78,332.99L481.74,330.78L480.7,322.93L479.66,319.04L478.62,316.74L477.59,314.98L476.55,313L475.51,309.75L474.47,306.49L473.43,302.57L472.39,298.55L471.36,296.29L470.32,295.11L469.28,291.23L468.24,287.55L467.2,284.22L466.16,280.11L465.13,276.5L464.09,273.5L463.05,271.67L462.01,268.51L460.97,265.53L459.94,262.64L458.9,257.14L457.86,252.42L456.82,247.21L455.78,244.2L454.74,240.68L453.71,238.29L452.67,236.44L451.63,233.34L450.59,228.53L449.55,224.75L448.52,224.96L447.48,222.34L446.44,221.33L445.4,219.54L444.36,217.04L443.32,214.86L442.29,210.58L441.25,210.63L440.21,208.81L439.17,205.76L438.13,204.38L437.09,201.03L436.06,195.8L435.02,190.08L433.98,189.97L432.94,189.58L431.9,188.36L430.87,186.42L429.83,184.4L428.79,181.96L427.75,177.51L426.71,177.68L425.67,176.26L424.64,172.57L423.6,171.02L422.56,167.02L421.52,159.36L420.48,159.7L419.44,161.88L418.41,161.76L417.37,162.81L416.33,164.18L415.29,163.34L414.25,161.68L413.22,157.71L412.18,158.34L411.14,160.88L410.1,162.77L409.06,163.61L408.02,163.92L406.99,162.47L405.95,157.74L404.91,160.68L403.87,165.13L402.83,169.66L401.79,173.92L400.76,175.16L399.72,177.67L398.68,176.74L397.64,182.25L396.6,187.47L395.57,193.37L394.53,198.43L393.49,202.35L392.45,205.29L391.41,204.72L390.37,208.09L389.34,212.69L388.3,217.69L387.26,222.08L386.22,225.23L385.18,228.4L384.14,229.13L383.11,234.32L382.07,238.01L381.03,242.35L379.99,245.76L378.95,246.56L377.92,246.5L376.88,245.8L375.84,247.93L374.8,249.1L373.76,248.11L372.72,246.03L371.69,243.67L370.65,241.44L369.61,239L368.57,239.72L367.53,239.47L366.49,238.13L365.46,235.69L364.42,233.84L363.38,230.96L362.34,227L361.3,227.07L360.27,226.1L359.23,225.6L358.19,223.49L357.15,222.09L356.11,217.04L355.07,213.67L354.04,208.86L353,206.75L351.96,203.47L350.92,201.98L349.88,199.81L348.85,195.14L347.81,191.15L346.77,191.42L345.73,189.92L344.69,182.67L343.65,179.33L342.62,173.32L341.58,167.53L340.54,164.21L339.5,162L338.46,161.86L337.42,160.31L336.39,158.8L335.35,156.22L334.31,153.12L333.27,150.99L332.23,154.53L331.2,155.81L330.16,155.46L329.12,156.59L328.08,156.48L327.04,155.78L326,152.7L324.97,152.19L323.93,153.3L322.89,155.97L321.85,158.99L320.81,156.82L319.77,153.64L318.74,150.11L317.7,150.4L316.66,150.99L315.62,144.28L314.58,141.89L313.55,138.47L312.51,134.68L311.47,129.99L310.43,131.44L309.39,127.75L308.35,124.24L307.32,119.21L306.28,110.45L305.24,104.66L304.2,99.08L303.16,99.87L302.12,97.36L301.09,94.46L300.05,87.59L299.01,73.97L297.97,68.43L296.93,65.07L295.9,65.57L294.86,64.31L293.82,63.45L292.78,63.17L291.74,53.78L290.7,49.65L289.67,45.75L288.63,49.28L287.59,50.22L286.55,46.35L285.51,48.62L284.47,45.31L283.44,46.16L282.4,41.28L281.36,48.42L280.32,55.84L279.28,63.59L278.25,73L277.21,77.55L276.17,85.43L275.13,87.86L274.09,99.8L273.05,112.08L272.02,126.32L270.98,137.18L269.94,148.63L268.9,156.65L267.86,163.53L266.82,176.17L265.79,192.67L264.75,205.95L263.71,220.25L262.67,232.56L261.63,242.9L260.6,251.8L259.56,264.98L258.52,277.56L257.48,290.62L256.44,301.72L255.4,312.08L254.37,320.96L253.33,327.82L252.29,337.18L251.25,345.57L250.21,353.67L249.18,360.42L248.14,366.59L247.1,370.63L246.06,374.31L245.02,378.8L243.98,383.47L242.95,387.37L241.91,390.68L240.87,393.16L239.83,395.27L238.79,396.99L237.75,399.05L236.72,401.34L235.68,403.38L234.64,405.03L233.6,406.19L232.56,406.75L231.53,407.39L230.49,408.3L229.45,409.07L228.41,409.74L227.37,410.42L226.33,410.74L225.3,410.86L224.26,411.15L223.22,411.62L222.18,412.06L221.14,412.54L220.1,412.84L219.07,413.13L218.03,413.27L216.99,413.72L215.95,414.2L214.91,414.56L213.88,415.08L212.84,415.49L211.8,415.88L210.76,416.1L209.72,416.4L208.68,416.86L207.65,417.19L206.61,417.72L205.57,418.18L204.53,418.65L203.49,419.04L202.45,419.48L201.42,419.9L200.38,420.45L199.34,421.01L198.3,421.53L197.26,422.04L196.23,422.34L195.19,422.76L194.15,423.25L193.11,423.83L192.07,424.37L191.03,424.94L190,425.47L188.96,425.73L187.92,426.08L186.88,426.53L185.84,426.95L184.8,427.28L183.77,427.6L182.73,427.73L181.69,427.82L180.65,427.88L179.61,428.03L178.58,428.12L177.54,428.21L176.5,428.36L175.46,428.48L174.42,428.57L173.38,428.61L172.35,428.78L171.31,428.79L170.27,428.9L169.23,428.93L168.19,429.01L167.15,429L166.12,429L165.08,429L164.04,429.02L163,429.14L161.96,428.93L160.93,428.94L159.89,428.95L158.85,428.96L157.81,429.02L156.77,429.08L155.73,429.03L154.7,429.08L153.66,429.12L152.62,429.05L151.58,429.03L150.54,429.07L149.51,429.03L148.47,429.02L147.43,429.03L146.39,428.8L145.35,428.68L144.31,428.68L143.28,428.64L142.24,428.58L141.2,428.58L140.16,428.53L139.12,428.22L138.08,427.98L137.05,428.01L136.01,428.02L134.97,427.9L133.93,427.81L132.89,427.75L131.86,427.63L130.82,427.17L129.78,427.09L128.74,427.06L127.7,426.71L126.66,426.44L125.63,426.32L124.59,425.97L123.55,425.53L122.51,425.51L121.47,425.47L120.43,425.39L119.4,424.71L118.36,424.41L117.32,424.19L116.28,423.61L115.24,423.48L114.21,422.94L113.17,422.24L112.13,421.53L111.09,421.08L110.05,420.63L109.01,419.76L107.98,419.56L106.94,419.32L105.9,418.92L104.86,418.29L103.82,417.98L102.78,417.79L101.75,417.13L100.71,416.91L99.67,416.25L98.63,415.2L97.59,414.43L96.56,413.09L95.52,412.18L94.48,411.12L93.44,410.68L92.4,410.14L91.36,409.48L90.33,408.82L89.29,408.11L88.25,407.1L87.21,406.49L86.17,405.63L85.13,404.74L84.1,403.99L83.06,402.12L82.02,401.47L80.98,400.42L79.94,400.16L78.91,399.78L77.87,399.12L76.83,398L75.79,397.5L74.75,396.84L73.71,393.59L72.68,393.12L71.64,393.24L70.6,393.05L69.56,393.06L68.52,393.1L67.48,392.11L66.45,392.12L65.41,392.18L64.37,392.58L63.33,392.85L62.29,392.81L61.26,393.1L60.22,393.21L59.18,393.41L58.14,393.59L57.1,393.68L56.06,393.96L55.03,394.82L53.99,395.63L52.95,396.7L51.91,397.52L50.87,397.91L49.84,398.56L48.8,399.75L47.76,400.88L46.72,401.74L45.68,402.65L44.64,403.44L43.61,404.07L42.57,405.1L41.53,406.66L40.49,408.04L39.45,409.13L38.41,410.32L37.38,411.71L36.34,412.57L35.3,413.16L34.26,414.73L33.22,416.21L32.19,417.75L31.15,419.15L30.11,420.29L29.07,421.4L28.03,422.81L26.99,423.66L25.96,425.16L24.92,427.34L23.88,428.8L22.84,429.3L21.8,429.77L20.76,430.25L19.73,430.97L18.69,431.82L17.65,432.42L16.61,433.09L15.57,433.67L14.54,433.49L13.5,433.88L12.46,434.06L11.42,434.46L10.38,434.41L9.34,434.45L8.31,434.49L7.27,434.52L6.23,434.59L5.19,434.72L4.15,434.79L3.11,434.85L2.08,434.89L1.04,434.92L0,434.95Z" style="fill: rgb(228, 19, 23); fill-opacity: 1; stroke-width: 0;"/></g></g><g class="errorbars"/><g class="lines"/><g class="points"/><g class="text"/></g><g class="trace scatter traceff6bbb" style="stroke-miterlimit: 2;"><g class="fills"><g><path class="js-fill" d="M0,434.89L1.04,434.84L2.08,434.8L3.11,434.7L4.15,434.58L5.19,434.46L6.23,434.19L7.27,434.06L8.31,433.84L9.34,433.61L10.38,433.31L11.42,432.99L12.46,432.4L13.5,431.73L14.54,430.91L15.57,430.63L16.61,429.57L17.65,428.42L18.69,427.33L19.73,425.9L20.76,424.44L21.8,423.17L22.84,421.64L23.88,420.28L24.92,417.98L25.96,415.59L26.99,413.12L28.03,411.09L29.07,409.15L30.11,407.3L31.15,405.51L32.19,403.2L33.22,400.95L34.26,399.07L35.3,397.12L36.34,396.27L37.38,395.19L38.41,393.69L39.45,392.42L40.49,391.22L41.53,389.74L42.57,388.21L43.61,387.22L44.64,386.77L45.68,386.15L46.72,385.33L47.76,384.61L48.8,383.59L49.84,382.57L50.87,381.87L51.91,381.52L52.95,380.95L53.99,380.34L55.03,380.16L56.06,379.74L57.1,379.49L58.14,379.5L59.18,379.77L60.22,379.78L61.26,380.21L62.29,380.38L63.33,380.73L64.37,380.6L65.41,380.74L66.45,381.06L67.48,381.34L68.52,382.93L69.56,383.24L70.6,383.36L71.64,383.63L72.68,383.74L73.71,384.51L74.75,388.07L75.79,389.05L76.83,389.9L77.87,391.5L78.91,392.28L79.94,392.7L80.98,393.33L82.02,394.77L83.06,395.81L84.1,398.05L85.13,399.01L86.17,399.95L87.21,400.87L88.25,401.61L89.29,402.82L90.33,403.74L91.36,404.58L92.4,405.39L93.44,405.98L94.48,406.64L95.52,407.85L96.56,408.87L97.59,410.4L98.63,411.32L99.67,412.6L100.71,413.41L101.75,413.79L102.78,414.54L103.82,414.85L104.86,415.3L105.9,416.04L106.94,416.6L107.98,416.92L109.01,417.19L110.05,418.14L111.09,418.74L112.13,419.29L113.17,420.13L114.21,420.91L115.24,421.53L116.28,421.72L117.32,422.4L118.36,422.73L119.4,423.15L120.43,423.95L121.47,424.12L122.51,424.25L123.55,424.42L124.59,424.96L125.63,425.43L126.66,425.62L127.7,425.96L128.74,426.37L129.78,426.45L130.82,426.54L131.86,427.02L132.89,427.18L133.93,427.28L134.97,427.37L136.01,427.5L137.05,427.49L138.08,427.46L139.12,427.7L140.16,428.03L141.2,428.1L142.24,428.11L143.28,428.18L144.31,428.24L145.35,428.25L146.39,428.38L147.43,428.59L148.47,428.6L149.51,428.61L150.54,428.66L151.58,428.62L152.62,428.64L153.66,428.72L154.7,428.68L155.73,428.64L156.77,428.69L157.81,428.62L158.85,428.56L159.89,428.55L160.93,428.53L161.96,428.53L163,428.73L164.04,428.63L165.08,428.61L166.12,428.61L167.15,428.6L168.19,428.6L169.23,428.52L170.27,428.49L171.31,428.37L172.35,428.36L173.38,428.2L174.42,428.15L175.46,428.05L176.5,427.93L177.54,427.78L178.58,427.69L179.61,427.61L180.65,427.45L181.69,427.38L182.73,427.26L183.77,427.12L184.8,426.79L185.84,426.45L186.88,426.03L187.92,425.55L188.96,425.16L190,424.89L191.03,424.36L192.07,423.75L193.11,423.19L194.15,422.61L195.19,422.08L196.23,421.63L197.26,421.28L198.3,420.74L199.34,420.17L200.38,419.57L201.42,419.01L202.45,418.55L203.49,418.08L204.53,417.67L205.57,417.19L206.61,416.69L207.65,416.15L208.68,415.77L209.72,415.25L210.76,414.91L211.8,414.64L212.84,414.22L213.88,413.77L214.91,413.23L215.95,412.87L216.99,412.39L218.03,411.89L219.07,411.68L220.1,411.36L221.14,411.01L222.18,410.53L223.22,410.08L224.26,409.56L225.3,409.2L226.33,409.04L227.37,408.71L228.41,408.01L229.45,407.31L230.49,406.51L231.53,405.55L232.56,404.8L233.6,404.17L234.64,402.91L235.68,401.18L236.72,399.05L237.75,396.63L238.79,394.45L239.83,392.56L240.87,390.29L241.91,387.6L242.95,384.1L243.98,379.98L245.02,375.04L246.06,370.27L247.1,366.29L248.14,361.81L249.18,355.3L250.21,348.19L251.25,339.63L252.29,330.82L253.33,321.05L254.37,313.64L255.4,304.2L256.44,293.25L257.48,281.59L258.52,267.95L259.56,254.83L260.6,241.11L261.63,231.69L262.67,220.6L263.71,207.73L264.75,192.8L265.79,179.08L266.82,161.94L267.86,148.56L268.9,141.02L269.94,132.42L270.98,120.5L272.02,109.38L273.05,94.57L274.09,82L275.13,69.67L276.17,66.96L277.21,58.74L278.25,53.94L279.28,44.45L280.32,36.5L281.36,29.03L282.4,21.75L283.44,26.42L284.47,25.63L285.51,29.06L286.55,26.93L287.59,31.01L288.63,30.28L289.67,26.97L290.7,30.71L291.74,35.08L292.78,44.68L293.82,45.32L294.86,46.49L295.9,48.3L296.93,47.72L297.97,51.04L299.01,56.83L300.05,70.68L301.09,77.86L302.12,81.04L303.16,83.84L304.2,83.24L305.24,88.84L306.28,94.89L307.32,103.91L308.35,109.23L309.39,113.1L310.43,117.01L311.47,115.68L312.51,120.39L313.55,124.3L314.58,127.96L315.62,130.61L316.66,137.66L317.7,137.12L318.74,136.7L319.77,140.05L320.81,143.38L321.85,145.61L322.89,142.79L323.93,140.29L324.97,139.11L326,139.55L327.04,142.5L328.08,143.16L329.12,143.39L330.16,142.19L331.2,142.53L332.23,141.27L333.27,137.64L334.31,139.67L335.35,142.71L336.39,145.41L337.42,147.15L338.46,148.85L339.5,149.03L340.54,151.26L341.58,154.5L342.62,160.41L343.65,166.55L344.69,170.13L345.73,177.57L346.77,179.22L347.81,178.99L348.85,182.92L349.88,187.64L350.92,189.92L351.96,191.64L353,195.12L354.04,197.42L355.07,202.23L356.11,205.5L357.15,210.54L358.19,212.1L359.23,214.38L360.27,214.97L361.3,216.04L362.34,216.04L363.38,219.85L364.42,222.74L365.46,224.72L366.49,227.33L367.53,228.78L368.57,229.18L369.61,228.47L370.65,230.87L371.69,233.14L372.72,235.61L373.76,237.85L374.8,238.9L375.84,237.78L376.88,235.59L377.92,236.1L378.95,236.08L379.99,235.32L381.03,231.88L382.07,227.51L383.11,223.76L384.14,218.43L385.18,217.42L386.22,214.01L387.26,210.71L388.3,206.09L389.34,200.94L390.37,196.15L391.41,192.54L392.45,192.71L393.49,189.45L394.53,185.25L395.57,179.98L396.6,173.85L397.64,168.34L398.68,162.59L399.72,163.06L400.76,160.11L401.79,158.62L402.83,154.26L403.87,149.63L404.91,145.06L405.95,141.87L406.99,146.29L408.02,147.52L409.06,147.19L410.1,146.34L411.14,144.42L412.18,141.8L413.22,141.11L414.25,144.82L415.29,146.44L416.33,147.32L417.37,146.08L418.41,145.14L419.44,145.37L420.48,143.23L421.52,142.68L422.56,150.06L423.6,154.1L424.64,155.89L425.67,159.98L426.71,161.66L427.75,161.7L428.79,166.1L429.83,168.77L430.87,171.11L431.9,173.49L432.94,175.17L433.98,175.9L435.02,176.26L436.06,181.96L437.09,187.49L438.13,191.12L439.17,192.88L440.21,196.29L441.25,198.39L442.29,198.51L443.32,202.82L444.36,205.21L445.4,207.97L446.44,210.05L447.48,211.3L448.52,214.24L449.55,214.05L450.59,217.82L451.63,222.78L452.67,226.24L453.71,228.46L454.74,231.15L455.78,234.97L456.82,238.18L457.86,243.4L458.9,248.43L459.94,254.3L460.97,257.58L462.01,260.87L463.05,264.34L464.09,266.37L465.13,269.44L466.16,273.33L467.2,277.72L468.24,281.44L469.28,285.39L470.32,289.51L471.36,290.87L472.39,293.26L473.43,297.51L474.47,301.67L475.51,305.18L476.55,308.72L477.59,310.93L478.62,312.81L479.66,315.18L480.7,319.25L481.74,327.3L482.78,329.6L483.81,332.35L484.85,334.82L485.89,336.41L486.93,338.37L487.97,341.82L489.01,345.3L490.04,348.19L491.08,350.27L492.12,351.72L493.16,352.8L494.2,354.09L495.24,380.7L496.27,382.77L497.31,384.44L498.35,387.79L499.39,389.29L500.43,390.03L501.46,395.59L502.5,397.59L503.54,399.82L504.58,403.05L505.62,404.11L506.66,405.4L507.69,405.69L508.73,406.96L509.77,407.91L510.81,409.14L511.85,409.69L512.89,410.5L513.92,411.63L514.96,412.1L516,412.68L516,412.78L514.96,412.2L513.92,411.74L512.89,410.61L511.85,409.81L510.81,409.26L509.77,408.05L508.73,407.11L507.69,405.84L506.66,405.55L505.62,404.27L504.58,403.22L503.54,399.99L502.5,397.77L501.46,395.79L500.43,390.23L499.39,389.49L498.35,388L497.31,384.67L496.27,383.02L495.24,380.96L494.2,354.37L493.16,353.09L492.12,352.02L491.08,350.58L490.04,348.51L489.01,345.64L487.97,342.17L486.93,338.76L485.89,336.81L484.85,335.23L483.81,332.78L482.78,330.06L481.74,327.78L480.7,319.75L479.66,315.71L478.62,313.36L477.59,311.49L476.55,309.31L475.51,305.79L474.47,302.33L473.43,298.19L472.39,293.96L471.36,291.59L470.32,290.24L469.28,286.14L468.24,282.23L467.2,278.57L466.16,274.19L465.13,270.34L464.09,267.28L463.05,265.27L462.01,261.82L460.97,258.55L459.94,255.32L458.9,249.49L457.86,244.51L456.82,239.3L455.78,236.1L454.74,232.3L453.71,229.65L452.67,227.46L451.63,224.02L450.59,219.1L449.55,215.35L448.52,215.53L447.48,212.63L446.44,211.41L445.4,209.36L444.36,206.62L443.32,204.28L442.29,199.98L441.25,199.88L440.21,197.82L439.17,194.43L438.13,192.69L437.09,189.1L436.06,183.63L435.02,177.96L433.98,177.62L432.94,176.9L431.9,175.24L430.87,172.9L429.83,170.58L428.79,167.95L427.75,163.54L426.71,163.5L425.67,161.83L424.64,157.77L423.6,155.98L422.56,151.98L421.52,144.6L420.48,145.13L419.44,147.27L418.41,147.04L417.37,147.96L416.33,149.22L415.29,148.35L414.25,146.73L413.22,142.99L412.18,143.67L411.14,146.28L410.1,148.2L409.06,149.03L408.02,149.34L406.99,148.09L405.95,143.64L404.91,146.8L403.87,151.36L402.83,155.97L401.79,160.32L400.76,161.78L399.72,164.68L398.68,164.17L397.64,169.87L396.6,175.34L395.57,181.45L394.53,186.7L393.49,190.87L392.45,194.09L391.41,193.88L390.37,197.47L389.34,202.24L388.3,207.36L387.26,211.95L386.22,215.2L385.18,218.6L384.14,219.57L383.11,224.9L382.07,228.63L381.03,232.99L379.99,236.42L378.95,237.18L377.92,237.19L376.88,236.67L375.84,238.84L374.8,239.96L373.76,238.9L372.72,236.66L371.69,234.2L370.65,231.95L369.61,229.54L368.57,230.23L367.53,229.86L366.49,228.42L365.46,225.81L364.42,223.84L363.38,220.95L362.34,217.12L361.3,217.12L360.27,216.07L359.23,215.48L358.19,213.2L357.15,211.67L356.11,206.65L355.07,203.36L354.04,198.55L353,196.29L351.96,192.81L350.92,191.13L349.88,188.86L348.85,184.16L347.81,180.23L346.77,180.45L345.73,178.8L344.69,171.37L343.65,167.81L342.62,161.68L341.58,155.8L340.54,152.54L339.5,150.32L338.46,150.14L337.42,148.46L336.39,146.73L335.35,144.06L334.31,141.02L333.27,138.98L332.23,142.6L331.2,143.86L330.16,143.52L329.12,144.71L328.08,144.48L327.04,143.82L326,140.87L324.97,140.43L323.93,141.6L322.89,144.1L321.85,146.9L320.81,144.69L319.77,141.37L318.74,138.02L317.7,138.44L316.66,138.99L315.62,131.94L314.58,129.3L313.55,125.67L312.51,121.79L311.47,117.09L310.43,118.44L309.39,114.54L308.35,110.69L307.32,105.41L306.28,96.43L305.24,90.42L304.2,84.86L303.16,85.48L302.12,82.71L301.09,79.54L300.05,72.39L299.01,58.55L297.97,52.78L296.93,49.49L295.9,50.1L294.86,48.32L293.82,47.16L292.78,46.53L291.74,36.96L290.7,32.63L289.67,28.89L288.63,32.21L287.59,32.95L286.55,28.9L285.51,31.03L284.47,27.58L283.44,28.37L282.4,23.7L281.36,30.96L280.32,38.42L279.28,46.36L278.25,55.82L277.21,60.59L276.17,68.75L275.13,71.42L274.09,83.7L273.05,96.23L272.02,111L270.98,122.08L269.94,133.94L268.9,142.48L267.86,149.97L266.82,163.29L265.79,180.37L264.75,194.03L263.71,208.91L262.67,221.74L261.63,232.72L260.6,242.11L259.56,255.77L258.52,268.85L257.48,282.44L256.44,294.03L255.4,304.93L254.37,314.3L253.33,321.67L252.29,331.4L251.25,340.17L250.21,348.7L249.18,355.77L248.14,362.26L247.1,366.7L246.06,370.66L245.02,375.4L243.98,380.3L242.95,384.4L241.91,387.88L240.87,390.56L239.83,392.79L238.79,394.67L237.75,396.83L236.72,399.25L235.68,401.37L234.64,403.09L233.6,404.33L232.56,404.96L231.53,405.71L230.49,406.66L229.45,407.46L228.41,408.15L227.37,408.86L226.33,409.18L225.3,409.33L224.26,409.69L223.22,410.21L222.18,410.66L221.14,411.14L220.1,411.48L219.07,411.8L218.03,412L216.99,412.5L215.95,412.98L214.91,413.34L213.88,413.87L212.84,414.32L211.8,414.74L210.76,415.01L209.72,415.35L208.68,415.86L207.65,416.24L206.61,416.77L205.57,417.27L204.53,417.75L203.49,418.16L202.45,418.62L201.42,419.07L200.38,419.63L199.34,420.24L198.3,420.79L197.26,421.34L196.23,421.68L195.19,422.12L194.15,422.65L193.11,423.23L192.07,423.79L191.03,424.39L190,424.93L188.96,425.19L187.92,425.58L186.88,426.06L185.84,426.48L184.8,426.82L183.77,427.16L182.73,427.29L181.69,427.41L180.65,427.47L179.61,427.64L178.58,427.72L177.54,427.81L176.5,427.96L175.46,428.07L174.42,428.17L173.38,428.22L172.35,428.38L171.31,428.39L170.27,428.51L169.23,428.54L168.19,428.62L167.15,428.62L166.12,428.63L165.08,428.63L164.04,428.65L163,428.75L161.96,428.55L160.93,428.56L159.89,428.57L158.85,428.58L157.81,428.64L156.77,428.72L155.73,428.66L154.7,428.71L153.66,428.74L152.62,428.66L151.58,428.65L150.54,428.68L149.51,428.64L148.47,428.63L147.43,428.62L146.39,428.41L145.35,428.29L144.31,428.28L143.28,428.21L142.24,428.15L141.2,428.13L140.16,428.07L139.12,427.73L138.08,427.49L137.05,427.53L136.01,427.54L134.97,427.41L133.93,427.32L132.89,427.22L131.86,427.07L130.82,426.59L129.78,426.5L128.74,426.42L127.7,426.01L126.66,425.67L125.63,425.49L124.59,425.02L123.55,424.48L122.51,424.32L121.47,424.2L120.43,424.04L119.4,423.24L118.36,422.82L117.32,422.49L116.28,421.82L115.24,421.64L114.21,421.02L113.17,420.25L112.13,419.41L111.09,418.87L110.05,418.28L109.01,417.34L107.98,417.07L106.94,416.75L105.9,416.2L104.86,415.47L103.82,415.03L102.78,414.75L101.75,414.01L100.71,413.64L99.67,412.83L98.63,411.57L97.59,410.65L96.56,409.13L95.52,408.12L94.48,406.92L93.44,406.26L92.4,405.68L91.36,404.89L90.33,404.07L89.29,403.17L88.25,401.97L87.21,401.26L86.17,400.34L85.13,399.41L84.1,398.46L83.06,396.24L82.02,395.23L80.98,393.82L79.94,393.22L78.91,392.8L77.87,392.03L76.83,390.5L75.79,389.72L74.75,388.75L73.71,385.24L72.68,384.49L71.64,384.4L70.6,384.15L69.56,384.05L68.52,383.8L67.48,382.26L66.45,382.01L65.41,381.75L64.37,381.63L63.33,381.8L62.29,381.49L61.26,381.38L60.22,381L59.18,381.04L58.14,380.82L57.1,380.84L56.06,381.14L55.03,381.6L53.99,381.84L52.95,382.53L51.91,383.16L50.87,383.54L49.84,384.28L48.8,385.32L47.76,386.4L46.72,387.17L45.68,388.05L44.64,388.71L43.61,389.22L42.57,390.25L41.53,391.79L40.49,393.3L39.45,394.49L38.41,395.76L37.38,397.26L36.34,398.31L35.3,399.12L34.26,401.05L33.22,402.86L32.19,405.05L31.15,407.3L30.11,409.04L29.07,410.79L28.03,412.63L26.99,414.58L25.96,416.95L24.92,419.26L23.88,421.44L22.84,422.69L21.8,424.12L20.76,425.29L19.73,426.68L18.69,428.01L17.65,429.01L16.61,430.1L15.57,431.08L14.54,431.28L13.5,432.06L12.46,432.7L11.42,433.23L10.38,433.49L9.34,433.76L8.31,433.96L7.27,434.14L6.23,434.26L5.19,434.52L4.15,434.61L3.11,434.73L2.08,434.82L1.04,434.86L0,434.9Z" style="fill: rgb(158, 0, 3); fill-opacity: 1; stroke-width: 0;"/></g></g><g class="errorbars"/><g class="lines"/><g class="points"/><g class="text"/></g><g class="trace scatter trace5d8c6e" style="stroke-miterlimit: 2;"><g class="fills"/><g class="errorbars"/><g class="lines"/><g class="points"/><g class="text"/></g></g></g><g class="overplot"/><path class="xlines-above crisp" style="fill: none;" d="M0,0"/><path class="ylines-above crisp" style="fill: none;" d="M0,0"/><g class="overlines-above"/><g class="xaxislayer-above"><g class="xtick"><text text-anchor="middle" x="0" y="473" transform="translate(98.41,0)" style="font-family: 'Open Sans', verdana, arial, sans-serif; font-size: 12px; fill: rgb(68, 68, 68); fill-opacity: 1; white-space: pre;">Apr 2020</text></g><g class="xtick"><text text-anchor="middle" x="0" y="473" transform="translate(192.89,0)" style="font-family: 'Open Sans', verdana, arial, sans-serif; font-size: 12px; fill: rgb(68, 68, 68); fill-opacity: 1; white-space: pre;">Jul 2020</text></g><g class="xtick"><text text-anchor="middle" x="0" y="473" transform="translate(288.40999999999997,0)" style="font-family: 'Open Sans', verdana, arial, sans-serif; font-size: 12px; fill: rgb(68, 68, 68); fill-opacity: 1; white-space: pre;">Oct 2020</text></g><g class="xtick"><text text-anchor="middle" x="0" y="473" transform="translate(383.93,0)" style="font-family: 'Open Sans', verdana, arial, sans-serif; font-size: 12px; fill: rgb(68, 68, 68); fill-opacity: 1; white-space: pre;">Jan 2021</text></g><g class="xtick"><text text-anchor="middle" x="0" y="473" transform="translate(477.37,0)" style="font-family: 'Open Sans', verdana, arial, sans-serif; font-size: 12px; fill: rgb(68, 68, 68); fill-opacity: 1; white-space: pre;">Apr 2021</text></g><g class="xtick"><text text-anchor="middle" x="0" y="473" transform="translate(571.85,0)" style="font-family: 'Open Sans', verdana, arial, sans-serif; font-size: 12px; fill: rgb(68, 68, 68); fill-opacity: 1; white-space: pre;">Jul 2021</text></g></g><g class="yaxislayer-above"><g class="ytick"><text text-anchor="end" x="59" y="4.199999999999999" transform="translate(0,460)" style="font-family: 'Open Sans', verdana, arial, sans-serif; font-size: 12px; fill: rgb(68, 68, 68); fill-opacity: 1; white-space: pre;">0</text></g><g class="ytick"><text text-anchor="end" x="59" y="4.199999999999999" transform="translate(0,408.72)" style="font-family: 'Open Sans', verdana, arial, sans-serif; font-size: 12px; fill: rgb(68, 68, 68); fill-opacity: 1; white-space: pre;">100k</text></g><g class="ytick"><text text-anchor="end" x="59" y="4.199999999999999" transform="translate(0,357.45)" style="font-family: 'Open Sans', verdana, arial, sans-serif; font-size: 12px; fill: rgb(68, 68, 68); fill-opacity: 1; white-space: pre;">200k</text></g><g class="ytick"><text text-anchor="end" x="59" y="4.199999999999999" transform="translate(0,306.17)" style="font-family: 'Open Sans', verdana, arial, sans-serif; font-size: 12px; fill: rgb(68, 68, 68); fill-opacity: 1; white-space: pre;">300k</text></g><g class="ytick"><text text-anchor="end" x="59" y="4.199999999999999" transform="translate(0,254.9)" style="font-family: 'Open Sans', verdana, arial, sans-serif; font-size: 12px; fill: rgb(68, 68, 68); fill-opacity: 1; white-space: pre;">400k</text></g><g class="ytick"><text text-anchor="end" x="59" y="4.199999999999999" transform="translate(0,203.62)" style="font-family: 'Open Sans', verdana, arial, sans-serif; font-size: 12px; fill: rgb(68, 68, 68); fill-opacity: 1; white-space: pre;">500k</text></g><g class="ytick"><text text-anchor="end" x="59" y="4.199999999999999" transform="translate(0,152.35)" style="font-family: 'Open Sans', verdana, arial, sans-serif; font-size: 12px; fill: rgb(68, 68, 68); fill-opacity: 1; white-space: pre;">600k</text></g><g class="ytick"><text text-anchor="end" x="59" y="4.199999999999999" transform="translate(0,101.07)" style="font-family: 'Open Sans', verdana, arial, sans-serif; font-size: 12px; fill: rgb(68, 68, 68); fill-opacity: 1; white-space: pre;">700k</text></g><g class="ytick"><text text-anchor="end" x="59" y="4.199999999999999" transform="translate(0,49.8)" style="font-family: 'Open Sans', verdana, arial, sans-serif; font-size: 12px; fill: rgb(68, 68, 68); fill-opacity: 1; white-space: pre;">800k</text></g></g><g class="overaxes-above"/></g></g><g class="polarlayer"/><g class="ternarylayer"/><g class="geolayer"/><g class="funnelarealayer"/><g class="pielayer"/><g class="treemaplayer"/><g class="sunburstlayer"/><g class="glimages"/><defs id="topdefs-804d0a"><g class="clips"/><clipPath id="legend804d0a"><rect width="217" height="67" x="0" y="0"/></clipPath></defs><g class="layer-above"><g class="imagelayer"/><g class="shapelayer"/></g><g class="infolayer"><g class="legend" pointer-events="all" transform="translate(472.8, 68.5)"><rect class="bg" shape-rendering="crispEdges" style="stroke: rgb(68, 68, 68); stroke-opacity: 1; fill: rgb(255, 255, 255); fill-opacity: 1; stroke-width: 0px;" width="217" height="67" x="0" y="0"/><g class="scrollbox" transform="translate(0, 0)" clip-path="url('#legend804d0a')"><g class="groups"><g class="traces" style="opacity: 1;" transform="translate(0, 14.5)"><text class="legendtext" text-anchor="start" x="40" y="4.680000000000001" style="font-family: 'Open Sans', verdana, arial, sans-serif; font-size: 12px; fill: rgb(68, 68, 68); fill-opacity: 1; white-space: pre;">Intensive Care</text><g class="layers"><g class="legendfill"><path class="js-fill" d="M5,-3h30v6h-30z" style="stroke-width: 0; fill: rgb(158, 0, 3); fill-opacity: 1;"/></g><g class="legendlines"/><g class="legendsymbols"><g class="legendpoints"/></g></g><rect class="legendtoggle" x="0" y="-9.5" width="211.046875" height="19" style="fill: rgb(0, 0, 0); fill-opacity: 0;"/></g><g class="traces" style="opacity: 1;" transform="translate(0, 33.5)"><text class="legendtext" text-anchor="start" x="40" y="4.680000000000001" style="font-family: 'Open Sans', verdana, arial, sans-serif; font-size: 12px; fill: rgb(68, 68, 68); fill-opacity: 1; white-space: pre;">Hospitalized with Symptoms</text><g class="layers"><g class="legendfill"><path class="js-fill" d="M5,-3h30v6h-30z" style="stroke-width: 0; fill: rgb(228, 19, 23); fill-opacity: 1;"/></g><g class="legendlines"/><g class="legendsymbols"><g class="legendpoints"/></g></g><rect class="legendtoggle" x="0" y="-9.5" width="211.046875" height="19" style="fill: rgb(0, 0, 0); fill-opacity: 0;"/></g><g class="traces" style="opacity: 1;" transform="translate(0, 52.5)"><text class="legendtext" text-anchor="start" x="40" y="4.680000000000001" style="font-family: 'Open Sans', verdana, arial, sans-serif; font-size: 12px; fill: rgb(68, 68, 68); fill-opacity: 1; white-space: pre;">Home Confinement</text><g class="layers"><g class="legendfill"><path class="js-fill" d="M5,-3h30v6h-30z" style="stroke-width: 0; fill: rgb(253, 187, 188); fill-opacity: 1;"/></g><g class="legendlines"/><g class="legendsymbols"><g class="legendpoints"/></g></g><rect class="legendtoggle" x="0" y="-9.5" width="211.046875" height="19" style="fill: rgb(0, 0, 0); fill-opacity: 0;"/></g></g></g><rect class="scrollbar" rx="20" ry="3" width="0" height="0" style="fill: rgb(128, 139, 164); fill-opacity: 1;" x="0" y="0"/></g><g class="g-gtitle"><text class="gtitle" x="350" y="12.5" text-anchor="middle" dy="0em" style="font-family: 'Open Sans', verdana, arial, sans-serif; font-size: 17px; fill: rgb(68, 68, 68); opacity: 1; font-weight: normal; white-space: pre;">Italy - Distribution of Active Covid19 Cases</text></g><g class="g-xtitle" transform="translate(0,-15)"><text class="xtitle" x="318" y="512" text-anchor="middle" style="font-family: 'Open Sans', verdana, arial, sans-serif; font-size: 14px; fill: rgb(68, 68, 68); opacity: 1; font-weight: normal; white-space: pre;">Source: Italy Department of Civil Protection</text></g><g class="g-ytitle"><text class="ytitle" transform="rotate(-90,22,242.5)" x="22" y="242.5" text-anchor="middle" style="font-family: 'Open Sans', verdana, arial, sans-serif; font-size: 14px; fill: rgb(68, 68, 68); opacity: 1; font-weight: normal; white-space: pre;">Number of Cases</text></g></g></svg>