<svg class="main-svg" xmlns="http://www.w3.org/2000/svg" xmlns:xlink="http://www.w3.org/1999/xlink" width="700" height="500" style="" viewBox="0 0 700 500"><rect x="0" y="0" width="700" height="500" style="fill: rgb(255, 255, 255); fill-opacity: 1;"/><defs id="defs-ba0e98"><g class="clips"/><g class="gradients"/></defs><g class="bglayer"/><g class="layer-below"><g class="imagelayer"/><g class="shapelayer"/></g><g class="cartesianlayer"/><g class="polarlayer"/><g class="ternarylayer"/><g class="geolayer"/><g class="funnelarealayer"/><g class="pielayer"><g class="trace" stroke-linejoin="round" style="opacity: 1;"><g class="slice"><path class="surface" d="M375,242.5l0,-217.5a217.5,217.5 0 0 1 195.06668150156898,313.7041567083536Z" style="pointer-events: all; stroke-width: 0; fill: rgb(31, 119, 180); fill-opacity: 1; stroke: rgb(68, 68, 68); stroke-opacity: 1;"/><g class="slicetext"><text data-notex="1" class="slicetext" transform="translate(474.8822572681105,177.33679385423017)" text-anchor="middle" x="0" y="0" style="font-family: 'Open Sans', verdana, arial, sans-serif; font-size: 12px; fill: rgb(255, 255, 255); fill-opacity: 1; white-space: pre;"><tspan class="line" dy="0em" x="0" y="0">Milano</tspan><tspan class="line" dy="1.3em" x="0" y="0">32.3%</tspan></text></g></g><g class="slice"><path class="surface" d="M375,242.5l-155.20441812008178,-152.37400892542937a217.5,217.5 0 0 1 155.20441812008178,-65.12599107457063Z" style="pointer-events: all; stroke-width: 0; fill: rgb(255, 127, 14); fill-opacity: 1; stroke: rgb(68, 68, 68); stroke-opacity: 1;"/><g class="slicetext"><text data-notex="1" class="slicetext" transform="translate(314.32116640403984,94.8390976067343)" text-anchor="middle" x="0" y="0" style="font-family: 'Open Sans', verdana, arial, sans-serif; font-size: 12px; fill: rgb(68, 68, 68); fill-opacity: 1; white-space: pre;"><tspan class="line" dy="0em" x="0" y="0">Brescia</tspan><tspan class="line" dy="1.3em" x="0" y="0">12.6%</tspan></text></g></g><g class="slice"><path class="surface" d="M375,242.5l-215.51391064688949,-29.325830213048274a217.5,217.5 0 0 1 60.3094925268077,-123.04817871238109Z" style="pointer-events: all; stroke-width: 0; fill: rgb(44, 160, 44); fill-opacity: 1; stroke: rgb(68, 68, 68); stroke-opacity: 1;"/><g class="slicetext"><text data-notex="1" class="slicetext" transform="translate(226.48278441952507,166.6527039715189)" text-anchor="middle" x="0" y="0" style="font-family: 'Open Sans', verdana, arial, sans-serif; font-size: 12px; fill: rgb(255, 255, 255); fill-opacity: 1; white-space: pre;"><tspan class="line" dy="0em" x="0" y="0">Varese</tspan><tspan class="line" dy="1.3em" x="0" y="0">10.2%</tspan></text></g></g><g class="slice"><path class="surface" d="M375,242.5l-195.18709988149857,95.95960629269953a217.5,217.5 0 0 1 -20.326810765390917,-125.28543650574781Z" style="pointer-events: all; stroke-width: 0; fill: rgb(214, 39, 40); fill-opacity: 1; stroke: rgb(68, 68, 68); stroke-opacity: 1;"/><g class="slicetext"><text data-notex="1" class="slicetext" transform="translate(238.37053364385054,261.57268078411425)rotate(-9.215595480644538)" text-anchor="middle" x="0" y="0" style="font-family: 'Open Sans', verdana, arial, sans-serif; font-size: 12px; fill: rgb(255, 255, 255); fill-opacity: 1; white-space: pre;"><tspan class="line" dy="0em" x="0" y="0">Monza e della Brianza</tspan><tspan class="line" dy="1.3em" x="0" y="0">9.42%</tspan></text></g></g><g class="slice"><path class="surface" d="M375,242.5l-134.2838277903114,171.09676675490394a217.5,217.5 0 0 1 -60.903272091187176,-75.1371604622044Z" style="pointer-events: all; stroke-width: 0; fill: rgb(148, 103, 189); fill-opacity: 1; stroke: rgb(68, 68, 68); stroke-opacity: 1;"/><g class="slicetext"><text data-notex="1" class="slicetext" transform="translate(236.7698331807724,351.48933185359783)" text-anchor="middle" x="0" y="0" style="font-family: 'Open Sans', verdana, arial, sans-serif; font-size: 12px; fill: rgb(255, 255, 255); fill-opacity: 1; white-space: pre;"><tspan class="line" dy="0em" x="0" y="0">Como</tspan><tspan class="line" dy="1.3em" x="0" y="0">7.14%</tspan></text></g></g><g class="slice"><path class="surface" d="M375,242.5l-57.54673408070232,209.748953267102a217.5,217.5 0 0 1 -76.73709370960907,-38.65218651219806Z" style="pointer-events: all; stroke-width: 0; fill: rgb(140, 86, 75); fill-opacity: 1; stroke: rgb(68, 68, 68); stroke-opacity: 1;"/><g class="slicetext"><text data-notex="1" class="slicetext" transform="translate(293.29547851446307,401.6552180057537)" text-anchor="middle" x="0" y="0" style="font-family: 'Open Sans', verdana, arial, sans-serif; font-size: 12px; fill: rgb(255, 255, 255); fill-opacity: 1; white-space: pre;"><tspan class="line" dy="0em" x="0" y="0">Bergamo</tspan><tspan class="line" dy="1.3em" x="0" y="0">6.33%</tspan></text></g></g><g class="slice"><path class="surface" d="M375,242.5l13.016519829297575,217.1101568594466a217.5,217.5 0 0 1 -70.5632539099999,-7.361203592344594Z" style="pointer-events: all; stroke-width: 0; fill: rgb(227, 119, 194); fill-opacity: 1; stroke: rgb(68, 68, 68); stroke-opacity: 1;"/><g class="slicetext"><text data-notex="1" class="slicetext" transform="translate(355.5972170039557,425.4371120658135)" text-anchor="middle" x="0" y="0" style="font-family: 'Open Sans', verdana, arial, sans-serif; font-size: 12px; fill: rgb(68, 68, 68); fill-opacity: 1; white-space: pre;"><tspan class="line" dy="0em" x="0" y="0">Pavia</tspan><tspan class="line" dy="1.3em" x="0" y="0">5.21%</tspan></text></g></g><g class="slice"><path class="surface" d="M375,242.5l69.6028331893269,206.06235855201388a217.5,217.5 0 0 1 -56.58631336002932,11.047798307432714Z" style="pointer-events: all; stroke-width: 0; fill: rgb(127, 127, 127); fill-opacity: 1; stroke: rgb(68, 68, 68); stroke-opacity: 1;"/><g class="slicetext"><text data-notex="1" class="slicetext" transform="translate(413.0096994749899,421.2425522777347)rotate(78.95265505008047)" text-anchor="middle" x="0" y="0" style="font-family: 'Open Sans', verdana, arial, sans-serif; font-size: 12px; fill: rgb(255, 255, 255); fill-opacity: 1; white-space: pre;"><tspan class="line" dy="0em" x="0" y="0">Mantova</tspan><tspan class="line" dy="1.3em" x="0" y="0">4.23%</tspan></text></g></g><g class="slice"><path class="surface" d="M375,242.5l109.13479175434169,188.1378410334733a217.5,217.5 0 0 1 -39.53195856501479,17.92451751854057Z" style="pointer-events: all; stroke-width: 0; fill: rgb(188, 189, 34); fill-opacity: 1; stroke: rgb(68, 68, 68); stroke-opacity: 1;"/><g class="slicetext"><text data-notex="1" class="slicetext" transform="translate(455.4432940269153,412.5179537474812)rotate(65.60958582073602)" text-anchor="middle" x="0" y="0" style="font-family: 'Open Sans', verdana, arial, sans-serif; font-size: 12px; fill: rgb(68, 68, 68); fill-opacity: 1; white-space: pre;"><tspan class="line" dy="0em" x="0" y="0">Cremona</tspan><tspan class="line" dy="1.3em" x="0" y="0">3.18%</tspan></text></g></g><g class="slice"><path class="surface" d="M375,242.5l142.07190821143027,164.68704532282717a217.5,217.5 0 0 1 -32.93711645708858,23.450795710646133Z" style="pointer-events: all; stroke-width: 0; fill: rgb(23, 190, 207); fill-opacity: 1; stroke: rgb(68, 68, 68); stroke-opacity: 1;"/><g class="slicetext"><text data-notex="1" class="slicetext" transform="translate(490.74009982688676,399.79258392855576)rotate(54.54963169817768)" text-anchor="middle" x="0" y="0" style="font-family: 'Open Sans', verdana, arial, sans-serif; font-size: 12px; fill: rgb(68, 68, 68); fill-opacity: 1; white-space: pre;"><tspan class="line" dy="0em" x="0" y="0">Lecco</tspan><tspan class="line" dy="1.3em" x="0" y="0">2.96%</tspan></text></g></g><g class="slice"><path class="surface" d="M375,242.5l161.48604302330997,145.7000614573435a217.5,217.5 0 0 1 -19.414134811879705,18.986983865483666Z" style="pointer-events: all; stroke-width: 0; fill: rgb(87, 169, 226); fill-opacity: 1; stroke: rgb(68, 68, 68); stroke-opacity: 1;"/><g class="slicetext"><text data-notex="1" class="slicetext" transform="translate(554.6966796556123,436.3310793331419)" text-anchor="middle" x="0" y="0" style="font-family: 'Open Sans', verdana, arial, sans-serif; font-size: 12px; fill: rgb(68, 68, 68); fill-opacity: 1; white-space: pre;"><tspan class="line" dy="0em" x="0" y="0">Lodi</tspan><tspan class="line" dy="1.3em" x="0" y="0">1.99%</tspan></text></g><path class="textline" stroke-width="1.5" d="M527.0755859056123,397.9968365320167V439.3857668331419h7.52734375" fill="none" style="stroke: rgb(68, 68, 68); stroke-opacity: 1;"/></g><g class="slice"><path class="surface" d="M375,242.5l177.13852059318828,126.20695116377951a217.5,217.5 0 0 1 -15.6524775698783,19.493110293564Z" style="pointer-events: all; stroke-width: 0; fill: rgb(255, 181, 116); fill-opacity: 1; stroke: rgb(68, 68, 68); stroke-opacity: 1;"/><g class="slicetext"><text data-notex="1" class="slicetext" transform="translate(575.2605514543895,406.2217043331419)" text-anchor="middle" x="0" y="0" style="font-family: 'Open Sans', verdana, arial, sans-serif; font-size: 12px; fill: rgb(68, 68, 68); fill-opacity: 1; white-space: pre;"><tspan class="line" dy="0em" x="0" y="0">Sondrio</tspan><tspan class="line" dy="1.3em" x="0" y="0">1.83%</tspan></text></g><path class="textline" stroke-width="1.5" d="M544.5925827043895,378.6785808842741V409.2763918331419h7.52734375" fill="none" style="stroke: rgb(68, 68, 68); stroke-opacity: 1;"/></g><g class="slice"><path class="surface" d="M375,242.5l187.63187721054683,110.0024029485096a217.5,217.5 0 0 1 -10.493356617358558,16.20454821526991Z" style="pointer-events: all; stroke-width: 0; fill: rgb(95, 211, 95); fill-opacity: 1; stroke: rgb(68, 68, 68); stroke-opacity: 1;"/><g class="slicetext"><text data-notex="1" class="slicetext" transform="translate(676.1392965282789,376.1123293331419)" text-anchor="middle" x="0" y="0" style="font-family: 'Open Sans', verdana, arial, sans-serif; font-size: 12px; fill: rgb(68, 68, 68); fill-opacity: 1; white-space: pre;"><tspan class="line" dy="0em" x="0" y="0">In fase di definizione/aggiornamento</tspan><tspan class="line" dy="1.3em" x="0" y="0">1.41%</tspan></text></g><path class="textline" stroke-width="1.5" d="M557.5650777782789,360.7211587483855V379.1670168331419h7.52734375" fill="none" style="stroke: rgb(68, 68, 68); stroke-opacity: 1;"/></g><g class="slice"><path class="surface" d="M375,242.5l195.06668150156906,96.20415670835337a217.5,217.5 0 0 1 -7.434804291022232,13.798246240156232Z" style="pointer-events: all; stroke-width: 0; fill: rgb(231, 124, 124); fill-opacity: 1; stroke: rgb(68, 68, 68); stroke-opacity: 1;"/><g class="slicetext"><text data-notex="1" class="slicetext" transform="translate(682.3759571015758,346.0029543331419)" text-anchor="middle" x="0" y="0" style="font-family: 'Open Sans', verdana, arial, sans-serif; font-size: 12px; fill: rgb(68, 68, 68); fill-opacity: 1; white-space: pre;"><tspan class="line" dy="0em" x="0" y="0">Fuori Regione / Provincia Autonoma</tspan><tspan class="line" dy="1.3em" x="0" y="0">1.15%</tspan></text></g></g></g></g><g class="treemaplayer"/><g class="sunburstlayer"/><g class="glimages"/><defs id="topdefs-ba0e98"><g class="clips"/></defs><g class="layer-above"><g class="imagelayer"/><g class="shapelayer"/></g><g class="infolayer"><g class="g-gtitle"><text class="gtitle" x="350" y="12.5" text-anchor="middle" dy="0em" style="font-family: 'Open Sans', verdana, arial, sans-serif; font-size: 17px; fill: rgb(68, 68, 68); opacity: 1; font-weight: normal; white-space: pre;">Lombardia - Cases Distribution by Province</text></g></g></svg>