<svg class="main-svg" xmlns="http://www.w3.org/2000/svg" xmlns:xlink="http://www.w3.org/1999/xlink" width="700" height="500" style="" viewBox="0 0 700 500"><rect x="0" y="0" width="700" height="500" style="fill: rgb(255, 255, 255); fill-opacity: 1;"/><defs id="defs-6113cd"><g class="clips"><clipPath id="clip6113cdxyplot" class="plotclip"><rect width="610" height="435"/></clipPath><clipPath class="axesclip" id="clip6113cdx"><rect x="60" y="0" width="610" height="500"/></clipPath><clipPath class="axesclip" id="clip6113cdy"><rect x="0" y="25" width="700" height="435"/></clipPath><clipPath class="axesclip" id="clip6113cdxy"><rect x="60" y="25" width="610" height="435"/></clipPath></g><g class="gradients"/></defs><g class="bglayer"/><g class="layer-below"><g class="imagelayer"/><g class="shapelayer"/></g><g class="cartesianlayer"><g class="subplot xy"><g class="layer-subplot"><g class="shapelayer"/><g class="imagelayer"/></g><g class="gridlayer"><g class="x"><path class="xgrid crisp" transform="translate(67.36,0)" d="M0,25v435" style="stroke: rgb(238, 238, 238); stroke-opacity: 1; stroke-width: 1px;"/><path class="xgrid crisp" transform="translate(142.23000000000002,0)" d="M0,25v435" style="stroke: rgb(238, 238, 238); stroke-opacity: 1; stroke-width: 1px;"/><path class="xgrid crisp" transform="translate(217.1,0)" d="M0,25v435" style="stroke: rgb(238, 238, 238); stroke-opacity: 1; stroke-width: 1px;"/><path class="xgrid crisp" transform="translate(293.2,0)" d="M0,25v435" style="stroke: rgb(238, 238, 238); stroke-opacity: 1; stroke-width: 1px;"/><path class="xgrid crisp" transform="translate(368.07,0)" d="M0,25v435" style="stroke: rgb(238, 238, 238); stroke-opacity: 1; stroke-width: 1px;"/><path class="xgrid crisp" transform="translate(442.94,0)" d="M0,25v435" style="stroke: rgb(238, 238, 238); stroke-opacity: 1; stroke-width: 1px;"/><path class="xgrid crisp" transform="translate(515.35,0)" d="M0,25v435" style="stroke: rgb(238, 238, 238); stroke-opacity: 1; stroke-width: 1px;"/><path class="xgrid crisp" transform="translate(590.22,0)" d="M0,25v435" style="stroke: rgb(238, 238, 238); stroke-opacity: 1; stroke-width: 1px;"/><path class="xgrid crisp" transform="translate(665.09,0)" d="M0,25v435" style="stroke: rgb(238, 238, 238); stroke-opacity: 1; stroke-width: 1px;"/></g><g class="y"><path class="ygrid crisp" transform="translate(0,411.54)" d="M60,0h610" style="stroke: rgb(238, 238, 238); stroke-opacity: 1; stroke-width: 1px;"/><path class="ygrid crisp" transform="translate(0,363.08)" d="M60,0h610" style="stroke: rgb(238, 238, 238); stroke-opacity: 1; stroke-width: 1px;"/><path class="ygrid crisp" transform="translate(0,314.62)" d="M60,0h610" style="stroke: rgb(238, 238, 238); stroke-opacity: 1; stroke-width: 1px;"/><path class="ygrid crisp" transform="translate(0,266.15999999999997)" d="M60,0h610" style="stroke: rgb(238, 238, 238); stroke-opacity: 1; stroke-width: 1px;"/><path class="ygrid crisp" transform="translate(0,217.7)" d="M60,0h610" style="stroke: rgb(238, 238, 238); stroke-opacity: 1; stroke-width: 1px;"/><path class="ygrid crisp" transform="translate(0,169.24)" d="M60,0h610" style="stroke: rgb(238, 238, 238); stroke-opacity: 1; stroke-width: 1px;"/><path class="ygrid crisp" transform="translate(0,120.78)" d="M60,0h610" style="stroke: rgb(238, 238, 238); stroke-opacity: 1; stroke-width: 1px;"/><path class="ygrid crisp" transform="translate(0,72.32)" d="M60,0h610" style="stroke: rgb(238, 238, 238); stroke-opacity: 1; stroke-width: 1px;"/></g></g><g class="zerolinelayer"><path class="yzl zl crisp" transform="translate(0,460)" d="M60,0h610" style="stroke: rgb(68, 68, 68); stroke-opacity: 1; stroke-width: 1px;"/></g><path class="xlines-below"/><path class="ylines-below"/><g class="overlines-below"/><g class="xaxislayer-below"/><g class="yaxislayer-below"/><g class="overaxes-below"/><g class="plot" transform="translate(60, 25)" clip-path="url('#clip6113cdxyplot')"><g class="scatterlayer mlayer"><g class="trace scatter traceb05493" style="stroke-miterlimit: 2;"><g class="fills"><g><path class="js-fill" d="M610,435L0,435L0,434.98L1.23,434.97L2.45,434.96L3.68,434.94L4.91,434.92L6.14,434.9L7.36,434.85L8.59,434.82L9.82,434.78L11.05,434.74L12.27,434.68L13.5,434.62L14.73,434.51L15.96,434.38L17.18,434.23L18.41,434.17L19.64,433.97L20.87,433.76L22.09,433.55L23.32,433.28L24.55,433L25.77,432.76L27,432.47L28.23,432.22L29.46,431.78L30.68,431.33L31.91,430.86L33.14,430.48L34.37,430.11L35.59,429.76L36.82,429.43L38.05,428.99L39.28,428.56L40.5,428.21L41.73,427.84L42.96,427.68L44.19,427.48L45.41,427.19L46.64,426.95L47.87,426.72L49.09,426.44L50.32,426.16L51.55,425.97L52.78,425.88L54,425.77L55.23,425.61L56.46,425.48L57.69,425.28L58.91,425.09L60.14,424.96L61.37,424.89L62.6,424.78L63.82,424.67L65.05,424.63L66.28,424.55L67.51,424.51L68.73,424.51L69.96,424.56L71.19,424.56L72.41,424.64L73.64,424.68L74.87,424.74L76.1,424.72L77.32,424.74L78.55,424.8L79.78,424.86L81.01,425.16L82.23,425.22L83.46,425.24L84.69,425.29L85.92,425.31L87.14,425.46L88.37,426.13L89.6,426.31L90.82,426.47L92.05,426.78L93.28,426.92L94.51,427.01L95.73,427.12L96.96,427.4L98.19,427.59L99.42,428.01L100.64,428.2L101.87,428.38L103.1,428.55L104.33,428.69L105.55,428.92L106.78,429.09L108.01,429.25L109.24,429.4L110.46,429.51L111.69,429.64L112.92,429.87L114.14,430.06L115.37,430.35L116.6,430.52L117.83,430.77L119.05,430.92L120.28,430.99L121.51,431.13L122.74,431.19L123.96,431.28L125.19,431.42L126.42,431.52L127.65,431.58L128.87,431.63L130.1,431.81L131.33,431.93L132.56,432.03L133.78,432.19L135.01,432.34L136.24,432.45L137.46,432.49L138.69,432.62L139.92,432.68L141.15,432.76L142.37,432.91L143.6,432.94L144.83,432.97L146.06,433L147.28,433.1L148.51,433.19L149.74,433.23L150.97,433.29L152.19,433.37L153.42,433.38L154.65,433.4L155.88,433.49L157.1,433.52L158.33,433.54L159.56,433.56L160.78,433.58L162.01,433.58L163.24,433.57L164.47,433.62L165.69,433.68L166.92,433.7L168.15,433.7L169.38,433.71L170.6,433.72L171.83,433.72L173.06,433.75L174.29,433.79L175.51,433.79L176.74,433.79L177.97,433.8L179.2,433.79L180.42,433.8L181.65,433.81L182.88,433.81L184.1,433.8L185.33,433.81L186.56,433.79L187.79,433.78L189.01,433.78L190.24,433.78L191.47,433.78L192.7,433.81L193.92,433.8L195.15,433.79L196.38,433.79L197.61,433.79L198.83,433.79L200.06,433.77L201.29,433.77L202.52,433.75L203.74,433.74L204.97,433.71L206.2,433.7L207.42,433.69L208.65,433.66L209.88,433.64L211.11,433.62L212.33,433.6L213.56,433.57L214.79,433.56L216.02,433.54L217.24,433.51L218.47,433.45L219.7,433.38L220.93,433.3L222.15,433.21L223.38,433.14L224.61,433.09L225.84,432.99L227.06,432.87L228.29,432.77L229.52,432.66L230.74,432.56L231.97,432.47L233.2,432.41L234.43,432.3L235.65,432.2L236.88,432.08L238.11,431.98L239.34,431.89L240.56,431.8L241.79,431.73L243.02,431.63L244.25,431.54L245.47,431.44L246.7,431.37L247.93,431.27L249.15,431.2L250.38,431.15L251.61,431.07L252.84,430.99L254.06,430.89L255.29,430.82L256.52,430.73L257.75,430.63L258.97,430.59L260.2,430.53L261.43,430.47L262.66,430.38L263.88,430.29L265.11,430.19L266.34,430.12L267.57,430.09L268.79,430.03L270.02,429.9L271.25,429.77L272.47,429.61L273.7,429.43L274.93,429.29L276.16,429.17L277.38,428.94L278.61,428.61L279.84,428.2L281.07,427.75L282.29,427.34L283.52,426.98L284.75,426.55L285.98,426.04L287.2,425.38L288.43,424.6L289.66,423.67L290.89,422.77L292.11,422.01L293.34,421.17L294.57,419.93L295.79,418.59L297.02,416.97L298.25,415.31L299.48,413.46L300.7,412.06L301.93,410.28L303.16,408.21L304.39,406L305.61,403.42L306.84,400.94L308.07,398.35L309.3,396.57L310.52,394.47L311.75,392.04L312.98,389.22L314.21,386.63L315.43,383.39L316.66,380.86L317.89,379.43L319.11,377.81L320.34,375.55L321.57,373.45L322.8,370.65L324.02,368.28L325.25,365.95L326.48,365.43L327.71,363.88L328.93,362.97L330.16,361.18L331.39,359.68L332.62,358.26L333.84,356.89L335.07,357.77L336.3,357.62L337.53,358.27L338.75,357.87L339.98,358.64L341.21,358.5L342.43,357.87L343.66,358.58L344.89,359.41L346.12,361.22L347.34,361.34L348.57,361.56L349.8,361.91L351.03,361.8L352.25,362.42L353.48,363.52L354.71,366.14L355.94,367.49L357.16,368.09L358.39,368.62L359.62,368.51L360.85,369.57L362.07,370.71L363.3,372.42L364.53,373.42L365.75,374.15L366.98,374.89L368.21,374.64L369.44,375.53L370.66,376.27L371.89,376.96L373.12,377.46L374.35,378.8L375.57,378.69L376.8,378.62L378.03,379.25L379.26,379.88L380.48,380.3L381.71,379.77L382.94,379.29L384.16,379.07L385.39,379.15L386.62,379.71L387.85,379.84L389.07,379.88L390.3,379.65L391.53,379.72L392.76,379.48L393.98,378.79L395.21,379.18L396.44,379.75L397.67,380.26L398.89,380.59L400.12,380.91L401.35,380.95L402.58,381.37L403.8,381.98L405.03,383.1L406.26,384.26L407.48,384.93L408.71,386.34L409.94,386.65L411.17,386.61L412.39,387.35L413.62,388.24L414.85,388.67L416.08,389L417.3,389.66L418.53,390.09L419.76,391L420.99,391.62L422.21,392.57L423.44,392.87L424.67,393.3L425.9,393.41L427.12,393.61L428.35,393.61L429.58,394.33L430.8,394.88L432.03,395.25L433.26,395.75L434.49,396.02L435.71,396.09L436.94,395.96L438.17,396.42L439.4,396.84L440.62,397.31L441.85,397.73L443.08,397.93L444.31,397.72L445.53,397.31L446.76,397.4L447.99,397.4L449.22,397.26L450.44,396.61L451.67,395.78L452.9,395.07L454.12,394.06L455.35,393.87L456.58,393.23L457.81,392.6L459.03,391.73L460.26,390.76L461.49,389.85L462.72,389.17L463.94,389.2L465.17,388.59L466.4,387.79L467.63,386.8L468.85,385.64L470.08,384.6L471.31,383.51L472.54,383.6L473.76,383.04L474.99,382.76L476.22,381.93L477.44,381.06L478.67,380.2L479.9,379.59L481.13,380.43L482.35,380.66L483.58,380.6L484.81,380.44L486.04,380.07L487.26,379.58L488.49,379.45L489.72,380.15L490.95,380.46L492.17,380.62L493.4,380.39L494.63,380.21L495.86,380.25L497.08,379.85L498.31,379.75L499.54,381.14L500.76,381.9L501.99,382.24L503.22,383.02L504.45,383.33L505.67,383.34L506.9,384.17L508.13,384.68L509.36,385.12L510.58,385.57L511.81,385.89L513.04,386.03L514.27,386.09L515.49,387.17L516.72,388.21L517.95,388.9L519.18,389.23L520.4,389.88L521.63,390.28L522.86,390.3L524.08,391.11L525.31,391.57L526.54,392.09L527.77,392.48L528.99,392.72L530.22,393.27L531.45,393.24L532.68,393.95L533.9,394.89L535.13,395.54L536.36,395.96L537.59,396.47L538.81,397.19L540.04,397.8L541.27,398.78L542.49,399.73L543.72,400.84L544.95,401.46L546.18,402.09L547.4,402.74L548.63,403.12L549.86,403.71L551.09,404.44L552.31,405.27L553.54,405.97L554.77,406.72L556,407.5L557.22,407.76L558.45,408.21L559.68,409.01L560.91,409.8L562.13,410.46L563.36,411.13L564.59,411.55L565.81,411.9L567.04,412.35L568.27,413.12L569.5,414.64L570.72,415.08L571.95,415.6L573.18,416.06L574.41,416.36L575.63,416.74L576.86,417.39L578.09,418.05L579.32,418.59L580.54,418.98L581.77,419.26L583,419.46L584.23,419.71L585.45,424.74L586.68,425.13L587.91,425.44L589.13,426.08L590.36,426.36L591.59,426.5L592.82,427.55L594.04,427.93L595.27,428.35L596.5,428.96L597.73,429.16L598.95,429.4L600.18,429.46L601.41,429.7L602.64,429.88L603.86,430.11L605.09,430.22L606.32,430.37L607.55,430.58L608.77,430.67L610,430.78" style="fill: rgb(31, 119, 180); fill-opacity: 1; stroke-width: 0;"/></g><g><path class="js-fill" d="M0,434.98L1.23,434.97L2.45,434.96L3.68,434.94L4.91,434.92L6.14,434.9L7.36,434.84L8.59,434.82L9.82,434.77L11.05,434.73L12.27,434.67L13.5,434.6L14.73,434.49L15.96,434.35L17.18,434.18L18.41,434.11L19.64,433.89L20.87,433.66L22.09,433.43L23.32,433.14L24.55,432.83L25.77,432.55L27,432.23L28.23,431.93L29.46,431.45L30.68,430.94L31.91,430.4L33.14,429.95L34.37,429.52L35.59,429.1L36.82,428.7L38.05,428.2L39.28,427.68L40.5,427.24L41.73,426.79L42.96,426.56L44.19,426.27L45.41,425.92L46.64,425.6L47.87,425.3L49.09,424.96L50.32,424.62L51.55,424.37L52.78,424.22L54,424.05L55.23,423.84L56.46,423.65L57.69,423.4L58.91,423.16L60.14,422.97L61.37,422.85L62.6,422.68L63.82,422.52L65.05,422.43L66.28,422.3L67.51,422.21L68.73,422.17L69.96,422.17L71.19,422.13L72.41,422.17L73.64,422.16L74.87,422.18L76.1,422.13L77.32,422.13L78.55,422.15L79.78,422.17L81.01,422.45L82.23,422.48L83.46,422.46L84.69,422.49L85.92,422.49L87.14,422.62L88.37,423.25L89.6,423.41L90.82,423.55L92.05,423.83L93.28,423.96L94.51,424.03L95.73,424.13L96.96,424.38L98.19,424.55L99.42,424.95L100.64,425.12L101.87,425.28L103.1,425.45L104.33,425.57L105.55,425.78L106.78,425.94L108.01,426.09L109.24,426.23L110.46,426.34L111.69,426.45L112.92,426.67L114.14,426.85L115.37,427.14L116.6,427.3L117.83,427.53L119.05,427.68L120.28,427.75L121.51,427.88L122.74,427.93L123.96,428.01L125.19,428.14L126.42,428.24L127.65,428.3L128.87,428.34L130.1,428.51L131.33,428.62L132.56,428.72L133.78,428.87L135.01,429.01L136.24,429.12L137.46,429.16L138.69,429.28L139.92,429.34L141.15,429.42L142.37,429.56L143.6,429.59L144.83,429.61L146.06,429.64L147.28,429.74L148.51,429.83L149.74,429.87L150.97,429.93L152.19,430L153.42,430.02L154.65,430.03L155.88,430.12L157.1,430.15L158.33,430.17L159.56,430.18L160.78,430.2L162.01,430.2L163.24,430.19L164.47,430.24L165.69,430.3L166.92,430.31L168.15,430.31L169.38,430.32L170.6,430.33L171.83,430.34L173.06,430.36L174.29,430.4L175.51,430.4L176.74,430.4L177.97,430.4L179.2,430.4L180.42,430.4L181.65,430.41L182.88,430.41L184.1,430.4L185.33,430.41L186.56,430.39L187.79,430.38L189.01,430.38L190.24,430.37L191.47,430.37L192.7,430.41L193.92,430.39L195.15,430.39L196.38,430.39L197.61,430.38L198.83,430.38L200.06,430.36L201.29,430.36L202.52,430.34L203.74,430.33L204.97,430.3L206.2,430.29L207.42,430.27L208.65,430.25L209.88,430.22L211.11,430.2L212.33,430.17L213.56,430.14L214.79,430.13L216.02,430.11L217.24,430.08L218.47,430.02L219.7,429.95L220.93,429.87L222.15,429.78L223.38,429.7L224.61,429.65L225.84,429.55L227.06,429.44L228.29,429.33L229.52,429.22L230.74,429.12L231.97,429.03L233.2,428.97L234.43,428.86L235.65,428.76L236.88,428.64L238.11,428.53L239.34,428.45L240.56,428.36L241.79,428.28L243.02,428.19L244.25,428.09L245.47,427.99L246.7,427.91L247.93,427.82L249.15,427.75L250.38,427.7L251.61,427.62L252.84,427.53L254.06,427.43L255.29,427.36L256.52,427.27L257.75,427.17L258.97,427.13L260.2,427.06L261.43,427L262.66,426.91L263.88,426.82L265.11,426.72L266.34,426.65L267.57,426.62L268.79,426.55L270.02,426.42L271.25,426.28L272.47,426.13L273.7,425.95L274.93,425.8L276.16,425.68L277.38,425.44L278.61,425.11L279.84,424.7L281.07,424.24L282.29,423.83L283.52,423.47L284.75,423.04L285.98,422.52L287.2,421.85L288.43,421.07L289.66,420.13L290.89,419.22L292.11,418.46L293.34,417.61L294.57,416.36L295.79,415.01L297.02,413.38L298.25,411.7L299.48,409.84L300.7,408.43L301.93,406.62L303.16,404.53L304.39,402.31L305.61,399.71L306.84,397.2L308.07,394.59L309.3,392.78L310.52,390.65L311.75,388.19L312.98,385.32L314.21,382.69L315.43,379.41L316.66,376.84L317.89,375.39L319.11,373.7L320.34,371.39L321.57,369.23L322.8,366.37L324.02,363.95L325.25,361.56L326.48,361L327.71,359.38L328.93,358.4L330.16,356.54L331.39,354.97L332.62,353.49L333.84,352.06L335.07,352.88L336.3,352.65L337.53,353.23L338.75,352.74L339.98,353.43L341.21,353.23L342.43,352.55L343.66,353.19L344.89,353.94L346.12,355.69L347.34,355.72L348.57,355.86L349.8,356.14L351.03,355.97L352.25,356.55L353.48,357.58L354.71,360.15L355.94,361.42L357.16,361.95L358.39,362.42L359.62,362.26L360.85,363.27L362.07,364.33L363.3,365.97L364.53,366.91L365.75,367.57L366.98,368.26L368.21,367.97L369.44,368.82L370.66,369.5L371.89,370.14L373.12,370.59L374.35,371.88L375.57,371.75L376.8,371.64L378.03,372.24L379.26,372.8L380.48,373.16L381.71,372.58L382.94,372.06L384.16,371.8L385.39,371.85L386.62,372.38L387.85,372.44L389.07,372.43L390.3,372.16L391.53,372.17L392.76,371.88L393.98,371.16L395.21,371.5L396.44,372.02L397.67,372.48L398.89,372.75L400.12,373.03L401.35,373.02L402.58,373.4L403.8,373.98L405.03,375.04L406.26,376.15L407.48,376.77L408.71,378.13L409.94,378.4L411.17,378.33L412.39,379.03L413.62,379.87L414.85,380.25L416.08,380.53L417.3,381.14L418.53,381.54L419.76,382.42L420.99,383.01L422.21,383.91L423.44,384.16L424.67,384.55L425.9,384.63L427.12,384.79L428.35,384.77L429.58,385.46L430.8,385.96L432.03,386.3L433.26,386.76L434.49,387L435.71,387.05L436.94,386.89L438.17,387.32L439.4,387.72L440.62,388.15L441.85,388.54L443.08,388.7L444.31,388.47L445.53,388.03L446.76,388.1L447.99,388.06L449.22,387.89L450.44,387.21L451.67,386.36L452.9,385.62L454.12,384.59L455.35,384.38L456.58,383.7L457.81,383.05L459.03,382.14L460.26,381.14L461.49,380.2L462.72,379.5L463.94,379.5L465.17,378.85L466.4,378.02L467.63,376.99L468.85,375.79L470.08,374.72L471.31,373.61L472.54,373.66L473.76,373.06L474.99,372.73L476.22,371.87L477.44,370.96L478.67,370.05L479.9,369.42L481.13,370.22L482.35,370.4L483.58,370.29L484.81,370.09L486.04,369.68L487.26,369.15L488.49,368.99L489.72,369.65L490.95,369.9L492.17,370.02L493.4,369.74L494.63,369.52L495.86,369.52L497.08,369.09L498.31,368.96L499.54,370.31L500.76,371.01L501.99,371.3L503.22,372.01L504.45,372.29L505.67,372.27L506.9,373.06L508.13,373.52L509.36,373.92L510.58,374.33L511.81,374.61L513.04,374.72L514.27,374.76L515.49,375.81L516.72,376.81L517.95,377.46L519.18,377.76L520.4,378.37L521.63,378.74L522.86,378.74L524.08,379.53L525.31,379.94L526.54,380.43L527.77,380.8L528.99,381.01L530.22,381.54L531.45,381.49L532.68,382.18L533.9,383.09L535.13,383.72L536.36,384.11L537.59,384.6L538.81,385.3L540.04,385.89L541.27,386.86L542.49,387.79L543.72,388.87L544.95,389.47L546.18,390.07L547.4,390.72L548.63,391.09L549.86,391.66L551.09,392.37L552.31,393.19L553.54,393.88L554.77,394.6L556,395.37L557.22,395.62L558.45,396.06L559.68,396.85L560.91,397.62L562.13,398.27L563.36,398.93L564.59,399.34L565.81,399.69L567.04,400.13L568.27,400.89L569.5,402.4L570.72,402.83L571.95,403.35L573.18,403.81L574.41,404.1L575.63,404.47L576.86,405.11L578.09,405.76L579.32,406.3L580.54,406.68L581.77,406.95L583,407.15L584.23,407.39L585.45,412.42L586.68,412.8L587.91,413.12L589.13,413.75L590.36,414.03L591.59,414.16L592.82,415.21L594.04,415.59L595.27,416.01L596.5,416.62L597.73,416.81L598.95,417.05L600.18,417.11L601.41,417.34L602.64,417.52L603.86,417.75L605.09,417.85L606.32,418L607.55,418.21L608.77,418.3L610,418.41L610,430.78L608.77,430.67L607.55,430.58L606.32,430.37L605.09,430.22L603.86,430.11L602.64,429.88L601.41,429.7L600.18,429.46L598.95,429.4L597.73,429.16L596.5,428.96L595.27,428.35L594.04,427.93L592.82,427.55L591.59,426.5L590.36,426.36L589.13,426.08L587.91,425.44L586.68,425.13L585.45,424.74L584.23,419.71L583,419.46L581.77,419.26L580.54,418.98L579.32,418.59L578.09,418.05L576.86,417.39L575.63,416.74L574.41,416.36L573.18,416.06L571.95,415.6L570.72,415.08L569.5,414.64L568.27,413.12L567.04,412.35L565.81,411.9L564.59,411.55L563.36,411.13L562.13,410.46L560.91,409.8L559.68,409.01L558.45,408.21L557.22,407.76L556,407.5L554.77,406.72L553.54,405.97L552.31,405.27L551.09,404.44L549.86,403.71L548.63,403.12L547.4,402.74L546.18,402.09L544.95,401.46L543.72,400.84L542.49,399.73L541.27,398.78L540.04,397.8L538.81,397.19L537.59,396.47L536.36,395.96L535.13,395.54L533.9,394.89L532.68,393.95L531.45,393.24L530.22,393.27L528.99,392.72L527.77,392.48L526.54,392.09L525.31,391.57L524.08,391.11L522.86,390.3L521.63,390.28L520.4,389.88L519.18,389.23L517.95,388.9L516.72,388.21L515.49,387.17L514.27,386.09L513.04,386.03L511.81,385.89L510.58,385.57L509.36,385.12L508.13,384.68L506.9,384.17L505.67,383.34L504.45,383.33L503.22,383.02L501.99,382.24L500.76,381.9L499.54,381.14L498.31,379.75L497.08,379.85L495.86,380.25L494.63,380.21L493.4,380.39L492.17,380.62L490.95,380.46L489.72,380.15L488.49,379.45L487.26,379.58L486.04,380.07L484.81,380.44L483.58,380.6L482.35,380.66L481.13,380.43L479.9,379.59L478.67,380.2L477.44,381.06L476.22,381.93L474.99,382.76L473.76,383.04L472.54,383.6L471.31,383.51L470.08,384.6L468.85,385.64L467.63,386.8L466.4,387.79L465.17,388.59L463.94,389.2L462.72,389.17L461.49,389.85L460.26,390.76L459.03,391.73L457.81,392.6L456.58,393.23L455.35,393.87L454.12,394.06L452.9,395.07L451.67,395.78L450.44,396.61L449.22,397.26L447.99,397.4L446.76,397.4L445.53,397.31L444.31,397.72L443.08,397.93L441.85,397.73L440.62,397.31L439.4,396.84L438.17,396.42L436.94,395.96L435.71,396.09L434.49,396.02L433.26,395.75L432.03,395.25L430.8,394.88L429.58,394.33L428.35,393.61L427.12,393.61L425.9,393.41L424.67,393.3L423.44,392.87L422.21,392.57L420.99,391.62L419.76,391L418.53,390.09L417.3,389.66L416.08,389L414.85,388.67L413.62,388.24L412.39,387.35L411.17,386.61L409.94,386.65L408.71,386.34L407.48,384.93L406.26,384.26L405.03,383.1L403.8,381.98L402.58,381.37L401.35,380.95L400.12,380.91L398.89,380.59L397.67,380.26L396.44,379.75L395.21,379.18L393.98,378.79L392.76,379.48L391.53,379.72L390.3,379.65L389.07,379.88L387.85,379.84L386.62,379.71L385.39,379.15L384.16,379.07L382.94,379.29L381.71,379.77L380.48,380.3L379.26,379.88L378.03,379.25L376.8,378.62L375.57,378.69L374.35,378.8L373.12,377.46L371.89,376.96L370.66,376.27L369.44,375.53L368.21,374.64L366.98,374.89L365.75,374.15L364.53,373.42L363.3,372.42L362.07,370.71L360.85,369.57L359.62,368.51L358.39,368.62L357.16,368.09L355.94,367.49L354.71,366.14L353.48,363.52L352.25,362.42L351.03,361.8L349.8,361.91L348.57,361.56L347.34,361.34L346.12,361.22L344.89,359.41L343.66,358.58L342.43,357.87L341.21,358.5L339.98,358.64L338.75,357.87L337.53,358.27L336.3,357.62L335.07,357.77L333.84,356.89L332.62,358.26L331.39,359.68L330.16,361.18L328.93,362.97L327.71,363.88L326.48,365.43L325.25,365.95L324.02,368.28L322.8,370.65L321.57,373.45L320.34,375.55L319.11,377.81L317.89,379.43L316.66,380.86L315.43,383.39L314.21,386.63L312.98,389.22L311.75,392.04L310.52,394.47L309.3,396.57L308.07,398.35L306.84,400.94L305.61,403.42L304.39,406L303.16,408.21L301.93,410.28L300.7,412.06L299.48,413.46L298.25,415.31L297.02,416.97L295.79,418.59L294.57,419.93L293.34,421.17L292.11,422.01L290.89,422.77L289.66,423.67L288.43,424.6L287.2,425.38L285.98,426.04L284.75,426.55L283.52,426.98L282.29,427.34L281.07,427.75L279.84,428.2L278.61,428.61L277.38,428.94L276.16,429.17L274.93,429.29L273.7,429.43L272.47,429.61L271.25,429.77L270.02,429.9L268.79,430.03L267.57,430.09L266.34,430.12L265.11,430.19L263.88,430.29L262.66,430.38L261.43,430.47L260.2,430.53L258.97,430.59L257.75,430.63L256.52,430.73L255.29,430.82L254.06,430.89L252.84,430.99L251.61,431.07L250.38,431.15L249.15,431.2L247.93,431.27L246.7,431.37L245.47,431.44L244.25,431.54L243.02,431.63L241.79,431.73L240.56,431.8L239.34,431.89L238.11,431.98L236.88,432.08L235.65,432.2L234.43,432.3L233.2,432.41L231.97,432.47L230.74,432.56L229.52,432.66L228.29,432.77L227.06,432.87L225.84,432.99L224.61,433.09L223.38,433.14L222.15,433.21L220.93,433.3L219.7,433.38L218.47,433.45L217.24,433.51L216.02,433.54L214.79,433.56L213.56,433.57L212.33,433.6L211.11,433.62L209.88,433.64L208.65,433.66L207.42,433.69L206.2,433.7L204.97,433.71L203.74,433.74L202.52,433.75L201.29,433.77L200.06,433.77L198.83,433.79L197.61,433.79L196.38,433.79L195.15,433.79L193.92,433.8L192.7,433.81L191.47,433.78L190.24,433.78L189.01,433.78L187.79,433.78L186.56,433.79L185.33,433.81L184.1,433.8L182.88,433.81L181.65,433.81L180.42,433.8L179.2,433.79L177.97,433.8L176.74,433.79L175.51,433.79L174.29,433.79L173.06,433.75L171.83,433.72L170.6,433.72L169.38,433.71L168.15,433.7L166.92,433.7L165.69,433.68L164.47,433.62L163.24,433.57L162.01,433.58L160.78,433.58L159.56,433.56L158.33,433.54L157.1,433.52L155.88,433.49L154.65,433.4L153.42,433.38L152.19,433.37L150.97,433.29L149.74,433.23L148.51,433.19L147.28,433.1L146.06,433L144.83,432.97L143.6,432.94L142.37,432.91L141.15,432.76L139.92,432.68L138.69,432.62L137.46,432.49L136.24,432.45L135.01,432.34L133.78,432.19L132.56,432.03L131.33,431.93L130.1,431.81L128.87,431.63L127.65,431.58L126.42,431.52L125.19,431.42L123.96,431.28L122.74,431.19L121.51,431.13L120.28,430.99L119.05,430.92L117.83,430.77L116.6,430.52L115.37,430.35L114.14,430.06L112.92,429.87L111.69,429.64L110.46,429.51L109.24,429.4L108.01,429.25L106.78,429.09L105.55,428.92L104.33,428.69L103.1,428.55L101.87,428.38L100.64,428.2L99.42,428.01L98.19,427.59L96.96,427.4L95.73,427.12L94.51,427.01L93.28,426.92L92.05,426.78L90.82,426.47L89.6,426.31L88.37,426.13L87.14,425.46L85.92,425.31L84.69,425.29L83.46,425.24L82.23,425.22L81.01,425.16L79.78,424.86L78.55,424.8L77.32,424.74L76.1,424.72L74.87,424.74L73.64,424.68L72.41,424.64L71.19,424.56L69.96,424.56L68.73,424.51L67.51,424.51L66.28,424.55L65.05,424.63L63.82,424.67L62.6,424.78L61.37,424.89L60.14,424.96L58.91,425.09L57.69,425.28L56.46,425.48L55.23,425.61L54,425.77L52.78,425.88L51.55,425.97L50.32,426.16L49.09,426.44L47.87,426.72L46.64,426.95L45.41,427.19L44.19,427.48L42.96,427.68L41.73,427.84L40.5,428.21L39.28,428.56L38.05,428.99L36.82,429.43L35.59,429.76L34.37,430.11L33.14,430.48L31.91,430.86L30.68,431.33L29.46,431.78L28.23,432.22L27,432.47L25.77,432.76L24.55,433L23.32,433.28L22.09,433.55L20.87,433.76L19.64,433.97L18.41,434.17L17.18,434.23L15.96,434.38L14.73,434.51L13.5,434.62L12.27,434.68L11.05,434.74L9.82,434.78L8.59,434.82L7.36,434.85L6.14,434.9L4.91,434.92L3.68,434.94L2.45,434.96L1.23,434.97L0,434.98Z" style="fill: rgb(228, 19, 23); fill-opacity: 1; stroke-width: 0;"/></g></g><g class="errorbars"/><g class="lines"/><g class="points"/><g class="text"/></g><g class="trace scatter trace7f130e" style="stroke-miterlimit: 2;"><g class="fills"><g><path class="js-fill" d="M0,434.98L1.23,434.97L2.45,434.96L3.68,434.94L4.91,434.91L6.14,434.89L7.36,434.84L8.59,434.8L9.82,434.76L11.05,434.7L12.27,434.63L13.5,434.55L14.73,434.43L15.96,434.29L17.18,434.11L18.41,434.02L19.64,433.79L20.87,433.54L22.09,433.29L23.32,432.95L24.55,432.6L25.77,432.29L27,431.95L28.23,431.54L29.46,431.02L30.68,430.44L31.91,429.81L33.14,429.27L34.37,428.8L35.59,428.3L36.82,427.79L38.05,427.19L39.28,426.62L40.5,426.04L41.73,425.53L42.96,425.14L44.19,424.75L45.41,424.28L46.64,423.83L47.87,423.39L49.09,422.92L50.32,422.5L51.55,422.15L52.78,421.86L54,421.49L55.23,421.08L56.46,420.7L57.69,420.24L58.91,419.85L60.14,419.54L61.37,419.25L62.6,418.99L63.82,418.63L65.05,418.29L66.28,417.95L67.51,417.65L68.73,417.44L69.96,417.17L71.19,416.84L72.41,416.59L73.64,416.29L74.87,416.07L76.1,415.84L77.32,415.67L78.55,415.47L79.78,415.27L81.01,415.09L82.23,414.9L83.46,414.71L84.69,414.58L85.92,414.46L87.14,414.35L88.37,414.21L89.6,414.08L90.82,413.95L92.05,413.85L93.28,413.77L94.51,413.7L95.73,413.56L96.96,413.47L98.19,413.38L99.42,413.3L100.64,413.22L101.87,413.15L103.1,413.11L104.33,413.03L105.55,412.96L106.78,412.9L108.01,412.84L109.24,412.77L110.46,412.72L111.69,412.69L112.92,412.65L114.14,412.6L115.37,412.54L116.6,412.49L117.83,412.45L119.05,412.42L120.28,412.4L121.51,412.37L122.74,412.34L123.96,412.32L125.19,412.27L126.42,412.24L127.65,412.22L128.87,412.2L130.1,412.17L131.33,412.15L132.56,412.11L133.78,412.1L135.01,412.06L136.24,412.03L137.46,412L138.69,411.98L139.92,411.95L141.15,411.92L142.37,411.93L143.6,411.91L144.83,411.88L146.06,411.86L147.28,411.85L148.51,411.8L149.74,411.77L150.97,411.74L152.19,411.73L153.42,411.71L154.65,411.7L155.88,411.68L157.1,411.67L158.33,411.65L159.56,411.62L160.78,411.6L162.01,411.58L163.24,411.56L164.47,411.55L165.69,411.53L166.92,411.51L168.15,411.48L169.38,411.47L170.6,411.44L171.83,411.43L173.06,411.41L174.29,411.4L175.51,411.38L176.74,411.35L177.97,411.33L179.2,411.31L180.42,411.29L181.65,411.28L182.88,411.25L184.1,411.22L185.33,411.2L186.56,411.17L187.79,411.15L189.01,411.13L190.24,411.11L191.47,411.08L192.7,411.05L193.92,411.01L195.15,410.98L196.38,410.96L197.61,410.94L198.83,410.92L200.06,410.89L201.29,410.85L202.52,410.79L203.74,410.76L204.97,410.71L206.2,410.69L207.42,410.65L208.65,410.6L209.88,410.55L211.11,410.5L212.33,410.44L213.56,410.39L214.79,410.36L216.02,410.32L217.24,410.26L218.47,410.18L219.7,410.09L220.93,409.98L222.15,409.86L223.38,409.77L224.61,409.69L225.84,409.55L227.06,409.42L228.29,409.28L229.52,409.14L230.74,409L231.97,408.91L233.2,408.81L234.43,408.68L235.65,408.55L236.88,408.38L238.11,408.22L239.34,408.09L240.56,407.98L241.79,407.85L243.02,407.71L244.25,407.55L245.47,407.4L246.7,407.25L247.93,407.11L249.15,407.01L250.38,406.89L251.61,406.75L252.84,406.6L254.06,406.41L255.29,406.26L256.52,406.1L257.75,405.97L258.97,405.84L260.2,405.68L261.43,405.5L262.66,405.32L263.88,405.14L265.11,404.97L266.34,404.82L267.57,404.66L268.79,404.48L270.02,404.24L271.25,403.99L272.47,403.72L273.7,403.47L274.93,403.25L276.16,402.99L277.38,402.63L278.61,402.2L279.84,401.68L281.07,401.13L282.29,400.6L283.52,400.15L284.75,399.58L285.98,398.87L287.2,398.01L288.43,397.04L289.66,395.99L290.89,394.85L292.11,393.95L293.34,392.89L294.57,391.42L295.79,389.86L297.02,388.01L298.25,386.1L299.48,384.04L300.7,382.39L301.93,380.26L303.16,377.84L304.39,375.24L305.61,372.23L306.84,369.15L308.07,366.25L309.3,364.09L310.52,361.36L311.75,358.4L312.98,355.05L314.21,351.39L315.43,347.53L316.66,344.37L317.89,341.92L319.11,338.52L320.34,335.32L321.57,331.64L322.8,327.68L324.02,324.07L325.25,320.78L326.48,318.13L327.71,315.01L328.93,311.68L330.16,308.18L331.39,304.57L332.62,301.2L333.84,298.45L335.07,296.23L336.3,293.98L337.53,291.47L338.75,288.66L339.98,285.92L341.21,283.36L342.43,281.36L343.66,279.78L344.89,277.9L346.12,275.89L347.34,273.64L348.57,271.31L349.8,269.27L351.03,267.44L352.25,266.11L353.48,264.67L354.71,263.44L355.94,261.79L357.16,259.97L358.39,258.04L359.62,256.31L360.85,255.14L362.07,253.7L363.3,252L364.53,250.23L365.75,248.74L366.98,247.16L368.21,245.7L369.44,244.64L370.66,243.35L371.89,242L373.12,240.26L374.35,238.41L375.57,237.4L376.8,236.54L378.03,235.7L379.26,234.62L380.48,233.05L381.71,230.77L382.94,228.62L384.16,227.47L385.39,226.09L386.62,225.05L387.85,223.56L389.07,221.59L390.3,219.8L391.53,218.1L392.76,216.17L393.98,214.36L395.21,213.15L396.44,211.77L397.67,210.24L398.89,208.57L400.12,207L401.35,205.42L402.58,204.21L403.8,203.35L405.03,202.33L406.26,201.02L407.48,199.66L408.71,198.33L409.94,197.04L411.17,195.91L412.39,195.09L413.62,194.06L414.85,192.59L416.08,191.2L417.3,189.88L418.53,188.65L419.76,187.56L420.99,186.79L422.21,185.85L423.44,184.58L424.67,183.25L425.9,181.88L427.12,180.57L428.35,179.45L429.58,178.67L430.8,177.64L432.03,176.39L433.26,174.92L434.49,173.58L435.71,172.27L436.94,171.19L438.17,170.48L439.4,169.48L440.62,168.31L441.85,166.97L443.08,165.48L444.31,164.03L445.53,162.73L446.76,161.79L447.99,160.51L449.22,158.92L450.44,156.99L451.67,155L452.9,153.17L454.12,151.48L455.35,150.21L456.58,148.56L457.81,146.54L459.03,144.32L460.26,142L461.49,139.71L462.72,137.7L463.94,136.35L465.17,134.44L466.4,132.28L467.63,129.8L468.85,127.2L470.08,124.68L471.31,122.61L472.54,121.13L473.76,119.16L474.99,116.92L476.22,114.51L477.44,112.02L478.67,109.7L479.9,107.76L481.13,105.38L482.35,103.57L483.58,101.51L484.81,99.2L486.04,96.88L487.26,94.58L488.49,92.68L489.72,91.43L490.95,89.87L492.17,87.69L493.4,85.4L494.63,83.27L495.86,81.22L497.08,79.47L498.31,78.43L499.54,77.68L500.76,76.36L501.99,74.69L503.22,72.85L504.45,71.15L505.67,69.63L506.9,68.68L508.13,67.38L509.36,65.81L510.58,64.17L511.81,62.62L513.04,61.13L514.27,59.9L515.49,59.05L516.72,57.88L517.95,56.53L519.18,54.98L520.4,53.55L521.63,52.21L522.86,50.94L524.08,50.12L525.31,49.11L526.54,47.81L527.77,46.42L528.99,45.12L530.22,43.87L531.45,42.98L532.68,42.4L533.9,41.52L535.13,40.49L536.36,39.35L537.59,38.33L538.81,37.34L540.04,36.54L541.27,36.05L542.49,35.37L543.72,34.61L544.95,33.83L546.18,33.1L547.4,32.45L548.63,31.9L549.86,31.56L551.09,31.13L552.31,30.6L553.54,30.04L554.77,29.53L556,29.08L557.22,28.69L558.45,28.45L559.68,28.14L560.91,27.76L562.13,27.35L563.36,26.99L564.59,26.67L565.81,26.38L567.04,26.21L568.27,25.97L569.5,25.68L570.72,25.49L571.95,25.25L573.18,25.01L574.41,24.79L575.63,24.67L576.86,24.48L578.09,24.27L579.32,24.07L580.54,23.89L581.77,23.72L583,23.58L584.23,23.5L585.45,23.37L586.68,23.24L587.91,23.11L589.13,23L590.36,22.88L591.59,22.8L592.82,22.75L594.04,22.67L595.27,22.56L596.5,22.53L597.73,22.46L598.95,22.38L600.18,22.31L601.41,22.27L602.64,22.2L603.86,22.13L605.09,22.04L606.32,21.96L607.55,21.87L608.77,21.8L610,21.75L610,418.41L608.77,418.3L607.55,418.21L606.32,418L605.09,417.85L603.86,417.75L602.64,417.52L601.41,417.34L600.18,417.11L598.95,417.05L597.73,416.81L596.5,416.62L595.27,416.01L594.04,415.59L592.82,415.21L591.59,414.16L590.36,414.03L589.13,413.75L587.91,413.12L586.68,412.8L585.45,412.42L584.23,407.39L583,407.15L581.77,406.95L580.54,406.68L579.32,406.3L578.09,405.76L576.86,405.11L575.63,404.47L574.41,404.1L573.18,403.81L571.95,403.35L570.72,402.83L569.5,402.4L568.27,400.89L567.04,400.13L565.81,399.69L564.59,399.34L563.36,398.93L562.13,398.27L560.91,397.62L559.68,396.85L558.45,396.06L557.22,395.62L556,395.37L554.77,394.6L553.54,393.88L552.31,393.19L551.09,392.37L549.86,391.66L548.63,391.09L547.4,390.72L546.18,390.07L544.95,389.47L543.72,388.87L542.49,387.79L541.27,386.86L540.04,385.89L538.81,385.3L537.59,384.6L536.36,384.11L535.13,383.72L533.9,383.09L532.68,382.18L531.45,381.49L530.22,381.54L528.99,381.01L527.77,380.8L526.54,380.43L525.31,379.94L524.08,379.53L522.86,378.74L521.63,378.74L520.4,378.37L519.18,377.76L517.95,377.46L516.72,376.81L515.49,375.81L514.27,374.76L513.04,374.72L511.81,374.61L510.58,374.33L509.36,373.92L508.13,373.52L506.9,373.06L505.67,372.27L504.45,372.29L503.22,372.01L501.99,371.3L500.76,371.01L499.54,370.31L498.31,368.96L497.08,369.09L495.86,369.52L494.63,369.52L493.4,369.74L492.17,370.02L490.95,369.9L489.72,369.65L488.49,368.99L487.26,369.15L486.04,369.68L484.81,370.09L483.58,370.29L482.35,370.4L481.13,370.22L479.9,369.42L478.67,370.05L477.44,370.96L476.22,371.87L474.99,372.73L473.76,373.06L472.54,373.66L471.31,373.61L470.08,374.72L468.85,375.79L467.63,376.99L466.4,378.02L465.17,378.85L463.94,379.5L462.72,379.5L461.49,380.2L460.26,381.14L459.03,382.14L457.81,383.05L456.58,383.7L455.35,384.38L454.12,384.59L452.9,385.62L451.67,386.36L450.44,387.21L449.22,387.89L447.99,388.06L446.76,388.1L445.53,388.03L444.31,388.47L443.08,388.7L441.85,388.54L440.62,388.15L439.4,387.72L438.17,387.32L436.94,386.89L435.71,387.05L434.49,387L433.26,386.76L432.03,386.3L430.8,385.96L429.58,385.46L428.35,384.77L427.12,384.79L425.9,384.63L424.67,384.55L423.44,384.16L422.21,383.91L420.99,383.01L419.76,382.42L418.53,381.54L417.3,381.14L416.08,380.53L414.85,380.25L413.62,379.87L412.39,379.03L411.17,378.33L409.94,378.4L408.71,378.13L407.48,376.77L406.26,376.15L405.03,375.04L403.8,373.98L402.58,373.4L401.35,373.02L400.12,373.03L398.89,372.75L397.67,372.48L396.44,372.02L395.21,371.5L393.98,371.16L392.76,371.88L391.53,372.17L390.3,372.16L389.07,372.43L387.85,372.44L386.62,372.38L385.39,371.85L384.16,371.8L382.94,372.06L381.71,372.58L380.48,373.16L379.26,372.8L378.03,372.24L376.8,371.64L375.57,371.75L374.35,371.88L373.12,370.59L371.89,370.14L370.66,369.5L369.44,368.82L368.21,367.97L366.98,368.26L365.75,367.57L364.53,366.91L363.3,365.97L362.07,364.33L360.85,363.27L359.62,362.26L358.39,362.42L357.16,361.95L355.94,361.42L354.71,360.15L353.48,357.58L352.25,356.55L351.03,355.97L349.8,356.14L348.57,355.86L347.34,355.72L346.12,355.69L344.89,353.94L343.66,353.19L342.43,352.55L341.21,353.23L339.98,353.43L338.75,352.74L337.53,353.23L336.3,352.65L335.07,352.88L333.84,352.06L332.62,353.49L331.39,354.97L330.16,356.54L328.93,358.4L327.71,359.38L326.48,361L325.25,361.56L324.02,363.95L322.8,366.37L321.57,369.23L320.34,371.39L319.11,373.7L317.89,375.39L316.66,376.84L315.43,379.41L314.21,382.69L312.98,385.32L311.75,388.19L310.52,390.65L309.3,392.78L308.07,394.59L306.84,397.2L305.61,399.71L304.39,402.31L303.16,404.53L301.93,406.62L300.7,408.43L299.48,409.84L298.25,411.7L297.02,413.38L295.79,415.01L294.57,416.36L293.34,417.61L292.11,418.46L290.89,419.22L289.66,420.13L288.43,421.07L287.2,421.85L285.98,422.52L284.75,423.04L283.52,423.47L282.29,423.83L281.07,424.24L279.84,424.7L278.61,425.11L277.38,425.44L276.16,425.68L274.93,425.8L273.7,425.95L272.47,426.13L271.25,426.28L270.02,426.42L268.79,426.55L267.57,426.62L266.34,426.65L265.11,426.72L263.88,426.82L262.66,426.91L261.43,427L260.2,427.06L258.97,427.13L257.75,427.17L256.52,427.27L255.29,427.36L254.06,427.43L252.84,427.53L251.61,427.62L250.38,427.7L249.15,427.75L247.93,427.82L246.7,427.91L245.47,427.99L244.25,428.09L243.02,428.19L241.79,428.28L240.56,428.36L239.34,428.45L238.11,428.53L236.88,428.64L235.65,428.76L234.43,428.86L233.2,428.97L231.97,429.03L230.74,429.12L229.52,429.22L228.29,429.33L227.06,429.44L225.84,429.55L224.61,429.65L223.38,429.7L222.15,429.78L220.93,429.87L219.7,429.95L218.47,430.02L217.24,430.08L216.02,430.11L214.79,430.13L213.56,430.14L212.33,430.17L211.11,430.2L209.88,430.22L208.65,430.25L207.42,430.27L206.2,430.29L204.97,430.3L203.74,430.33L202.52,430.34L201.29,430.36L200.06,430.36L198.83,430.38L197.61,430.38L196.38,430.39L195.15,430.39L193.92,430.39L192.7,430.41L191.47,430.37L190.24,430.37L189.01,430.38L187.79,430.38L186.56,430.39L185.33,430.41L184.1,430.4L182.88,430.41L181.65,430.41L180.42,430.4L179.2,430.4L177.97,430.4L176.74,430.4L175.51,430.4L174.29,430.4L173.06,430.36L171.83,430.34L170.6,430.33L169.38,430.32L168.15,430.31L166.92,430.31L165.69,430.3L164.47,430.24L163.24,430.19L162.01,430.2L160.78,430.2L159.56,430.18L158.33,430.17L157.1,430.15L155.88,430.12L154.65,430.03L153.42,430.02L152.19,430L150.97,429.93L149.74,429.87L148.51,429.83L147.28,429.74L146.06,429.64L144.83,429.61L143.6,429.59L142.37,429.56L141.15,429.42L139.92,429.34L138.69,429.28L137.46,429.16L136.24,429.12L135.01,429.01L133.78,428.87L132.56,428.72L131.33,428.62L130.1,428.51L128.87,428.34L127.65,428.3L126.42,428.24L125.19,428.14L123.96,428.01L122.74,427.93L121.51,427.88L120.28,427.75L119.05,427.68L117.83,427.53L116.6,427.3L115.37,427.14L114.14,426.85L112.92,426.67L111.69,426.45L110.46,426.34L109.24,426.23L108.01,426.09L106.78,425.94L105.55,425.78L104.33,425.57L103.1,425.45L101.87,425.28L100.64,425.12L99.42,424.95L98.19,424.55L96.96,424.38L95.73,424.13L94.51,424.03L93.28,423.96L92.05,423.83L90.82,423.55L89.6,423.41L88.37,423.25L87.14,422.62L85.92,422.49L84.69,422.49L83.46,422.46L82.23,422.48L81.01,422.45L79.78,422.17L78.55,422.15L77.32,422.13L76.1,422.13L74.87,422.18L73.64,422.16L72.41,422.17L71.19,422.13L69.96,422.17L68.73,422.17L67.51,422.21L66.28,422.3L65.05,422.43L63.82,422.52L62.6,422.68L61.37,422.85L60.14,422.97L58.91,423.16L57.69,423.4L56.46,423.65L55.23,423.84L54,424.05L52.78,424.22L51.55,424.37L50.32,424.62L49.09,424.96L47.87,425.3L46.64,425.6L45.41,425.92L44.19,426.27L42.96,426.56L41.73,426.79L40.5,427.24L39.28,427.68L38.05,428.2L36.82,428.7L35.59,429.1L34.37,429.52L33.14,429.95L31.91,430.4L30.68,430.94L29.46,431.45L28.23,431.93L27,432.23L25.77,432.55L24.55,432.83L23.32,433.14L22.09,433.43L20.87,433.66L19.64,433.89L18.41,434.11L17.18,434.18L15.96,434.35L14.73,434.49L13.5,434.6L12.27,434.67L11.05,434.73L9.82,434.77L8.59,434.82L7.36,434.84L6.14,434.9L4.91,434.92L3.68,434.94L2.45,434.96L1.23,434.97L0,434.98Z" style="fill: rgb(34, 139, 34); fill-opacity: 1; stroke-width: 0;"/></g></g><g class="errorbars"/><g class="lines"/><g class="points"/><g class="text"/></g><g class="trace scatter trace12bb1c" style="stroke-miterlimit: 2;"><g class="fills"/><g class="errorbars"/><g class="lines"/><g class="points"/><g class="text"/></g></g></g><g class="overplot"/><path class="xlines-above crisp" style="fill: none;" d="M0,0"/><path class="ylines-above crisp" style="fill: none;" d="M0,0"/><g class="overlines-above"/><g class="xaxislayer-above"><g class="xtick"><text text-anchor="middle" x="0" y="473" transform="translate(67.36,0)" style="font-family: 'Open Sans', verdana, arial, sans-serif; font-size: 12px; fill: rgb(68, 68, 68); fill-opacity: 1; white-space: pre;">Mar 2020</text></g><g class="xtick"><text text-anchor="middle" x="0" y="473" transform="translate(142.23000000000002,0)" style="font-family: 'Open Sans', verdana, arial, sans-serif; font-size: 12px; fill: rgb(68, 68, 68); fill-opacity: 1; white-space: pre;">May 2020</text></g><g class="xtick"><text text-anchor="middle" x="0" y="473" transform="translate(217.1,0)" style="font-family: 'Open Sans', verdana, arial, sans-serif; font-size: 12px; fill: rgb(68, 68, 68); fill-opacity: 1; white-space: pre;">Jul 2020</text></g><g class="xtick"><text text-anchor="middle" x="0" y="473" transform="translate(293.2,0)" style="font-family: 'Open Sans', verdana, arial, sans-serif; font-size: 12px; fill: rgb(68, 68, 68); fill-opacity: 1; white-space: pre;">Sep 2020</text></g><g class="xtick"><text text-anchor="middle" x="0" y="473" transform="translate(368.07,0)" style="font-family: 'Open Sans', verdana, arial, sans-serif; font-size: 12px; fill: rgb(68, 68, 68); fill-opacity: 1; white-space: pre;">Nov 2020</text></g><g class="xtick"><text text-anchor="middle" x="0" y="473" transform="translate(442.94,0)" style="font-family: 'Open Sans', verdana, arial, sans-serif; font-size: 12px; fill: rgb(68, 68, 68); fill-opacity: 1; white-space: pre;">Jan 2021</text></g><g class="xtick"><text text-anchor="middle" x="0" y="473" transform="translate(515.35,0)" style="font-family: 'Open Sans', verdana, arial, sans-serif; font-size: 12px; fill: rgb(68, 68, 68); fill-opacity: 1; white-space: pre;">Mar 2021</text></g><g class="xtick"><text text-anchor="middle" x="0" y="473" transform="translate(590.22,0)" style="font-family: 'Open Sans', verdana, arial, sans-serif; font-size: 12px; fill: rgb(68, 68, 68); fill-opacity: 1; white-space: pre;">May 2021</text></g><g class="xtick"><text text-anchor="middle" x="0" y="473" transform="translate(665.09,0)" style="font-family: 'Open Sans', verdana, arial, sans-serif; font-size: 12px; fill: rgb(68, 68, 68); fill-opacity: 1; white-space: pre;">Jul 2021</text></g></g><g class="yaxislayer-above"><g class="ytick"><text text-anchor="end" x="59" y="4.199999999999999" transform="translate(0,460)" style="font-family: 'Open Sans', verdana, arial, sans-serif; font-size: 12px; fill: rgb(68, 68, 68); fill-opacity: 1; white-space: pre;">0</text></g><g class="ytick"><text text-anchor="end" x="59" y="4.199999999999999" transform="translate(0,411.54)" style="font-family: 'Open Sans', verdana, arial, sans-serif; font-size: 12px; fill: rgb(68, 68, 68); fill-opacity: 1; white-space: pre;">0.5M</text></g><g class="ytick"><text text-anchor="end" x="59" y="4.199999999999999" transform="translate(0,363.08)" style="font-family: 'Open Sans', verdana, arial, sans-serif; font-size: 12px; fill: rgb(68, 68, 68); fill-opacity: 1; white-space: pre;">1M</text></g><g class="ytick"><text text-anchor="end" x="59" y="4.199999999999999" transform="translate(0,314.62)" style="font-family: 'Open Sans', verdana, arial, sans-serif; font-size: 12px; fill: rgb(68, 68, 68); fill-opacity: 1; white-space: pre;">1.5M</text></g><g class="ytick"><text text-anchor="end" x="59" y="4.199999999999999" transform="translate(0,266.15999999999997)" style="font-family: 'Open Sans', verdana, arial, sans-serif; font-size: 12px; fill: rgb(68, 68, 68); fill-opacity: 1; white-space: pre;">2M</text></g><g class="ytick"><text text-anchor="end" x="59" y="4.199999999999999" transform="translate(0,217.7)" style="font-family: 'Open Sans', verdana, arial, sans-serif; font-size: 12px; fill: rgb(68, 68, 68); fill-opacity: 1; white-space: pre;">2.5M</text></g><g class="ytick"><text text-anchor="end" x="59" y="4.199999999999999" transform="translate(0,169.24)" style="font-family: 'Open Sans', verdana, arial, sans-serif; font-size: 12px; fill: rgb(68, 68, 68); fill-opacity: 1; white-space: pre;">3M</text></g><g class="ytick"><text text-anchor="end" x="59" y="4.199999999999999" transform="translate(0,120.78)" style="font-family: 'Open Sans', verdana, arial, sans-serif; font-size: 12px; fill: rgb(68, 68, 68); fill-opacity: 1; white-space: pre;">3.5M</text></g><g class="ytick"><text text-anchor="end" x="59" y="4.199999999999999" transform="translate(0,72.32)" style="font-family: 'Open Sans', verdana, arial, sans-serif; font-size: 12px; fill: rgb(68, 68, 68); fill-opacity: 1; white-space: pre;">4M</text></g></g><g class="overaxes-above"/></g></g><g class="polarlayer"/><g class="ternarylayer"/><g class="geolayer"/><g class="funnelarealayer"/><g class="pielayer"/><g class="treemaplayer"/><g class="sunburstlayer"/><g class="glimages"/><defs id="topdefs-6113cd"><g class="clips"/><clipPath id="legend6113cd"><rect width="109" height="67" x="0" y="0"/></clipPath></defs><g class="layer-above"><g class="imagelayer"/><g class="shapelayer"/></g><g class="infolayer"><g class="legend" pointer-events="all" transform="translate(121, 68.5)"><rect class="bg" shape-rendering="crispEdges" style="stroke: rgb(68, 68, 68); stroke-opacity: 1; fill: rgb(255, 255, 255); fill-opacity: 1; stroke-width: 0px;" width="109" height="67" x="0" y="0"/><g class="scrollbox" transform="translate(0, 0)" clip-path="url('#legend6113cd')"><g class="groups"><g class="traces" style="opacity: 1;" transform="translate(0, 14.5)"><text class="legendtext" text-anchor="start" x="40" y="4.680000000000001" style="font-family: 'Open Sans', verdana, arial, sans-serif; font-size: 12px; fill: rgb(68, 68, 68); fill-opacity: 1; white-space: pre;">Recovered</text><g class="layers"><g class="legendfill"><path class="js-fill" d="M5,-3h30v6h-30z" style="stroke-width: 0; fill: rgb(34, 139, 34); fill-opacity: 1;"/></g><g class="legendlines"/><g class="legendsymbols"><g class="legendpoints"/></g></g><rect class="legendtoggle" x="0" y="-9.5" width="103.03125" height="19" style="fill: rgb(0, 0, 0); fill-opacity: 0;"/></g><g class="traces" style="opacity: 1;" transform="translate(0, 33.5)"><text class="legendtext" text-anchor="start" x="40" y="4.680000000000001" style="font-family: 'Open Sans', verdana, arial, sans-serif; font-size: 12px; fill: rgb(68, 68, 68); fill-opacity: 1; white-space: pre;">Death</text><g class="layers"><g class="legendfill"><path class="js-fill" d="M5,-3h30v6h-30z" style="stroke-width: 0; fill: rgb(228, 19, 23); fill-opacity: 1;"/></g><g class="legendlines"/><g class="legendsymbols"><g class="legendpoints"/></g></g><rect class="legendtoggle" x="0" y="-9.5" width="103.03125" height="19" style="fill: rgb(0, 0, 0); fill-opacity: 0;"/></g><g class="traces" style="opacity: 1;" transform="translate(0, 52.5)"><text class="legendtext" text-anchor="start" x="40" y="4.680000000000001" style="font-family: 'Open Sans', verdana, arial, sans-serif; font-size: 12px; fill: rgb(68, 68, 68); fill-opacity: 1; white-space: pre;">Active</text><g class="layers"><g class="legendfill"><path class="js-fill" d="M5,-3h30v6h-30z" style="stroke-width: 0; fill: rgb(31, 119, 180); fill-opacity: 1;"/></g><g class="legendlines"/><g class="legendsymbols"><g class="legendpoints"/></g></g><rect class="legendtoggle" x="0" y="-9.5" width="103.03125" height="19" style="fill: rgb(0, 0, 0); fill-opacity: 0;"/></g></g></g><rect class="scrollbar" rx="20" ry="3" width="0" height="0" style="fill: rgb(128, 139, 164); fill-opacity: 1;" x="0" y="0"/></g><g class="g-gtitle"><text class="gtitle" x="350" y="12.5" text-anchor="middle" dy="0em" style="font-family: 'Open Sans', verdana, arial, sans-serif; font-size: 17px; fill: rgb(68, 68, 68); opacity: 1; font-weight: normal; white-space: pre;">Italy - Distribution of Covid19 Cases</text></g><g class="g-xtitle" transform="translate(0,-15)"><text class="xtitle" x="365" y="512" text-anchor="middle" style="font-family: 'Open Sans', verdana, arial, sans-serif; font-size: 14px; fill: rgb(68, 68, 68); opacity: 1; font-weight: normal; white-space: pre;">Source: Italy Department of Civil Protection</text></g><g class="g-ytitle"><text class="ytitle" transform="rotate(-90,22,242.5)" x="22" y="242.5" text-anchor="middle" style="font-family: 'Open Sans', verdana, arial, sans-serif; font-size: 14px; fill: rgb(68, 68, 68); opacity: 1; font-weight: normal; white-space: pre;">Number of Cases</text></g></g></svg>