<svg class="main-svg" xmlns="http://www.w3.org/2000/svg" xmlns:xlink="http://www.w3.org/1999/xlink" width="700" height="500" style="" viewBox="0 0 700 500"><rect x="0" y="0" width="700" height="500" style="fill: rgb(255, 255, 255); fill-opacity: 1;"/><defs id="defs-565b44"><g class="clips"><clipPath id="clip565b44xyplot" class="plotclip"><rect width="607" height="435"/></clipPath><clipPath class="axesclip" id="clip565b44x"><rect x="60" y="0" width="607" height="500"/></clipPath><clipPath class="axesclip" id="clip565b44y"><rect x="0" y="25" width="700" height="435"/></clipPath><clipPath class="axesclip" id="clip565b44xy"><rect x="60" y="25" width="607" height="435"/></clipPath></g><g class="gradients"/></defs><g class="bglayer"/><g class="layer-below"><g class="imagelayer"/><g class="shapelayer"/></g><g class="cartesianlayer"><g class="subplot xy"><g class="layer-subplot"><g class="shapelayer"/><g class="imagelayer"/></g><g class="gridlayer"><g class="x"><path class="xgrid crisp" transform="translate(67.36,0)" d="M0,25v435" style="stroke: rgb(238, 238, 238); stroke-opacity: 1; stroke-width: 1px;"/><path class="xgrid crisp" transform="translate(142.16,0)" d="M0,25v435" style="stroke: rgb(238, 238, 238); stroke-opacity: 1; stroke-width: 1px;"/><path class="xgrid crisp" transform="translate(216.96,0)" d="M0,25v435" style="stroke: rgb(238, 238, 238); stroke-opacity: 1; stroke-width: 1px;"/><path class="xgrid crisp" transform="translate(292.99,0)" d="M0,25v435" style="stroke: rgb(238, 238, 238); stroke-opacity: 1; stroke-width: 1px;"/><path class="xgrid crisp" transform="translate(367.79,0)" d="M0,25v435" style="stroke: rgb(238, 238, 238); stroke-opacity: 1; stroke-width: 1px;"/><path class="xgrid crisp" transform="translate(442.59,0)" d="M0,25v435" style="stroke: rgb(238, 238, 238); stroke-opacity: 1; stroke-width: 1px;"/><path class="xgrid crisp" transform="translate(514.94,0)" d="M0,25v435" style="stroke: rgb(238, 238, 238); stroke-opacity: 1; stroke-width: 1px;"/><path class="xgrid crisp" transform="translate(589.75,0)" d="M0,25v435" style="stroke: rgb(238, 238, 238); stroke-opacity: 1; stroke-width: 1px;"/><path class="xgrid crisp" transform="translate(664.55,0)" d="M0,25v435" style="stroke: rgb(238, 238, 238); stroke-opacity: 1; stroke-width: 1px;"/></g><g class="y"><path class="ygrid crisp" transform="translate(0,411.53)" d="M60,0h607" style="stroke: rgb(238, 238, 238); stroke-opacity: 1; stroke-width: 1px;"/><path class="ygrid crisp" transform="translate(0,363.05)" d="M60,0h607" style="stroke: rgb(238, 238, 238); stroke-opacity: 1; stroke-width: 1px;"/><path class="ygrid crisp" transform="translate(0,314.58)" d="M60,0h607" style="stroke: rgb(238, 238, 238); stroke-opacity: 1; stroke-width: 1px;"/><path class="ygrid crisp" transform="translate(0,266.1)" d="M60,0h607" style="stroke: rgb(238, 238, 238); stroke-opacity: 1; stroke-width: 1px;"/><path class="ygrid crisp" transform="translate(0,217.63)" d="M60,0h607" style="stroke: rgb(238, 238, 238); stroke-opacity: 1; stroke-width: 1px;"/><path class="ygrid crisp" transform="translate(0,169.15)" d="M60,0h607" style="stroke: rgb(238, 238, 238); stroke-opacity: 1; stroke-width: 1px;"/><path class="ygrid crisp" transform="translate(0,120.68)" d="M60,0h607" style="stroke: rgb(238, 238, 238); stroke-opacity: 1; stroke-width: 1px;"/><path class="ygrid crisp" transform="translate(0,72.2)" d="M60,0h607" style="stroke: rgb(238, 238, 238); stroke-opacity: 1; stroke-width: 1px;"/></g></g><g class="zerolinelayer"><path class="yzl zl crisp" transform="translate(0,460)" d="M60,0h607" style="stroke: rgb(68, 68, 68); stroke-opacity: 1; stroke-width: 1px;"/></g><path class="xlines-below"/><path class="ylines-below"/><g class="overlines-below"/><g class="xaxislayer-below"/><g class="yaxislayer-below"/><g class="overaxes-below"/><g class="plot" transform="translate(60, 25)" clip-path="url('#clip565b44xyplot')"><g class="scatterlayer mlayer"><g class="trace scatter trace1fe264" style="stroke-miterlimit: 2;"><g class="fills"><g><path class="js-fill" d="M607,435L0,435L0,434.98L1.23,434.97L2.45,434.96L3.68,434.94L4.91,434.92L6.13,434.9L7.36,434.85L8.58,434.82L9.81,434.78L11.04,434.74L12.26,434.68L13.49,434.62L14.72,434.51L15.94,434.38L17.17,434.23L18.39,434.17L19.62,433.97L20.85,433.76L22.07,433.55L23.3,433.28L24.53,433L25.75,432.76L26.98,432.47L28.2,432.22L29.43,431.78L30.66,431.33L31.88,430.86L33.11,430.48L34.34,430.11L35.56,429.76L36.79,429.42L38.01,428.99L39.24,428.56L40.47,428.21L41.69,427.84L42.92,427.68L44.15,427.47L45.37,427.19L46.6,426.95L47.82,426.72L49.05,426.44L50.28,426.15L51.5,425.97L52.73,425.88L53.96,425.76L55.18,425.61L56.41,425.47L57.63,425.28L58.86,425.09L60.09,424.95L61.31,424.89L62.54,424.78L63.77,424.66L64.99,424.63L66.22,424.55L67.44,424.5L68.67,424.51L69.9,424.56L71.12,424.56L72.35,424.64L73.58,424.67L74.8,424.74L76.03,424.71L77.25,424.74L78.48,424.8L79.71,424.85L80.93,425.15L82.16,425.21L83.39,425.24L84.61,425.29L85.84,425.31L87.06,425.45L88.29,426.13L89.52,426.31L90.74,426.47L91.97,426.77L93.2,426.92L94.42,427L95.65,427.12L96.87,427.39L98.1,427.59L99.33,428.01L100.55,428.2L101.78,428.37L103.01,428.55L104.23,428.69L105.46,428.92L106.68,429.09L107.91,429.25L109.14,429.4L110.36,429.51L111.59,429.64L112.82,429.87L114.04,430.06L115.27,430.35L116.49,430.52L117.72,430.76L118.95,430.92L120.17,430.99L121.4,431.13L122.63,431.19L123.85,431.27L125.08,431.42L126.31,431.52L127.53,431.58L128.76,431.63L129.98,431.81L131.21,431.93L132.44,432.03L133.66,432.19L134.89,432.34L136.12,432.45L137.34,432.49L138.57,432.62L139.79,432.68L141.02,432.76L142.25,432.91L143.47,432.94L144.7,432.97L145.93,433L147.15,433.1L148.38,433.19L149.6,433.23L150.83,433.29L152.06,433.37L153.28,433.38L154.51,433.4L155.74,433.49L156.96,433.52L158.19,433.54L159.41,433.56L160.64,433.58L161.87,433.58L163.09,433.57L164.32,433.62L165.55,433.68L166.77,433.7L168,433.7L169.22,433.71L170.45,433.72L171.68,433.72L172.9,433.75L174.13,433.79L175.36,433.79L176.58,433.79L177.81,433.8L179.03,433.79L180.26,433.8L181.49,433.81L182.71,433.81L183.94,433.8L185.17,433.81L186.39,433.79L187.62,433.78L188.84,433.78L190.07,433.78L191.3,433.78L192.52,433.81L193.75,433.8L194.98,433.79L196.2,433.79L197.43,433.79L198.65,433.79L199.88,433.77L201.11,433.77L202.33,433.75L203.56,433.74L204.79,433.71L206.01,433.7L207.24,433.69L208.46,433.66L209.69,433.63L210.92,433.62L212.14,433.6L213.37,433.57L214.6,433.56L215.82,433.54L217.05,433.51L218.27,433.45L219.5,433.38L220.73,433.3L221.95,433.21L223.18,433.14L224.41,433.09L225.63,432.99L226.86,432.87L228.08,432.77L229.31,432.66L230.54,432.56L231.76,432.47L232.99,432.41L234.22,432.3L235.44,432.2L236.67,432.08L237.89,431.98L239.12,431.89L240.35,431.8L241.57,431.72L242.8,431.63L244.03,431.54L245.25,431.44L246.48,431.36L247.71,431.27L248.93,431.2L250.16,431.15L251.38,431.07L252.61,430.99L253.84,430.88L255.06,430.82L256.29,430.72L257.52,430.63L258.74,430.59L259.97,430.53L261.19,430.46L262.42,430.37L263.65,430.29L264.87,430.19L266.1,430.12L267.33,430.09L268.55,430.03L269.78,429.9L271,429.76L272.23,429.61L273.46,429.43L274.68,429.29L275.91,429.17L277.14,428.93L278.36,428.61L279.59,428.2L280.81,427.75L282.04,427.33L283.27,426.98L284.49,426.55L285.72,426.04L286.95,425.38L288.17,424.6L289.4,423.66L290.62,422.76L291.85,422.01L293.08,421.16L294.3,419.93L295.53,418.59L296.76,416.97L297.98,415.3L299.21,413.45L300.43,412.05L301.66,410.27L302.89,408.2L304.11,405.99L305.34,403.42L306.57,400.93L307.79,398.34L309.02,396.56L310.24,394.46L311.47,392.03L312.7,389.21L313.92,386.61L315.15,383.37L316.38,380.84L317.6,379.42L318.83,377.79L320.05,375.54L321.28,373.43L322.51,370.63L323.73,368.26L324.96,365.92L326.19,365.41L327.41,363.86L328.64,362.95L329.86,361.16L331.09,359.65L332.32,358.24L333.54,356.86L334.77,357.75L336,357.6L337.22,358.25L338.45,357.84L339.67,358.61L340.9,358.48L342.13,357.85L343.35,358.56L344.58,359.38L345.81,361.2L347.03,361.32L348.26,361.54L349.48,361.88L350.71,361.77L351.94,362.4L353.16,363.5L354.39,366.12L355.62,367.47L356.84,368.07L358.07,368.6L359.29,368.49L360.52,369.55L361.75,370.69L362.97,372.4L364.2,373.4L365.43,374.14L366.65,374.87L367.88,374.62L369.11,375.51L370.33,376.25L371.56,376.94L372.78,377.45L374.01,378.78L375.24,378.68L376.46,378.6L377.69,379.23L378.92,379.86L380.14,380.28L381.37,379.75L382.59,379.28L383.82,379.05L385.05,379.14L386.27,379.69L387.5,379.82L388.73,379.86L389.95,379.64L391.18,379.7L392.4,379.46L393.63,378.78L394.86,379.16L396.08,379.73L397.31,380.25L398.54,380.57L399.76,380.9L400.99,380.93L402.21,381.35L403.44,381.96L404.67,383.08L405.89,384.24L407.12,384.92L408.35,386.33L409.57,386.64L410.8,386.6L412.02,387.34L413.25,388.23L414.48,388.66L415.7,388.99L416.93,389.64L418.16,390.08L419.38,390.99L420.61,391.61L421.83,392.56L423.06,392.85L424.29,393.28L425.51,393.4L426.74,393.6L427.97,393.6L429.19,394.32L430.42,394.87L431.64,395.24L432.87,395.73L434.1,396.01L435.32,396.08L436.55,395.95L437.78,396.4L439,396.83L440.23,397.3L441.45,397.72L442.68,397.92L443.91,397.71L445.13,397.3L446.36,397.39L447.59,397.39L448.81,397.24L450.04,396.59L451.26,395.77L452.49,395.06L453.72,394.05L454.94,393.86L456.17,393.21L457.4,392.59L458.62,391.72L459.85,390.75L461.07,389.84L462.3,389.16L463.53,389.19L464.75,388.57L465.98,387.78L467.21,386.78L468.43,385.62L469.66,384.58L470.88,383.49L472.11,383.58L473.34,383.02L474.56,382.74L475.79,381.92L477.02,381.04L478.24,380.18L479.47,379.58L480.69,380.41L481.92,380.64L483.15,380.58L484.37,380.42L485.6,380.06L486.83,379.56L488.05,379.43L489.28,380.13L490.51,380.44L491.73,380.61L492.96,380.37L494.18,380.19L495.41,380.24L496.64,379.83L497.86,379.73L499.09,381.12L500.32,381.89L501.54,382.23L502.77,383L503.99,383.32L505.22,383.33L506.45,384.16L507.67,384.66L508.9,385.1L510.13,385.55L511.35,385.87L512.58,386.01L513.8,386.08L515.03,387.16L516.26,388.2L517.48,388.89L518.71,389.22L519.94,389.87L521.16,390.26L522.39,390.29L523.61,391.1L524.84,391.55L526.07,392.07L527.29,392.47L528.52,392.7L529.75,393.26L530.97,393.22L532.2,393.94L533.42,394.87L534.65,395.53L535.88,395.95L537.1,396.46L538.33,397.18L539.56,397.79L540.78,398.77L542.01,399.72L543.23,400.83L544.46,401.45L545.69,402.08L546.91,402.73L548.14,403.11L549.37,403.7L550.59,404.43L551.82,405.26L553.04,405.96L554.27,406.71L555.5,407.49L556.72,407.75L557.95,408.2L559.18,409L560.4,409.79L561.63,410.45L562.85,411.12L564.08,411.54L565.31,411.9L566.53,412.35L567.76,413.11L568.99,414.64L570.21,415.07L571.44,415.59L572.66,416.06L573.89,416.36L575.12,416.73L576.34,417.38L577.57,418.04L578.8,418.59L580.02,418.98L581.25,419.25L582.47,419.46L583.7,419.7L584.93,424.73L586.15,425.13L587.38,425.44L588.61,426.07L589.83,426.36L591.06,426.5L592.28,427.55L593.51,427.93L594.74,428.35L595.96,428.96L597.19,429.16L598.42,429.4L599.64,429.46L600.87,429.7L602.09,429.88L603.32,430.11L604.55,430.21L605.77,430.37L607,430.58" style="fill: rgb(31, 119, 180); fill-opacity: 1; stroke-width: 0;"/></g><g><path class="js-fill" d="M0,434.98L1.23,434.97L2.45,434.96L3.68,434.94L4.91,434.92L6.13,434.9L7.36,434.84L8.58,434.82L9.81,434.77L11.04,434.73L12.26,434.67L13.49,434.6L14.72,434.49L15.94,434.35L17.17,434.18L18.39,434.11L19.62,433.89L20.85,433.66L22.07,433.43L23.3,433.14L24.53,432.83L25.75,432.55L26.98,432.23L28.2,431.93L29.43,431.45L30.66,430.94L31.88,430.39L33.11,429.95L34.34,429.52L35.56,429.1L36.79,428.7L38.01,428.2L39.24,427.68L40.47,427.24L41.69,426.79L42.92,426.55L44.15,426.27L45.37,425.91L46.6,425.6L47.82,425.3L49.05,424.95L50.28,424.61L51.5,424.36L52.73,424.22L53.96,424.05L55.18,423.84L56.41,423.65L57.63,423.39L58.86,423.16L60.09,422.97L61.31,422.85L62.54,422.68L63.77,422.52L64.99,422.42L66.22,422.3L67.44,422.21L68.67,422.17L69.9,422.17L71.12,422.13L72.35,422.16L73.58,422.15L74.8,422.18L76.03,422.13L77.25,422.13L78.48,422.15L79.71,422.17L80.93,422.44L82.16,422.48L83.39,422.45L84.61,422.49L85.84,422.49L87.06,422.61L88.29,423.25L89.52,423.41L90.74,423.54L91.97,423.83L93.2,423.96L94.42,424.02L95.65,424.12L96.87,424.38L98.1,424.55L99.33,424.95L100.55,425.12L101.78,425.28L103.01,425.44L104.23,425.57L105.46,425.78L106.68,425.94L107.91,426.09L109.14,426.23L110.36,426.33L111.59,426.45L112.82,426.67L114.04,426.85L115.27,427.13L116.49,427.3L117.72,427.53L118.95,427.68L120.17,427.74L121.4,427.88L122.63,427.93L123.85,428.01L125.08,428.14L126.31,428.24L127.53,428.29L128.76,428.34L129.98,428.51L131.21,428.62L132.44,428.72L133.66,428.87L134.89,429.01L136.12,429.12L137.34,429.16L138.57,429.28L139.79,429.34L141.02,429.41L142.25,429.56L143.47,429.59L144.7,429.61L145.93,429.64L147.15,429.74L148.38,429.83L149.6,429.86L150.83,429.93L152.06,430L153.28,430.01L154.51,430.03L155.74,430.12L156.96,430.15L158.19,430.16L159.41,430.18L160.64,430.2L161.87,430.2L163.09,430.19L164.32,430.24L165.55,430.3L166.77,430.31L168,430.31L169.22,430.32L170.45,430.33L171.68,430.33L172.9,430.36L174.13,430.4L175.36,430.4L176.58,430.4L177.81,430.4L179.03,430.4L180.26,430.4L181.49,430.41L182.71,430.4L183.94,430.4L185.17,430.4L186.39,430.39L187.62,430.38L188.84,430.38L190.07,430.37L191.3,430.37L192.52,430.41L193.75,430.39L194.98,430.38L196.2,430.38L197.43,430.38L198.65,430.38L199.88,430.36L201.11,430.36L202.33,430.34L203.56,430.33L204.79,430.3L206.01,430.29L207.24,430.27L208.46,430.25L209.69,430.22L210.92,430.2L212.14,430.17L213.37,430.14L214.6,430.13L215.82,430.1L217.05,430.08L218.27,430.01L219.5,429.95L220.73,429.87L221.95,429.78L223.18,429.7L224.41,429.65L225.63,429.55L226.86,429.44L228.08,429.33L229.31,429.22L230.54,429.12L231.76,429.03L232.99,428.97L234.22,428.86L235.44,428.75L236.67,428.64L237.89,428.53L239.12,428.44L240.35,428.35L241.57,428.28L242.8,428.18L244.03,428.09L245.25,427.98L246.48,427.91L247.71,427.81L248.93,427.75L250.16,427.7L251.38,427.61L252.61,427.53L253.84,427.43L255.06,427.36L256.29,427.26L257.52,427.17L258.74,427.13L259.97,427.06L261.19,427L262.42,426.9L263.65,426.82L264.87,426.72L266.1,426.65L267.33,426.61L268.55,426.55L269.78,426.41L271,426.28L272.23,426.13L273.46,425.94L274.68,425.8L275.91,425.68L277.14,425.44L278.36,425.11L279.59,424.7L280.81,424.24L282.04,423.83L283.27,423.47L284.49,423.03L285.72,422.52L286.95,421.85L288.17,421.06L289.4,420.13L290.62,419.22L291.85,418.46L293.08,417.6L294.3,416.36L295.53,415L296.76,413.37L297.98,411.69L299.21,409.83L300.43,408.42L301.66,406.61L302.89,404.52L304.11,402.3L305.34,399.7L306.57,397.19L307.79,394.58L309.02,392.77L310.24,390.64L311.47,388.17L312.7,385.31L313.92,382.67L315.15,379.39L316.38,376.83L317.6,375.37L318.83,373.69L320.05,371.37L321.28,369.21L322.51,366.35L323.73,363.92L324.96,361.54L326.19,360.98L327.41,359.35L328.64,358.37L329.86,356.52L331.09,354.94L332.32,353.46L333.54,352.03L334.77,352.85L336,352.62L337.22,353.2L338.45,352.72L339.67,353.41L340.9,353.21L342.13,352.53L343.35,353.17L344.58,353.92L345.81,355.67L347.03,355.69L348.26,355.84L349.48,356.11L350.71,355.95L351.94,356.53L353.16,357.56L354.39,360.13L355.62,361.4L356.84,361.93L358.07,362.4L359.29,362.23L360.52,363.25L361.75,364.31L362.97,365.95L364.2,366.89L365.43,367.55L366.65,368.24L367.88,367.95L369.11,368.8L370.33,369.48L371.56,370.12L372.78,370.57L374.01,371.86L375.24,371.73L376.46,371.63L377.69,372.22L378.92,372.78L380.14,373.15L381.37,372.56L382.59,372.04L383.82,371.78L385.05,371.83L386.27,372.36L387.5,372.42L388.73,372.41L389.95,372.14L391.18,372.15L392.4,371.86L393.63,371.14L394.86,371.48L396.08,372L397.31,372.46L398.54,372.74L399.76,373.01L400.99,373L402.21,373.38L403.44,373.96L404.67,375.02L405.89,376.13L407.12,376.76L408.35,378.12L409.57,378.38L410.8,378.31L412.02,379.01L413.25,379.85L414.48,380.24L415.7,380.51L416.93,381.13L418.16,381.52L419.38,382.41L420.61,382.99L421.83,383.9L423.06,384.15L424.29,384.54L425.51,384.61L426.74,384.78L427.97,384.75L429.19,385.44L430.42,385.95L431.64,386.29L432.87,386.74L434.1,386.99L435.32,387.03L436.55,386.88L437.78,387.31L439,387.7L440.23,388.13L441.45,388.52L442.68,388.69L443.91,388.45L445.13,388.02L446.36,388.09L447.59,388.05L448.81,387.87L450.04,387.19L451.26,386.34L452.49,385.61L453.72,384.58L454.94,384.37L456.17,383.69L457.4,383.03L458.62,382.12L459.85,381.12L461.07,380.19L462.3,379.48L463.53,379.48L464.75,378.83L465.98,378L467.21,376.97L468.43,375.78L469.66,374.7L470.88,373.59L472.11,373.64L473.34,373.04L474.56,372.72L475.79,371.85L477.02,370.94L478.24,370.03L479.47,369.4L480.69,370.2L481.92,370.38L483.15,370.27L484.37,370.07L485.6,369.66L486.83,369.13L488.05,368.97L489.28,369.63L490.51,369.88L491.73,370L492.96,369.72L494.18,369.5L495.41,369.5L496.64,369.07L497.86,368.94L499.09,370.29L500.32,370.99L501.54,371.29L502.77,371.99L503.99,372.27L505.22,372.25L506.45,373.05L507.67,373.5L508.9,373.9L510.13,374.31L511.35,374.59L512.58,374.7L513.8,374.74L515.03,375.79L516.26,376.8L517.48,377.45L518.71,377.75L519.94,378.36L521.16,378.72L522.39,378.73L523.61,379.51L524.84,379.93L526.07,380.41L527.29,380.78L528.52,380.99L529.75,381.52L530.97,381.48L532.2,382.16L533.42,383.07L534.65,383.7L535.88,384.1L537.1,384.58L538.33,385.28L539.56,385.88L540.78,386.84L542.01,387.77L543.23,388.86L544.46,389.46L545.69,390.06L546.91,390.7L548.14,391.08L549.37,391.65L550.59,392.36L551.82,393.18L553.04,393.86L554.27,394.59L555.5,395.36L556.72,395.61L557.95,396.05L559.18,396.84L560.4,397.61L561.63,398.26L562.85,398.92L564.08,399.33L565.31,399.68L566.53,400.12L567.76,400.88L568.99,402.39L570.21,402.82L571.44,403.34L572.66,403.8L573.89,404.09L575.12,404.46L576.34,405.1L577.57,405.75L578.8,406.29L580.02,406.67L581.25,406.94L582.47,407.14L583.7,407.39L584.93,412.41L586.15,412.8L587.38,413.11L588.61,413.74L589.83,414.02L591.06,414.16L592.28,415.21L593.51,415.58L594.74,416L595.96,416.61L597.19,416.81L598.42,417.05L599.64,417.1L600.87,417.34L602.09,417.51L603.32,417.74L604.55,417.85L605.77,418L607,418.21L607,430.58L605.77,430.37L604.55,430.21L603.32,430.11L602.09,429.88L600.87,429.7L599.64,429.46L598.42,429.4L597.19,429.16L595.96,428.96L594.74,428.35L593.51,427.93L592.28,427.55L591.06,426.5L589.83,426.36L588.61,426.07L587.38,425.44L586.15,425.13L584.93,424.73L583.7,419.7L582.47,419.46L581.25,419.25L580.02,418.98L578.8,418.59L577.57,418.04L576.34,417.38L575.12,416.73L573.89,416.36L572.66,416.06L571.44,415.59L570.21,415.07L568.99,414.64L567.76,413.11L566.53,412.35L565.31,411.9L564.08,411.54L562.85,411.12L561.63,410.45L560.4,409.79L559.18,409L557.95,408.2L556.72,407.75L555.5,407.49L554.27,406.71L553.04,405.96L551.82,405.26L550.59,404.43L549.37,403.7L548.14,403.11L546.91,402.73L545.69,402.08L544.46,401.45L543.23,400.83L542.01,399.72L540.78,398.77L539.56,397.79L538.33,397.18L537.1,396.46L535.88,395.95L534.65,395.53L533.42,394.87L532.2,393.94L530.97,393.22L529.75,393.26L528.52,392.7L527.29,392.47L526.07,392.07L524.84,391.55L523.61,391.1L522.39,390.29L521.16,390.26L519.94,389.87L518.71,389.22L517.48,388.89L516.26,388.2L515.03,387.16L513.8,386.08L512.58,386.01L511.35,385.87L510.13,385.55L508.9,385.1L507.67,384.66L506.45,384.16L505.22,383.33L503.99,383.32L502.77,383L501.54,382.23L500.32,381.89L499.09,381.12L497.86,379.73L496.64,379.83L495.41,380.24L494.18,380.19L492.96,380.37L491.73,380.61L490.51,380.44L489.28,380.13L488.05,379.43L486.83,379.56L485.6,380.06L484.37,380.42L483.15,380.58L481.92,380.64L480.69,380.41L479.47,379.58L478.24,380.18L477.02,381.04L475.79,381.92L474.56,382.74L473.34,383.02L472.11,383.58L470.88,383.49L469.66,384.58L468.43,385.62L467.21,386.78L465.98,387.78L464.75,388.57L463.53,389.19L462.3,389.16L461.07,389.84L459.85,390.75L458.62,391.72L457.4,392.59L456.17,393.21L454.94,393.86L453.72,394.05L452.49,395.06L451.26,395.77L450.04,396.59L448.81,397.24L447.59,397.39L446.36,397.39L445.13,397.3L443.91,397.71L442.68,397.92L441.45,397.72L440.23,397.3L439,396.83L437.78,396.4L436.55,395.95L435.32,396.08L434.1,396.01L432.87,395.73L431.64,395.24L430.42,394.87L429.19,394.32L427.97,393.6L426.74,393.6L425.51,393.4L424.29,393.28L423.06,392.85L421.83,392.56L420.61,391.61L419.38,390.99L418.16,390.08L416.93,389.64L415.7,388.99L414.48,388.66L413.25,388.23L412.02,387.34L410.8,386.6L409.57,386.64L408.35,386.33L407.12,384.92L405.89,384.24L404.67,383.08L403.44,381.96L402.21,381.35L400.99,380.93L399.76,380.9L398.54,380.57L397.31,380.25L396.08,379.73L394.86,379.16L393.63,378.78L392.4,379.46L391.18,379.7L389.95,379.64L388.73,379.86L387.5,379.82L386.27,379.69L385.05,379.14L383.82,379.05L382.59,379.28L381.37,379.75L380.14,380.28L378.92,379.86L377.69,379.23L376.46,378.6L375.24,378.68L374.01,378.78L372.78,377.45L371.56,376.94L370.33,376.25L369.11,375.51L367.88,374.62L366.65,374.87L365.43,374.14L364.2,373.4L362.97,372.4L361.75,370.69L360.52,369.55L359.29,368.49L358.07,368.6L356.84,368.07L355.62,367.47L354.39,366.12L353.16,363.5L351.94,362.4L350.71,361.77L349.48,361.88L348.26,361.54L347.03,361.32L345.81,361.2L344.58,359.38L343.35,358.56L342.13,357.85L340.9,358.48L339.67,358.61L338.45,357.84L337.22,358.25L336,357.6L334.77,357.75L333.54,356.86L332.32,358.24L331.09,359.65L329.86,361.16L328.64,362.95L327.41,363.86L326.19,365.41L324.96,365.92L323.73,368.26L322.51,370.63L321.28,373.43L320.05,375.54L318.83,377.79L317.6,379.42L316.38,380.84L315.15,383.37L313.92,386.61L312.7,389.21L311.47,392.03L310.24,394.46L309.02,396.56L307.79,398.34L306.57,400.93L305.34,403.42L304.11,405.99L302.89,408.2L301.66,410.27L300.43,412.05L299.21,413.45L297.98,415.3L296.76,416.97L295.53,418.59L294.3,419.93L293.08,421.16L291.85,422.01L290.62,422.76L289.4,423.66L288.17,424.6L286.95,425.38L285.72,426.04L284.49,426.55L283.27,426.98L282.04,427.33L280.81,427.75L279.59,428.2L278.36,428.61L277.14,428.93L275.91,429.17L274.68,429.29L273.46,429.43L272.23,429.61L271,429.76L269.78,429.9L268.55,430.03L267.33,430.09L266.1,430.12L264.87,430.19L263.65,430.29L262.42,430.37L261.19,430.46L259.97,430.53L258.74,430.59L257.52,430.63L256.29,430.72L255.06,430.82L253.84,430.88L252.61,430.99L251.38,431.07L250.16,431.15L248.93,431.2L247.71,431.27L246.48,431.36L245.25,431.44L244.03,431.54L242.8,431.63L241.57,431.72L240.35,431.8L239.12,431.89L237.89,431.98L236.67,432.08L235.44,432.2L234.22,432.3L232.99,432.41L231.76,432.47L230.54,432.56L229.31,432.66L228.08,432.77L226.86,432.87L225.63,432.99L224.41,433.09L223.18,433.14L221.95,433.21L220.73,433.3L219.5,433.38L218.27,433.45L217.05,433.51L215.82,433.54L214.6,433.56L213.37,433.57L212.14,433.6L210.92,433.62L209.69,433.63L208.46,433.66L207.24,433.69L206.01,433.7L204.79,433.71L203.56,433.74L202.33,433.75L201.11,433.77L199.88,433.77L198.65,433.79L197.43,433.79L196.2,433.79L194.98,433.79L193.75,433.8L192.52,433.81L191.3,433.78L190.07,433.78L188.84,433.78L187.62,433.78L186.39,433.79L185.17,433.81L183.94,433.8L182.71,433.81L181.49,433.81L180.26,433.8L179.03,433.79L177.81,433.8L176.58,433.79L175.36,433.79L174.13,433.79L172.9,433.75L171.68,433.72L170.45,433.72L169.22,433.71L168,433.7L166.77,433.7L165.55,433.68L164.32,433.62L163.09,433.57L161.87,433.58L160.64,433.58L159.41,433.56L158.19,433.54L156.96,433.52L155.74,433.49L154.51,433.4L153.28,433.38L152.06,433.37L150.83,433.29L149.6,433.23L148.38,433.19L147.15,433.1L145.93,433L144.7,432.97L143.47,432.94L142.25,432.91L141.02,432.76L139.79,432.68L138.57,432.62L137.34,432.49L136.12,432.45L134.89,432.34L133.66,432.19L132.44,432.03L131.21,431.93L129.98,431.81L128.76,431.63L127.53,431.58L126.31,431.52L125.08,431.42L123.85,431.27L122.63,431.19L121.4,431.13L120.17,430.99L118.95,430.92L117.72,430.76L116.49,430.52L115.27,430.35L114.04,430.06L112.82,429.87L111.59,429.64L110.36,429.51L109.14,429.4L107.91,429.25L106.68,429.09L105.46,428.92L104.23,428.69L103.01,428.55L101.78,428.37L100.55,428.2L99.33,428.01L98.1,427.59L96.87,427.39L95.65,427.12L94.42,427L93.2,426.92L91.97,426.77L90.74,426.47L89.52,426.31L88.29,426.13L87.06,425.45L85.84,425.31L84.61,425.29L83.39,425.24L82.16,425.21L80.93,425.15L79.71,424.85L78.48,424.8L77.25,424.74L76.03,424.71L74.8,424.74L73.58,424.67L72.35,424.64L71.12,424.56L69.9,424.56L68.67,424.51L67.44,424.5L66.22,424.55L64.99,424.63L63.77,424.66L62.54,424.78L61.31,424.89L60.09,424.95L58.86,425.09L57.63,425.28L56.41,425.47L55.18,425.61L53.96,425.76L52.73,425.88L51.5,425.97L50.28,426.15L49.05,426.44L47.82,426.72L46.6,426.95L45.37,427.19L44.15,427.47L42.92,427.68L41.69,427.84L40.47,428.21L39.24,428.56L38.01,428.99L36.79,429.42L35.56,429.76L34.34,430.11L33.11,430.48L31.88,430.86L30.66,431.33L29.43,431.78L28.2,432.22L26.98,432.47L25.75,432.76L24.53,433L23.3,433.28L22.07,433.55L20.85,433.76L19.62,433.97L18.39,434.17L17.17,434.23L15.94,434.38L14.72,434.51L13.49,434.62L12.26,434.68L11.04,434.74L9.81,434.78L8.58,434.82L7.36,434.85L6.13,434.9L4.91,434.92L3.68,434.94L2.45,434.96L1.23,434.97L0,434.98Z" style="fill: rgb(228, 19, 23); fill-opacity: 1; stroke-width: 0;"/></g></g><g class="errorbars"/><g class="lines"/><g class="points"/><g class="text"/></g><g class="trace scatter traceee866a" style="stroke-miterlimit: 2;"><g class="fills"><g><path class="js-fill" d="M0,434.98L1.23,434.97L2.45,434.96L3.68,434.94L4.91,434.91L6.13,434.89L7.36,434.84L8.58,434.8L9.81,434.76L11.04,434.7L12.26,434.63L13.49,434.55L14.72,434.43L15.94,434.28L17.17,434.11L18.39,434.02L19.62,433.79L20.85,433.53L22.07,433.29L23.3,432.95L24.53,432.6L25.75,432.29L26.98,431.95L28.2,431.54L29.43,431.02L30.66,430.44L31.88,429.81L33.11,429.27L34.34,428.8L35.56,428.29L36.79,427.79L38.01,427.19L39.24,426.61L40.47,426.03L41.69,425.53L42.92,425.14L44.15,424.74L45.37,424.28L46.6,423.83L47.82,423.38L49.05,422.92L50.28,422.5L51.5,422.15L52.73,421.85L53.96,421.48L55.18,421.08L56.41,420.69L57.63,420.24L58.86,419.84L60.09,419.53L61.31,419.25L62.54,418.99L63.77,418.62L64.99,418.28L66.22,417.94L67.44,417.65L68.67,417.43L69.9,417.17L71.12,416.84L72.35,416.58L73.58,416.29L74.8,416.06L76.03,415.84L77.25,415.67L78.48,415.46L79.71,415.26L80.93,415.08L82.16,414.89L83.39,414.71L84.61,414.57L85.84,414.45L87.06,414.35L88.29,414.21L89.52,414.07L90.74,413.94L91.97,413.84L93.2,413.76L94.42,413.69L95.65,413.55L96.87,413.47L98.1,413.37L99.33,413.29L100.55,413.21L101.78,413.14L103.01,413.1L104.23,413.02L105.46,412.96L106.68,412.89L107.91,412.83L109.14,412.77L110.36,412.72L111.59,412.69L112.82,412.65L114.04,412.59L115.27,412.53L116.49,412.48L117.72,412.44L118.95,412.41L120.17,412.39L121.4,412.36L122.63,412.33L123.85,412.31L125.08,412.26L126.31,412.24L127.53,412.22L128.76,412.19L129.98,412.16L131.21,412.14L132.44,412.11L133.66,412.09L134.89,412.06L136.12,412.02L137.34,411.99L138.57,411.97L139.79,411.94L141.02,411.91L142.25,411.92L143.47,411.9L144.7,411.88L145.93,411.86L147.15,411.85L148.38,411.79L149.6,411.76L150.83,411.74L152.06,411.72L153.28,411.7L154.51,411.69L155.74,411.68L156.96,411.66L158.19,411.64L159.41,411.62L160.64,411.59L161.87,411.58L163.09,411.56L164.32,411.54L165.55,411.52L166.77,411.5L168,411.48L169.22,411.46L170.45,411.44L171.68,411.42L172.9,411.41L174.13,411.39L175.36,411.37L176.58,411.35L177.81,411.32L179.03,411.3L180.26,411.28L181.49,411.27L182.71,411.24L183.94,411.21L185.17,411.19L186.39,411.16L187.62,411.14L188.84,411.12L190.07,411.1L191.3,411.08L192.52,411.04L193.75,411L194.98,410.97L196.2,410.95L197.43,410.93L198.65,410.92L199.88,410.88L201.11,410.84L202.33,410.79L203.56,410.75L204.79,410.71L206.01,410.68L207.24,410.64L208.46,410.6L209.69,410.55L210.92,410.49L212.14,410.43L213.37,410.38L214.6,410.35L215.82,410.31L217.05,410.25L218.27,410.17L219.5,410.08L220.73,409.97L221.95,409.86L223.18,409.76L224.41,409.68L225.63,409.55L226.86,409.41L228.08,409.27L229.31,409.13L230.54,409L231.76,408.9L232.99,408.81L234.22,408.68L235.44,408.54L236.67,408.37L237.89,408.21L239.12,408.08L240.35,407.97L241.57,407.84L242.8,407.7L244.03,407.55L245.25,407.39L246.48,407.24L247.71,407.1L248.93,407L250.16,406.89L251.38,406.74L252.61,406.59L253.84,406.41L255.06,406.25L256.29,406.09L257.52,405.96L258.74,405.83L259.97,405.67L261.19,405.5L262.42,405.31L263.65,405.13L264.87,404.96L266.1,404.81L267.33,404.65L268.55,404.47L269.78,404.23L271,403.98L272.23,403.71L273.46,403.46L274.68,403.24L275.91,402.98L277.14,402.62L278.36,402.19L279.59,401.67L280.81,401.12L282.04,400.59L283.27,400.14L284.49,399.57L285.72,398.86L286.95,398L288.17,397.03L289.4,395.97L290.62,394.84L291.85,393.93L293.08,392.88L294.3,391.41L295.53,389.85L296.76,387.99L297.98,386.09L299.21,384.03L300.43,382.38L301.66,380.24L302.89,377.82L304.11,375.22L305.34,372.21L306.57,369.13L307.79,366.23L309.02,364.07L310.24,361.33L311.47,358.37L312.7,355.03L313.92,351.36L315.15,347.5L316.38,344.34L317.6,341.89L318.83,338.49L320.05,335.29L321.28,331.61L322.51,327.65L323.73,324.04L324.96,320.74L326.19,318.09L327.41,314.97L328.64,311.65L329.86,308.14L331.09,304.53L332.32,301.16L333.54,298.41L334.77,296.19L336,293.94L337.22,291.43L338.45,288.62L339.67,285.87L340.9,283.32L342.13,281.32L343.35,279.73L344.58,277.85L345.81,275.85L347.03,273.6L348.26,271.26L349.48,269.22L350.71,267.39L351.94,266.06L353.16,264.62L354.39,263.38L355.62,261.74L356.84,259.92L358.07,257.99L359.29,256.25L360.52,255.09L361.75,253.65L362.97,251.94L364.2,250.18L365.43,248.68L366.65,247.1L367.88,245.64L369.11,244.59L370.33,243.29L371.56,241.95L372.78,240.2L374.01,238.35L375.24,237.34L376.46,236.48L377.69,235.64L378.92,234.56L380.14,232.99L381.37,230.71L382.59,228.56L383.82,227.41L385.05,226.03L386.27,224.98L387.5,223.49L388.73,221.52L389.95,219.74L391.18,218.04L392.4,216.1L393.63,214.29L394.86,213.08L396.08,211.7L397.31,210.17L398.54,208.5L399.76,206.93L400.99,205.35L402.21,204.14L403.44,203.28L404.67,202.26L405.89,200.95L407.12,199.58L408.35,198.26L409.57,196.97L410.8,195.84L412.02,195.01L413.25,193.99L414.48,192.51L415.7,191.12L416.93,189.81L418.16,188.57L419.38,187.48L420.61,186.72L421.83,185.78L423.06,184.5L424.29,183.18L425.51,181.8L426.74,180.5L427.97,179.37L429.19,178.6L430.42,177.57L431.64,176.31L432.87,174.84L434.1,173.5L435.32,172.19L436.55,171.11L437.78,170.4L439,169.4L440.23,168.23L441.45,166.89L442.68,165.39L443.91,163.95L445.13,162.64L446.36,161.71L447.59,160.42L448.81,158.83L450.04,156.91L451.26,154.92L452.49,153.09L453.72,151.4L454.94,150.13L456.17,148.47L457.4,146.45L458.62,144.24L459.85,141.91L461.07,139.62L462.3,137.61L463.53,136.26L464.75,134.35L465.98,132.19L467.21,129.7L468.43,127.11L469.66,124.58L470.88,122.52L472.11,121.04L473.34,119.06L474.56,116.83L475.79,114.41L477.02,111.92L478.24,109.6L479.47,107.66L480.69,105.29L481.92,103.47L483.15,101.41L484.37,99.1L485.6,96.78L486.83,94.47L488.05,92.57L489.28,91.32L490.51,89.77L491.73,87.59L492.96,85.29L494.18,83.17L495.41,81.11L496.64,79.36L497.86,78.33L499.09,77.57L500.32,76.25L501.54,74.58L502.77,72.74L503.99,71.04L505.22,69.52L506.45,68.57L507.67,67.27L508.9,65.7L510.13,64.05L511.35,62.51L512.58,61.02L513.8,59.79L515.03,58.93L516.26,57.76L517.48,56.42L518.71,54.86L519.94,53.43L521.16,52.09L522.39,50.82L523.61,50L524.84,48.99L526.07,47.7L527.29,46.31L528.52,45L529.75,43.75L530.97,42.86L532.2,42.28L533.42,41.4L534.65,40.38L535.88,39.23L537.1,38.21L538.33,37.22L539.56,36.42L540.78,35.93L542.01,35.25L543.23,34.49L544.46,33.71L545.69,32.98L546.91,32.33L548.14,31.77L549.37,31.44L550.59,31.01L551.82,30.47L553.04,29.92L554.27,29.41L555.5,28.96L556.72,28.57L557.95,28.33L559.18,28.01L560.4,27.63L561.63,27.23L562.85,26.87L564.08,26.54L565.31,26.26L566.53,26.08L567.76,25.84L568.99,25.56L570.21,25.37L571.44,25.12L572.66,24.89L573.89,24.67L575.12,24.54L576.34,24.36L577.57,24.15L578.8,23.95L580.02,23.76L581.25,23.59L582.47,23.46L583.7,23.37L584.93,23.25L586.15,23.11L587.38,22.99L588.61,22.88L589.83,22.76L591.06,22.67L592.28,22.63L593.51,22.55L594.74,22.44L595.96,22.41L597.19,22.34L598.42,22.26L599.64,22.18L600.87,22.14L602.09,22.08L603.32,22L604.55,21.92L605.77,21.84L607,21.75L607,418.21L605.77,418L604.55,417.85L603.32,417.74L602.09,417.51L600.87,417.34L599.64,417.1L598.42,417.05L597.19,416.81L595.96,416.61L594.74,416L593.51,415.58L592.28,415.21L591.06,414.16L589.83,414.02L588.61,413.74L587.38,413.11L586.15,412.8L584.93,412.41L583.7,407.39L582.47,407.14L581.25,406.94L580.02,406.67L578.8,406.29L577.57,405.75L576.34,405.1L575.12,404.46L573.89,404.09L572.66,403.8L571.44,403.34L570.21,402.82L568.99,402.39L567.76,400.88L566.53,400.12L565.31,399.68L564.08,399.33L562.85,398.92L561.63,398.26L560.4,397.61L559.18,396.84L557.95,396.05L556.72,395.61L555.5,395.36L554.27,394.59L553.04,393.86L551.82,393.18L550.59,392.36L549.37,391.65L548.14,391.08L546.91,390.7L545.69,390.06L544.46,389.46L543.23,388.86L542.01,387.77L540.78,386.84L539.56,385.88L538.33,385.28L537.1,384.58L535.88,384.1L534.65,383.7L533.42,383.07L532.2,382.16L530.97,381.48L529.75,381.52L528.52,380.99L527.29,380.78L526.07,380.41L524.84,379.93L523.61,379.51L522.39,378.73L521.16,378.72L519.94,378.36L518.71,377.75L517.48,377.45L516.26,376.8L515.03,375.79L513.8,374.74L512.58,374.7L511.35,374.59L510.13,374.31L508.9,373.9L507.67,373.5L506.45,373.05L505.22,372.25L503.99,372.27L502.77,371.99L501.54,371.29L500.32,370.99L499.09,370.29L497.86,368.94L496.64,369.07L495.41,369.5L494.18,369.5L492.96,369.72L491.73,370L490.51,369.88L489.28,369.63L488.05,368.97L486.83,369.13L485.6,369.66L484.37,370.07L483.15,370.27L481.92,370.38L480.69,370.2L479.47,369.4L478.24,370.03L477.02,370.94L475.79,371.85L474.56,372.72L473.34,373.04L472.11,373.64L470.88,373.59L469.66,374.7L468.43,375.78L467.21,376.97L465.98,378L464.75,378.83L463.53,379.48L462.3,379.48L461.07,380.19L459.85,381.12L458.62,382.12L457.4,383.03L456.17,383.69L454.94,384.37L453.72,384.58L452.49,385.61L451.26,386.34L450.04,387.19L448.81,387.87L447.59,388.05L446.36,388.09L445.13,388.02L443.91,388.45L442.68,388.69L441.45,388.52L440.23,388.13L439,387.7L437.78,387.31L436.55,386.88L435.32,387.03L434.1,386.99L432.87,386.74L431.64,386.29L430.42,385.95L429.19,385.44L427.97,384.75L426.74,384.78L425.51,384.61L424.29,384.54L423.06,384.15L421.83,383.9L420.61,382.99L419.38,382.41L418.16,381.52L416.93,381.13L415.7,380.51L414.48,380.24L413.25,379.85L412.02,379.01L410.8,378.31L409.57,378.38L408.35,378.12L407.12,376.76L405.89,376.13L404.67,375.02L403.44,373.96L402.21,373.38L400.99,373L399.76,373.01L398.54,372.74L397.31,372.46L396.08,372L394.86,371.48L393.63,371.14L392.4,371.86L391.18,372.15L389.95,372.14L388.73,372.41L387.5,372.42L386.27,372.36L385.05,371.83L383.82,371.78L382.59,372.04L381.37,372.56L380.14,373.15L378.92,372.78L377.69,372.22L376.46,371.63L375.24,371.73L374.01,371.86L372.78,370.57L371.56,370.12L370.33,369.48L369.11,368.8L367.88,367.95L366.65,368.24L365.43,367.55L364.2,366.89L362.97,365.95L361.75,364.31L360.52,363.25L359.29,362.23L358.07,362.4L356.84,361.93L355.62,361.4L354.39,360.13L353.16,357.56L351.94,356.53L350.71,355.95L349.48,356.11L348.26,355.84L347.03,355.69L345.81,355.67L344.58,353.92L343.35,353.17L342.13,352.53L340.9,353.21L339.67,353.41L338.45,352.72L337.22,353.2L336,352.62L334.77,352.85L333.54,352.03L332.32,353.46L331.09,354.94L329.86,356.52L328.64,358.37L327.41,359.35L326.19,360.98L324.96,361.54L323.73,363.92L322.51,366.35L321.28,369.21L320.05,371.37L318.83,373.69L317.6,375.37L316.38,376.83L315.15,379.39L313.92,382.67L312.7,385.31L311.47,388.17L310.24,390.64L309.02,392.77L307.79,394.58L306.57,397.19L305.34,399.7L304.11,402.3L302.89,404.52L301.66,406.61L300.43,408.42L299.21,409.83L297.98,411.69L296.76,413.37L295.53,415L294.3,416.36L293.08,417.6L291.85,418.46L290.62,419.22L289.4,420.13L288.17,421.06L286.95,421.85L285.72,422.52L284.49,423.03L283.27,423.47L282.04,423.83L280.81,424.24L279.59,424.7L278.36,425.11L277.14,425.44L275.91,425.68L274.68,425.8L273.46,425.94L272.23,426.13L271,426.28L269.78,426.41L268.55,426.55L267.33,426.61L266.1,426.65L264.87,426.72L263.65,426.82L262.42,426.9L261.19,427L259.97,427.06L258.74,427.13L257.52,427.17L256.29,427.26L255.06,427.36L253.84,427.43L252.61,427.53L251.38,427.61L250.16,427.7L248.93,427.75L247.71,427.81L246.48,427.91L245.25,427.98L244.03,428.09L242.8,428.18L241.57,428.28L240.35,428.35L239.12,428.44L237.89,428.53L236.67,428.64L235.44,428.75L234.22,428.86L232.99,428.97L231.76,429.03L230.54,429.12L229.31,429.22L228.08,429.33L226.86,429.44L225.63,429.55L224.41,429.65L223.18,429.7L221.95,429.78L220.73,429.87L219.5,429.95L218.27,430.01L217.05,430.08L215.82,430.1L214.6,430.13L213.37,430.14L212.14,430.17L210.92,430.2L209.69,430.22L208.46,430.25L207.24,430.27L206.01,430.29L204.79,430.3L203.56,430.33L202.33,430.34L201.11,430.36L199.88,430.36L198.65,430.38L197.43,430.38L196.2,430.38L194.98,430.38L193.75,430.39L192.52,430.41L191.3,430.37L190.07,430.37L188.84,430.38L187.62,430.38L186.39,430.39L185.17,430.4L183.94,430.4L182.71,430.4L181.49,430.41L180.26,430.4L179.03,430.4L177.81,430.4L176.58,430.4L175.36,430.4L174.13,430.4L172.9,430.36L171.68,430.33L170.45,430.33L169.22,430.32L168,430.31L166.77,430.31L165.55,430.3L164.32,430.24L163.09,430.19L161.87,430.2L160.64,430.2L159.41,430.18L158.19,430.16L156.96,430.15L155.74,430.12L154.51,430.03L153.28,430.01L152.06,430L150.83,429.93L149.6,429.86L148.38,429.83L147.15,429.74L145.93,429.64L144.7,429.61L143.47,429.59L142.25,429.56L141.02,429.41L139.79,429.34L138.57,429.28L137.34,429.16L136.12,429.12L134.89,429.01L133.66,428.87L132.44,428.72L131.21,428.62L129.98,428.51L128.76,428.34L127.53,428.29L126.31,428.24L125.08,428.14L123.85,428.01L122.63,427.93L121.4,427.88L120.17,427.74L118.95,427.68L117.72,427.53L116.49,427.3L115.27,427.13L114.04,426.85L112.82,426.67L111.59,426.45L110.36,426.33L109.14,426.23L107.91,426.09L106.68,425.94L105.46,425.78L104.23,425.57L103.01,425.44L101.78,425.28L100.55,425.12L99.33,424.95L98.1,424.55L96.87,424.38L95.65,424.12L94.42,424.02L93.2,423.96L91.97,423.83L90.74,423.54L89.52,423.41L88.29,423.25L87.06,422.61L85.84,422.49L84.61,422.49L83.39,422.45L82.16,422.48L80.93,422.44L79.71,422.17L78.48,422.15L77.25,422.13L76.03,422.13L74.8,422.18L73.58,422.15L72.35,422.16L71.12,422.13L69.9,422.17L68.67,422.17L67.44,422.21L66.22,422.3L64.99,422.42L63.77,422.52L62.54,422.68L61.31,422.85L60.09,422.97L58.86,423.16L57.63,423.39L56.41,423.65L55.18,423.84L53.96,424.05L52.73,424.22L51.5,424.36L50.28,424.61L49.05,424.95L47.82,425.3L46.6,425.6L45.37,425.91L44.15,426.27L42.92,426.55L41.69,426.79L40.47,427.24L39.24,427.68L38.01,428.2L36.79,428.7L35.56,429.1L34.34,429.52L33.11,429.95L31.88,430.39L30.66,430.94L29.43,431.45L28.2,431.93L26.98,432.23L25.75,432.55L24.53,432.83L23.3,433.14L22.07,433.43L20.85,433.66L19.62,433.89L18.39,434.11L17.17,434.18L15.94,434.35L14.72,434.49L13.49,434.6L12.26,434.67L11.04,434.73L9.81,434.77L8.58,434.82L7.36,434.84L6.13,434.9L4.91,434.92L3.68,434.94L2.45,434.96L1.23,434.97L0,434.98Z" style="fill: rgb(34, 139, 34); fill-opacity: 1; stroke-width: 0;"/></g></g><g class="errorbars"/><g class="lines"/><g class="points"/><g class="text"/></g><g class="trace scatter tracec91744" style="stroke-miterlimit: 2;"><g class="fills"/><g class="errorbars"/><g class="lines"/><g class="points"/><g class="text"/></g></g></g><g class="overplot"/><path class="xlines-above crisp" style="fill: none;" d="M0,0"/><path class="ylines-above crisp" style="fill: none;" d="M0,0"/><g class="overlines-above"/><g class="xaxislayer-above"><g class="xtick"><text text-anchor="middle" x="0" y="473" transform="translate(67.36,0)" style="font-family: 'Open Sans', verdana, arial, sans-serif; font-size: 12px; fill: rgb(68, 68, 68); fill-opacity: 1; white-space: pre;">Mar 2020</text></g><g class="xtick"><text text-anchor="middle" x="0" y="473" transform="translate(142.16,0)" style="font-family: 'Open Sans', verdana, arial, sans-serif; font-size: 12px; fill: rgb(68, 68, 68); fill-opacity: 1; white-space: pre;">May 2020</text></g><g class="xtick"><text text-anchor="middle" x="0" y="473" transform="translate(216.96,0)" style="font-family: 'Open Sans', verdana, arial, sans-serif; font-size: 12px; fill: rgb(68, 68, 68); fill-opacity: 1; white-space: pre;">Jul 2020</text></g><g class="xtick"><text text-anchor="middle" x="0" y="473" transform="translate(292.99,0)" style="font-family: 'Open Sans', verdana, arial, sans-serif; font-size: 12px; fill: rgb(68, 68, 68); fill-opacity: 1; white-space: pre;">Sep 2020</text></g><g class="xtick"><text text-anchor="middle" x="0" y="473" transform="translate(367.79,0)" style="font-family: 'Open Sans', verdana, arial, sans-serif; font-size: 12px; fill: rgb(68, 68, 68); fill-opacity: 1; white-space: pre;">Nov 2020</text></g><g class="xtick"><text text-anchor="middle" x="0" y="473" transform="translate(442.59,0)" style="font-family: 'Open Sans', verdana, arial, sans-serif; font-size: 12px; fill: rgb(68, 68, 68); fill-opacity: 1; white-space: pre;">Jan 2021</text></g><g class="xtick"><text text-anchor="middle" x="0" y="473" transform="translate(514.94,0)" style="font-family: 'Open Sans', verdana, arial, sans-serif; font-size: 12px; fill: rgb(68, 68, 68); fill-opacity: 1; white-space: pre;">Mar 2021</text></g><g class="xtick"><text text-anchor="middle" x="0" y="473" transform="translate(589.75,0)" style="font-family: 'Open Sans', verdana, arial, sans-serif; font-size: 12px; fill: rgb(68, 68, 68); fill-opacity: 1; white-space: pre;">May 2021</text></g><g class="xtick"><text text-anchor="middle" x="0" y="473" transform="translate(664.55,0)" style="font-family: 'Open Sans', verdana, arial, sans-serif; font-size: 12px; fill: rgb(68, 68, 68); fill-opacity: 1; white-space: pre;">Jul 2021</text></g></g><g class="yaxislayer-above"><g class="ytick"><text text-anchor="end" x="59" y="4.199999999999999" transform="translate(0,460)" style="font-family: 'Open Sans', verdana, arial, sans-serif; font-size: 12px; fill: rgb(68, 68, 68); fill-opacity: 1; white-space: pre;">0</text></g><g class="ytick"><text text-anchor="end" x="59" y="4.199999999999999" transform="translate(0,411.53)" style="font-family: 'Open Sans', verdana, arial, sans-serif; font-size: 12px; fill: rgb(68, 68, 68); fill-opacity: 1; white-space: pre;">0.5M</text></g><g class="ytick"><text text-anchor="end" x="59" y="4.199999999999999" transform="translate(0,363.05)" style="font-family: 'Open Sans', verdana, arial, sans-serif; font-size: 12px; fill: rgb(68, 68, 68); fill-opacity: 1; white-space: pre;">1M</text></g><g class="ytick"><text text-anchor="end" x="59" y="4.199999999999999" transform="translate(0,314.58)" style="font-family: 'Open Sans', verdana, arial, sans-serif; font-size: 12px; fill: rgb(68, 68, 68); fill-opacity: 1; white-space: pre;">1.5M</text></g><g class="ytick"><text text-anchor="end" x="59" y="4.199999999999999" transform="translate(0,266.1)" style="font-family: 'Open Sans', verdana, arial, sans-serif; font-size: 12px; fill: rgb(68, 68, 68); fill-opacity: 1; white-space: pre;">2M</text></g><g class="ytick"><text text-anchor="end" x="59" y="4.199999999999999" transform="translate(0,217.63)" style="font-family: 'Open Sans', verdana, arial, sans-serif; font-size: 12px; fill: rgb(68, 68, 68); fill-opacity: 1; white-space: pre;">2.5M</text></g><g class="ytick"><text text-anchor="end" x="59" y="4.199999999999999" transform="translate(0,169.15)" style="font-family: 'Open Sans', verdana, arial, sans-serif; font-size: 12px; fill: rgb(68, 68, 68); fill-opacity: 1; white-space: pre;">3M</text></g><g class="ytick"><text text-anchor="end" x="59" y="4.199999999999999" transform="translate(0,120.68)" style="font-family: 'Open Sans', verdana, arial, sans-serif; font-size: 12px; fill: rgb(68, 68, 68); fill-opacity: 1; white-space: pre;">3.5M</text></g><g class="ytick"><text text-anchor="end" x="59" y="4.199999999999999" transform="translate(0,72.2)" style="font-family: 'Open Sans', verdana, arial, sans-serif; font-size: 12px; fill: rgb(68, 68, 68); fill-opacity: 1; white-space: pre;">4M</text></g></g><g class="overaxes-above"/></g></g><g class="polarlayer"/><g class="ternarylayer"/><g class="geolayer"/><g class="funnelarealayer"/><g class="pielayer"/><g class="treemaplayer"/><g class="sunburstlayer"/><g class="glimages"/><defs id="topdefs-565b44"><g class="clips"/><clipPath id="legend565b44"><rect width="109" height="67" x="0" y="0"/></clipPath></defs><g class="layer-above"><g class="imagelayer"/><g class="shapelayer"/></g><g class="infolayer"><g class="legend" pointer-events="all" transform="translate(120.7, 68.5)"><rect class="bg" shape-rendering="crispEdges" style="stroke: rgb(68, 68, 68); stroke-opacity: 1; fill: rgb(255, 255, 255); fill-opacity: 1; stroke-width: 0px;" width="109" height="67" x="0" y="0"/><g class="scrollbox" transform="translate(0, 0)" clip-path="url('#legend565b44')"><g class="groups"><g class="traces" style="opacity: 1;" transform="translate(0, 14.5)"><text class="legendtext" text-anchor="start" x="40" y="4.680000000000001" style="font-family: 'Open Sans', verdana, arial, sans-serif; font-size: 12px; fill: rgb(68, 68, 68); fill-opacity: 1; white-space: pre;">Recovered</text><g class="layers"><g class="legendfill"><path class="js-fill" d="M5,-3h30v6h-30z" style="stroke-width: 0; fill: rgb(34, 139, 34); fill-opacity: 1;"/></g><g class="legendlines"/><g class="legendsymbols"><g class="legendpoints"/></g></g><rect class="legendtoggle" x="0" y="-9.5" width="103.03125" height="19" style="fill: rgb(0, 0, 0); fill-opacity: 0;"/></g><g class="traces" style="opacity: 1;" transform="translate(0, 33.5)"><text class="legendtext" text-anchor="start" x="40" y="4.680000000000001" style="font-family: 'Open Sans', verdana, arial, sans-serif; font-size: 12px; fill: rgb(68, 68, 68); fill-opacity: 1; white-space: pre;">Death</text><g class="layers"><g class="legendfill"><path class="js-fill" d="M5,-3h30v6h-30z" style="stroke-width: 0; fill: rgb(228, 19, 23); fill-opacity: 1;"/></g><g class="legendlines"/><g class="legendsymbols"><g class="legendpoints"/></g></g><rect class="legendtoggle" x="0" y="-9.5" width="103.03125" height="19" style="fill: rgb(0, 0, 0); fill-opacity: 0;"/></g><g class="traces" style="opacity: 1;" transform="translate(0, 52.5)"><text class="legendtext" text-anchor="start" x="40" y="4.680000000000001" style="font-family: 'Open Sans', verdana, arial, sans-serif; font-size: 12px; fill: rgb(68, 68, 68); fill-opacity: 1; white-space: pre;">Active</text><g class="layers"><g class="legendfill"><path class="js-fill" d="M5,-3h30v6h-30z" style="stroke-width: 0; fill: rgb(31, 119, 180); fill-opacity: 1;"/></g><g class="legendlines"/><g class="legendsymbols"><g class="legendpoints"/></g></g><rect class="legendtoggle" x="0" y="-9.5" width="103.03125" height="19" style="fill: rgb(0, 0, 0); fill-opacity: 0;"/></g></g></g><rect class="scrollbar" rx="20" ry="3" width="0" height="0" style="fill: rgb(128, 139, 164); fill-opacity: 1;" x="0" y="0"/></g><g class="g-gtitle"><text class="gtitle" x="350" y="12.5" text-anchor="middle" dy="0em" style="font-family: 'Open Sans', verdana, arial, sans-serif; font-size: 17px; fill: rgb(68, 68, 68); opacity: 1; font-weight: normal; white-space: pre;">Italy - Distribution of Covid19 Cases</text></g><g class="g-xtitle" transform="translate(0,-15)"><text class="xtitle" x="363.5" y="512" text-anchor="middle" style="font-family: 'Open Sans', verdana, arial, sans-serif; font-size: 14px; fill: rgb(68, 68, 68); opacity: 1; font-weight: normal; white-space: pre;">Source: Italy Department of Civil Protection</text></g><g class="g-ytitle"><text class="ytitle" transform="rotate(-90,22,242.5)" x="22" y="242.5" text-anchor="middle" style="font-family: 'Open Sans', verdana, arial, sans-serif; font-size: 14px; fill: rgb(68, 68, 68); opacity: 1; font-weight: normal; white-space: pre;">Number of Cases</text></g></g></svg>