<svg class="main-svg" xmlns="http://www.w3.org/2000/svg" xmlns:xlink="http://www.w3.org/1999/xlink" width="700" height="500" style="" viewBox="0 0 700 500"><rect x="0" y="0" width="700" height="500" style="fill: rgb(255, 255, 255); fill-opacity: 1;"/><defs id="defs-1c2fe8"><g class="clips"><clipPath id="clip1c2fe8xyplot" class="plotclip"><rect width="516" height="435"/></clipPath><clipPath class="axesclip" id="clip1c2fe8x"><rect x="60" y="0" width="516" height="500"/></clipPath><clipPath class="axesclip" id="clip1c2fe8y"><rect x="0" y="25" width="700" height="435"/></clipPath><clipPath class="axesclip" id="clip1c2fe8xy"><rect x="60" y="25" width="516" height="435"/></clipPath></g><g class="gradients"/></defs><g class="bglayer"/><g class="layer-below"><g class="imagelayer"/><g class="shapelayer"/></g><g class="cartesianlayer"><g class="subplot xy"><g class="layer-subplot"><g class="shapelayer"/><g class="imagelayer"/></g><g class="gridlayer"><g class="x"><path class="xgrid crisp" transform="translate(96.78999999999999,0)" d="M0,25v435" style="stroke: rgb(238, 238, 238); stroke-opacity: 1; stroke-width: 1px;"/><path class="xgrid crisp" transform="translate(187.26,0)" d="M0,25v435" style="stroke: rgb(238, 238, 238); stroke-opacity: 1; stroke-width: 1px;"/><path class="xgrid crisp" transform="translate(278.73,0)" d="M0,25v435" style="stroke: rgb(238, 238, 238); stroke-opacity: 1; stroke-width: 1px;"/><path class="xgrid crisp" transform="translate(370.2,0)" d="M0,25v435" style="stroke: rgb(238, 238, 238); stroke-opacity: 1; stroke-width: 1px;"/><path class="xgrid crisp" transform="translate(459.68,0)" d="M0,25v435" style="stroke: rgb(238, 238, 238); stroke-opacity: 1; stroke-width: 1px;"/><path class="xgrid crisp" transform="translate(550.15,0)" d="M0,25v435" style="stroke: rgb(238, 238, 238); stroke-opacity: 1; stroke-width: 1px;"/></g><g class="y"><path class="ygrid crisp" transform="translate(0,408.72)" d="M60,0h516" style="stroke: rgb(238, 238, 238); stroke-opacity: 1; stroke-width: 1px;"/><path class="ygrid crisp" transform="translate(0,357.45)" d="M60,0h516" style="stroke: rgb(238, 238, 238); stroke-opacity: 1; stroke-width: 1px;"/><path class="ygrid crisp" transform="translate(0,306.17)" d="M60,0h516" style="stroke: rgb(238, 238, 238); stroke-opacity: 1; stroke-width: 1px;"/><path class="ygrid crisp" transform="translate(0,254.9)" d="M60,0h516" style="stroke: rgb(238, 238, 238); stroke-opacity: 1; stroke-width: 1px;"/><path class="ygrid crisp" transform="translate(0,203.62)" d="M60,0h516" style="stroke: rgb(238, 238, 238); stroke-opacity: 1; stroke-width: 1px;"/><path class="ygrid crisp" transform="translate(0,152.35)" d="M60,0h516" style="stroke: rgb(238, 238, 238); stroke-opacity: 1; stroke-width: 1px;"/><path class="ygrid crisp" transform="translate(0,101.07)" d="M60,0h516" style="stroke: rgb(238, 238, 238); stroke-opacity: 1; stroke-width: 1px;"/><path class="ygrid crisp" transform="translate(0,49.8)" d="M60,0h516" style="stroke: rgb(238, 238, 238); stroke-opacity: 1; stroke-width: 1px;"/></g></g><g class="zerolinelayer"><path class="yzl zl crisp" transform="translate(0,460)" d="M60,0h516" style="stroke: rgb(68, 68, 68); stroke-opacity: 1; stroke-width: 1px;"/></g><path class="xlines-below"/><path class="ylines-below"/><g class="overlines-below"/><g class="xaxislayer-below"/><g class="yaxislayer-below"/><g class="overaxes-below"/><g class="plot" transform="translate(60, 25)" clip-path="url('#clip1c2fe8xyplot')"><g class="scatterlayer mlayer"><g class="trace scatter trace987e81" style="stroke-miterlimit: 2;"><g class="fills"><g><path class="js-fill" d="M516,435L0,435L0,434.95L0.99,434.92L1.99,434.89L2.98,434.85L3.98,434.79L4.97,434.72L5.97,434.59L6.96,434.52L7.95,434.49L8.95,434.45L9.94,434.41L10.94,434.46L11.93,434.06L12.92,433.88L13.92,433.49L14.91,433.67L15.91,433.09L16.9,432.42L17.9,431.82L18.89,430.97L19.88,430.25L20.88,429.77L21.87,429.3L22.87,428.8L23.86,427.34L24.86,425.16L25.85,423.66L26.84,422.81L27.84,421.4L28.83,420.29L29.83,419.15L30.82,417.75L31.82,416.21L32.81,414.73L33.8,413.16L34.8,412.57L35.79,411.71L36.79,410.32L37.78,409.13L38.77,408.04L39.77,406.66L40.76,405.1L41.76,404.07L42.75,403.44L43.75,402.65L44.74,401.74L45.73,400.88L46.73,399.75L47.72,398.56L48.72,397.91L49.71,397.52L50.71,396.7L51.7,395.63L52.69,394.82L53.69,393.96L54.68,393.68L55.68,393.59L56.67,393.41L57.66,393.21L58.66,393.1L59.65,392.81L60.65,392.85L61.64,392.58L62.64,392.18L63.63,392.12L64.62,392.11L65.62,393.1L66.61,393.06L67.61,393.05L68.6,393.24L69.6,393.12L70.59,393.59L71.58,396.84L72.58,397.5L73.57,398L74.57,399.12L75.56,399.78L76.55,400.16L77.55,400.42L78.54,401.47L79.54,402.12L80.53,403.99L81.53,404.74L82.52,405.63L83.51,406.49L84.51,407.1L85.5,408.11L86.5,408.82L87.49,409.48L88.49,410.14L89.48,410.68L90.47,411.12L91.47,412.18L92.46,413.09L93.46,414.43L94.45,415.2L95.45,416.25L96.44,416.91L97.43,417.13L98.43,417.79L99.42,417.98L100.42,418.29L101.41,418.92L102.4,419.32L103.4,419.56L104.39,419.76L105.39,420.63L106.38,421.08L107.38,421.53L108.37,422.24L109.36,422.94L110.36,423.48L111.35,423.61L112.35,424.19L113.34,424.41L114.34,424.71L115.33,425.39L116.32,425.47L117.32,425.51L118.31,425.53L119.31,425.97L120.3,426.32L121.29,426.44L122.29,426.71L123.28,427.06L124.28,427.09L125.27,427.17L126.27,427.63L127.26,427.75L128.25,427.81L129.25,427.9L130.24,428.02L131.24,428.01L132.23,427.98L133.23,428.22L134.22,428.53L135.21,428.58L136.21,428.58L137.2,428.64L138.2,428.68L139.19,428.68L140.18,428.8L141.18,429.03L142.17,429.02L143.17,429.03L144.16,429.07L145.16,429.03L146.15,429.05L147.14,429.12L148.14,429.08L149.13,429.03L150.13,429.08L151.12,429.02L152.12,428.96L153.11,428.95L154.1,428.94L155.1,428.93L156.09,429.14L157.09,429.02L158.08,429L159.08,429L160.07,429L161.06,429.01L162.06,428.93L163.05,428.9L164.05,428.79L165.04,428.78L166.03,428.61L167.03,428.57L168.02,428.48L169.02,428.36L170.01,428.21L171.01,428.12L172,428.03L172.99,427.88L173.99,427.82L174.98,427.73L175.98,427.6L176.97,427.28L177.97,426.95L178.96,426.53L179.95,426.08L180.95,425.73L181.94,425.47L182.94,424.94L183.93,424.37L184.92,423.83L185.92,423.25L186.91,422.76L187.91,422.34L188.9,422.04L189.9,421.53L190.89,421.01L191.88,420.45L192.88,419.9L193.87,419.48L194.87,419.04L195.86,418.65L196.86,418.18L197.85,417.72L198.84,417.19L199.84,416.86L200.83,416.4L201.83,416.1L202.82,415.88L203.82,415.49L204.81,415.08L205.8,414.56L206.8,414.2L207.79,413.72L208.79,413.27L209.78,413.13L210.77,412.84L211.77,412.54L212.76,412.06L213.76,411.62L214.75,411.15L215.75,410.86L216.74,410.74L217.73,410.42L218.73,409.74L219.72,409.07L220.72,408.3L221.71,407.39L222.71,406.75L223.7,406.19L224.69,405.03L225.69,403.38L226.68,401.34L227.68,399.05L228.67,396.99L229.66,395.27L230.66,393.16L231.65,390.68L232.65,387.37L233.64,383.47L234.64,378.8L235.63,374.31L236.62,370.63L237.62,366.59L238.61,360.42L239.61,353.67L240.6,345.57L241.6,337.18L242.59,327.82L243.58,320.96L244.58,312.08L245.57,301.72L246.57,290.62L247.56,277.56L248.55,264.98L249.55,251.8L250.54,242.9L251.54,232.56L252.53,220.25L253.53,205.95L254.52,192.67L255.51,176.17L256.51,163.53L257.5,156.65L258.5,148.63L259.49,137.18L260.49,126.32L261.48,112.08L262.47,99.8L263.47,87.86L264.46,85.43L265.46,77.55L266.45,73L267.45,63.59L268.44,55.84L269.43,48.42L270.43,41.28L271.42,46.16L272.42,45.31L273.41,48.62L274.4,46.35L275.4,50.22L276.39,49.28L277.39,45.75L278.38,49.65L279.38,53.78L280.37,63.17L281.36,63.45L282.36,64.31L283.35,65.57L284.35,65.07L285.34,68.43L286.34,73.97L287.33,87.59L288.32,94.46L289.32,97.36L290.31,99.87L291.31,99.08L292.3,104.66L293.29,110.45L294.29,119.21L295.28,124.24L296.28,127.75L297.27,131.44L298.27,129.99L299.26,134.68L300.25,138.47L301.25,141.89L302.24,144.28L303.24,150.99L304.23,150.4L305.23,150.11L306.22,153.64L307.21,156.82L308.21,158.99L309.2,155.97L310.2,153.3L311.19,152.19L312.18,152.7L313.18,155.78L314.17,156.48L315.17,156.59L316.16,155.46L317.16,155.81L318.15,154.53L319.14,150.99L320.14,153.12L321.13,156.22L322.13,158.8L323.12,160.31L324.12,161.86L325.11,162L326.1,164.21L327.1,167.53L328.09,173.32L329.09,179.33L330.08,182.67L331.08,189.92L332.07,191.42L333.06,191.15L334.06,195.14L335.05,199.81L336.05,201.98L337.04,203.47L338.03,206.75L339.03,208.86L340.02,213.67L341.02,217.04L342.01,222.09L343.01,223.49L344,225.6L344.99,226.1L345.99,227.07L346.98,227L347.98,230.96L348.97,233.84L349.97,235.69L350.96,238.13L351.95,239.47L352.95,239.72L353.94,239L354.94,241.44L355.93,243.67L356.92,246.03L357.92,248.11L358.91,249.1L359.91,247.93L360.9,245.8L361.9,246.5L362.89,246.56L363.88,245.76L364.88,242.35L365.87,238.01L366.87,234.32L367.86,229.13L368.86,228.4L369.85,225.23L370.84,222.08L371.84,217.69L372.83,212.69L373.83,208.09L374.82,204.72L375.82,205.29L376.81,202.35L377.8,198.43L378.8,193.37L379.79,187.47L380.79,182.25L381.78,176.74L382.77,177.67L383.77,175.16L384.76,173.92L385.76,169.66L386.75,165.13L387.75,160.68L388.74,157.74L389.73,162.47L390.73,163.92L391.72,163.61L392.72,162.77L393.71,160.88L394.71,158.34L395.7,157.71L396.69,161.68L397.69,163.34L398.68,164.18L399.68,162.81L400.67,161.76L401.66,161.88L402.66,159.7L403.65,159.36L404.65,167.02L405.64,171.02L406.64,172.57L407.63,176.26L408.62,177.68L409.62,177.51L410.61,181.96L411.61,184.4L412.6,186.42L413.6,188.36L414.59,189.58L415.58,189.97L416.58,190.08L417.57,195.8L418.57,201.03L419.56,204.38L420.55,205.76L421.55,208.81L422.54,210.63L423.54,210.58L424.53,214.86L425.53,217.04L426.52,219.54L427.51,221.33L428.51,222.34L429.5,224.96L430.5,224.75L431.49,228.53L432.49,233.34L433.48,236.44L434.47,238.29L435.47,240.68L436.46,244.2L437.46,247.21L438.45,252.42L439.45,257.14L440.44,262.64L441.43,265.53L442.43,268.51L443.42,271.67L444.42,273.5L445.41,276.5L446.4,280.11L447.4,284.22L448.39,287.55L449.39,291.23L450.38,295.11L451.38,296.29L452.37,298.55L453.36,302.57L454.36,306.49L455.35,309.75L456.35,313L457.34,314.98L458.34,316.74L459.33,319.04L460.32,322.93L461.32,330.78L462.31,332.99L463.31,335.59L464.3,337.89L465.29,339.35L466.29,341.28L467.28,344.57L468.28,347.89L469.27,350.64L470.27,352.57L471.26,353.89L472.25,354.91L473.25,356.14L474.24,382.66L475.24,384.59L476.23,386.15L477.23,389.38L478.22,390.77L479.21,391.48L480.21,397.02L481.2,398.95L482.2,401.09L483.19,404.26L484.18,405.25L485.18,406.46L486.17,406.73L487.17,407.99L488.16,408.91L489.16,410.08L490.15,410.59L491.14,411.36L492.14,412.45L493.13,412.9L494.13,413.46L495.12,413.92L496.12,414.27L497.11,414.44L498.1,414.46L499.1,414.64L500.09,414.6L501.09,414.94L502.08,414.82L503.08,414.26L504.07,414.67L505.06,413.74L506.06,413.35L507.05,412.02L508.05,411.32L509.04,410.41L510.03,409.39L511.03,407.58L512.02,405.62L513.02,403.72L514.01,401.83L515.01,400.88L516,399.87" style="fill: rgb(253, 187, 188); fill-opacity: 1; stroke-width: 0;"/></g><g><path class="js-fill" d="M0,434.9L0.99,434.86L1.99,434.82L2.98,434.73L3.98,434.61L4.97,434.52L5.97,434.26L6.96,434.14L7.95,433.96L8.95,433.76L9.94,433.49L10.94,433.23L11.93,432.7L12.92,432.06L13.92,431.28L14.91,431.08L15.91,430.1L16.9,429.01L17.9,428.01L18.89,426.68L19.88,425.29L20.88,424.12L21.87,422.69L22.87,421.44L23.86,419.26L24.86,416.95L25.85,414.58L26.84,412.63L27.84,410.79L28.83,409.04L29.83,407.3L30.82,405.05L31.82,402.86L32.81,401.05L33.8,399.12L34.8,398.31L35.79,397.26L36.79,395.76L37.78,394.49L38.77,393.3L39.77,391.79L40.76,390.25L41.76,389.22L42.75,388.71L43.75,388.05L44.74,387.17L45.73,386.4L46.73,385.32L47.72,384.28L48.72,383.54L49.71,383.16L50.71,382.53L51.7,381.84L52.69,381.6L53.69,381.14L54.68,380.84L55.68,380.82L56.67,381.04L57.66,381L58.66,381.38L59.65,381.49L60.65,381.8L61.64,381.63L62.64,381.75L63.63,382.01L64.62,382.26L65.62,383.8L66.61,384.05L67.61,384.15L68.6,384.4L69.6,384.49L70.59,385.24L71.58,388.75L72.58,389.72L73.57,390.5L74.57,392.03L75.56,392.8L76.55,393.22L77.55,393.82L78.54,395.23L79.54,396.24L80.53,398.46L81.53,399.41L82.52,400.34L83.51,401.26L84.51,401.97L85.5,403.17L86.5,404.07L87.49,404.89L88.49,405.68L89.48,406.26L90.47,406.92L91.47,408.12L92.46,409.13L93.46,410.65L94.45,411.57L95.45,412.83L96.44,413.64L97.43,414.01L98.43,414.75L99.42,415.03L100.42,415.47L101.41,416.2L102.4,416.75L103.4,417.07L104.39,417.34L105.39,418.28L106.38,418.87L107.38,419.41L108.37,420.25L109.36,421.02L110.36,421.64L111.35,421.82L112.35,422.49L113.34,422.82L114.34,423.24L115.33,424.04L116.32,424.2L117.32,424.32L118.31,424.48L119.31,425.02L120.3,425.49L121.29,425.67L122.29,426.01L123.28,426.42L124.28,426.5L125.27,426.59L126.27,427.07L127.26,427.22L128.25,427.32L129.25,427.41L130.24,427.54L131.24,427.53L132.23,427.49L133.23,427.73L134.22,428.07L135.21,428.13L136.21,428.15L137.2,428.21L138.2,428.28L139.19,428.29L140.18,428.41L141.18,428.62L142.17,428.63L143.17,428.64L144.16,428.68L145.16,428.65L146.15,428.66L147.14,428.74L148.14,428.71L149.13,428.66L150.13,428.72L151.12,428.64L152.12,428.58L153.11,428.57L154.1,428.56L155.1,428.55L156.09,428.75L157.09,428.65L158.08,428.63L159.08,428.63L160.07,428.62L161.06,428.62L162.06,428.54L163.05,428.51L164.05,428.39L165.04,428.38L166.03,428.22L167.03,428.17L168.02,428.07L169.02,427.96L170.01,427.81L171.01,427.72L172,427.64L172.99,427.47L173.99,427.41L174.98,427.29L175.98,427.16L176.97,426.82L177.97,426.48L178.96,426.06L179.95,425.58L180.95,425.19L181.94,424.93L182.94,424.39L183.93,423.79L184.92,423.23L185.92,422.65L186.91,422.12L187.91,421.68L188.9,421.34L189.9,420.79L190.89,420.24L191.88,419.63L192.88,419.07L193.87,418.62L194.87,418.16L195.86,417.75L196.86,417.27L197.85,416.77L198.84,416.24L199.84,415.86L200.83,415.35L201.83,415.01L202.82,414.74L203.82,414.32L204.81,413.87L205.8,413.34L206.8,412.98L207.79,412.5L208.79,412L209.78,411.8L210.77,411.48L211.77,411.14L212.76,410.66L213.76,410.21L214.75,409.69L215.75,409.33L216.74,409.18L217.73,408.86L218.73,408.15L219.72,407.46L220.72,406.66L221.71,405.71L222.71,404.96L223.7,404.33L224.69,403.09L225.69,401.37L226.68,399.25L227.68,396.83L228.67,394.67L229.66,392.79L230.66,390.56L231.65,387.88L232.65,384.4L233.64,380.3L234.64,375.4L235.63,370.66L236.62,366.7L237.62,362.26L238.61,355.77L239.61,348.7L240.6,340.17L241.6,331.4L242.59,321.67L243.58,314.3L244.58,304.93L245.57,294.03L246.57,282.44L247.56,268.85L248.55,255.77L249.55,242.11L250.54,232.72L251.54,221.74L252.53,208.91L253.53,194.03L254.52,180.37L255.51,163.29L256.51,149.97L257.5,142.48L258.5,133.94L259.49,122.08L260.49,111L261.48,96.23L262.47,83.7L263.47,71.42L264.46,68.75L265.46,60.59L266.45,55.82L267.45,46.36L268.44,38.42L269.43,30.96L270.43,23.7L271.42,28.37L272.42,27.58L273.41,31.03L274.4,28.9L275.4,32.95L276.39,32.21L277.39,28.89L278.38,32.63L279.38,36.96L280.37,46.53L281.36,47.16L282.36,48.32L283.35,50.1L284.35,49.49L285.34,52.78L286.34,58.55L287.33,72.39L288.32,79.54L289.32,82.71L290.31,85.48L291.31,84.86L292.3,90.42L293.29,96.43L294.29,105.41L295.28,110.69L296.28,114.54L297.27,118.44L298.27,117.09L299.26,121.79L300.25,125.67L301.25,129.3L302.24,131.94L303.24,138.99L304.23,138.44L305.23,138.02L306.22,141.37L307.21,144.69L308.21,146.9L309.2,144.1L310.2,141.6L311.19,140.43L312.18,140.87L313.18,143.82L314.17,144.48L315.17,144.71L316.16,143.52L317.16,143.86L318.15,142.6L319.14,138.98L320.14,141.02L321.13,144.06L322.13,146.73L323.12,148.46L324.12,150.14L325.11,150.32L326.1,152.54L327.1,155.8L328.09,161.68L329.09,167.81L330.08,171.37L331.08,178.8L332.07,180.45L333.06,180.23L334.06,184.16L335.05,188.86L336.05,191.13L337.04,192.81L338.03,196.29L339.03,198.55L340.02,203.36L341.02,206.65L342.01,211.67L343.01,213.2L344,215.48L344.99,216.07L345.99,217.12L346.98,217.12L347.98,220.95L348.97,223.84L349.97,225.81L350.96,228.42L351.95,229.86L352.95,230.23L353.94,229.54L354.94,231.95L355.93,234.2L356.92,236.66L357.92,238.9L358.91,239.96L359.91,238.84L360.9,236.67L361.9,237.19L362.89,237.18L363.88,236.42L364.88,232.99L365.87,228.63L366.87,224.9L367.86,219.57L368.86,218.6L369.85,215.2L370.84,211.95L371.84,207.36L372.83,202.24L373.83,197.47L374.82,193.88L375.82,194.09L376.81,190.87L377.8,186.7L378.8,181.45L379.79,175.34L380.79,169.87L381.78,164.17L382.77,164.68L383.77,161.78L384.76,160.32L385.76,155.97L386.75,151.36L387.75,146.8L388.74,143.64L389.73,148.09L390.73,149.34L391.72,149.03L392.72,148.2L393.71,146.28L394.71,143.67L395.7,142.99L396.69,146.73L397.69,148.35L398.68,149.22L399.68,147.96L400.67,147.04L401.66,147.27L402.66,145.13L403.65,144.6L404.65,151.98L405.64,155.98L406.64,157.77L407.63,161.83L408.62,163.5L409.62,163.54L410.61,167.95L411.61,170.58L412.6,172.9L413.6,175.24L414.59,176.9L415.58,177.62L416.58,177.96L417.57,183.63L418.57,189.1L419.56,192.69L420.55,194.43L421.55,197.82L422.54,199.88L423.54,199.98L424.53,204.28L425.53,206.62L426.52,209.36L427.51,211.41L428.51,212.63L429.5,215.53L430.5,215.35L431.49,219.1L432.49,224.02L433.48,227.46L434.47,229.65L435.47,232.3L436.46,236.1L437.46,239.3L438.45,244.51L439.45,249.49L440.44,255.32L441.43,258.55L442.43,261.82L443.42,265.27L444.42,267.28L445.41,270.34L446.4,274.19L447.4,278.57L448.39,282.23L449.39,286.14L450.38,290.24L451.38,291.59L452.37,293.96L453.36,298.19L454.36,302.33L455.35,305.79L456.35,309.31L457.34,311.49L458.34,313.36L459.33,315.71L460.32,319.75L461.32,327.78L462.31,330.06L463.31,332.78L464.3,335.23L465.29,336.81L466.29,338.76L467.28,342.17L468.28,345.64L469.27,348.51L470.27,350.58L471.26,352.02L472.25,353.09L473.25,354.37L474.24,380.96L475.24,383.02L476.23,384.67L477.23,388L478.22,389.49L479.21,390.23L480.21,395.79L481.2,397.77L482.2,399.99L483.19,403.22L484.18,404.27L485.18,405.55L486.17,405.84L487.17,407.11L488.16,408.05L489.16,409.26L490.15,409.81L491.14,410.61L492.14,411.74L493.13,412.2L494.13,412.78L495.12,413.26L496.12,413.64L497.11,413.83L498.1,413.86L499.1,414.05L500.09,414.02L501.09,414.35L502.08,414.24L503.08,413.7L504.07,414.11L505.06,413.18L506.06,412.78L507.05,411.44L508.05,410.71L509.04,409.8L510.03,408.77L511.03,406.95L512.02,404.95L513.02,403.03L514.01,401.12L515.01,400.11L516,399.05L516,399.87L515.01,400.88L514.01,401.83L513.02,403.72L512.02,405.62L511.03,407.58L510.03,409.39L509.04,410.41L508.05,411.32L507.05,412.02L506.06,413.35L505.06,413.74L504.07,414.67L503.08,414.26L502.08,414.82L501.09,414.94L500.09,414.6L499.1,414.64L498.1,414.46L497.11,414.44L496.12,414.27L495.12,413.92L494.13,413.46L493.13,412.9L492.14,412.45L491.14,411.36L490.15,410.59L489.16,410.08L488.16,408.91L487.17,407.99L486.17,406.73L485.18,406.46L484.18,405.25L483.19,404.26L482.2,401.09L481.2,398.95L480.21,397.02L479.21,391.48L478.22,390.77L477.23,389.38L476.23,386.15L475.24,384.59L474.24,382.66L473.25,356.14L472.25,354.91L471.26,353.89L470.27,352.57L469.27,350.64L468.28,347.89L467.28,344.57L466.29,341.28L465.29,339.35L464.3,337.89L463.31,335.59L462.31,332.99L461.32,330.78L460.32,322.93L459.33,319.04L458.34,316.74L457.34,314.98L456.35,313L455.35,309.75L454.36,306.49L453.36,302.57L452.37,298.55L451.38,296.29L450.38,295.11L449.39,291.23L448.39,287.55L447.4,284.22L446.4,280.11L445.41,276.5L444.42,273.5L443.42,271.67L442.43,268.51L441.43,265.53L440.44,262.64L439.45,257.14L438.45,252.42L437.46,247.21L436.46,244.2L435.47,240.68L434.47,238.29L433.48,236.44L432.49,233.34L431.49,228.53L430.5,224.75L429.5,224.96L428.51,222.34L427.51,221.33L426.52,219.54L425.53,217.04L424.53,214.86L423.54,210.58L422.54,210.63L421.55,208.81L420.55,205.76L419.56,204.38L418.57,201.03L417.57,195.8L416.58,190.08L415.58,189.97L414.59,189.58L413.6,188.36L412.6,186.42L411.61,184.4L410.61,181.96L409.62,177.51L408.62,177.68L407.63,176.26L406.64,172.57L405.64,171.02L404.65,167.02L403.65,159.36L402.66,159.7L401.66,161.88L400.67,161.76L399.68,162.81L398.68,164.18L397.69,163.34L396.69,161.68L395.7,157.71L394.71,158.34L393.71,160.88L392.72,162.77L391.72,163.61L390.73,163.92L389.73,162.47L388.74,157.74L387.75,160.68L386.75,165.13L385.76,169.66L384.76,173.92L383.77,175.16L382.77,177.67L381.78,176.74L380.79,182.25L379.79,187.47L378.8,193.37L377.8,198.43L376.81,202.35L375.82,205.29L374.82,204.72L373.83,208.09L372.83,212.69L371.84,217.69L370.84,222.08L369.85,225.23L368.86,228.4L367.86,229.13L366.87,234.32L365.87,238.01L364.88,242.35L363.88,245.76L362.89,246.56L361.9,246.5L360.9,245.8L359.91,247.93L358.91,249.1L357.92,248.11L356.92,246.03L355.93,243.67L354.94,241.44L353.94,239L352.95,239.72L351.95,239.47L350.96,238.13L349.97,235.69L348.97,233.84L347.98,230.96L346.98,227L345.99,227.07L344.99,226.1L344,225.6L343.01,223.49L342.01,222.09L341.02,217.04L340.02,213.67L339.03,208.86L338.03,206.75L337.04,203.47L336.05,201.98L335.05,199.81L334.06,195.14L333.06,191.15L332.07,191.42L331.08,189.92L330.08,182.67L329.09,179.33L328.09,173.32L327.1,167.53L326.1,164.21L325.11,162L324.12,161.86L323.12,160.31L322.13,158.8L321.13,156.22L320.14,153.12L319.14,150.99L318.15,154.53L317.16,155.81L316.16,155.46L315.17,156.59L314.17,156.48L313.18,155.78L312.18,152.7L311.19,152.19L310.2,153.3L309.2,155.97L308.21,158.99L307.21,156.82L306.22,153.64L305.23,150.11L304.23,150.4L303.24,150.99L302.24,144.28L301.25,141.89L300.25,138.47L299.26,134.68L298.27,129.99L297.27,131.44L296.28,127.75L295.28,124.24L294.29,119.21L293.29,110.45L292.3,104.66L291.31,99.08L290.31,99.87L289.32,97.36L288.32,94.46L287.33,87.59L286.34,73.97L285.34,68.43L284.35,65.07L283.35,65.57L282.36,64.31L281.36,63.45L280.37,63.17L279.38,53.78L278.38,49.65L277.39,45.75L276.39,49.28L275.4,50.22L274.4,46.35L273.41,48.62L272.42,45.31L271.42,46.16L270.43,41.28L269.43,48.42L268.44,55.84L267.45,63.59L266.45,73L265.46,77.55L264.46,85.43L263.47,87.86L262.47,99.8L261.48,112.08L260.49,126.32L259.49,137.18L258.5,148.63L257.5,156.65L256.51,163.53L255.51,176.17L254.52,192.67L253.53,205.95L252.53,220.25L251.54,232.56L250.54,242.9L249.55,251.8L248.55,264.98L247.56,277.56L246.57,290.62L245.57,301.72L244.58,312.08L243.58,320.96L242.59,327.82L241.6,337.18L240.6,345.57L239.61,353.67L238.61,360.42L237.62,366.59L236.62,370.63L235.63,374.31L234.64,378.8L233.64,383.47L232.65,387.37L231.65,390.68L230.66,393.16L229.66,395.27L228.67,396.99L227.68,399.05L226.68,401.34L225.69,403.38L224.69,405.03L223.7,406.19L222.71,406.75L221.71,407.39L220.72,408.3L219.72,409.07L218.73,409.74L217.73,410.42L216.74,410.74L215.75,410.86L214.75,411.15L213.76,411.62L212.76,412.06L211.77,412.54L210.77,412.84L209.78,413.13L208.79,413.27L207.79,413.72L206.8,414.2L205.8,414.56L204.81,415.08L203.82,415.49L202.82,415.88L201.83,416.1L200.83,416.4L199.84,416.86L198.84,417.19L197.85,417.72L196.86,418.18L195.86,418.65L194.87,419.04L193.87,419.48L192.88,419.9L191.88,420.45L190.89,421.01L189.9,421.53L188.9,422.04L187.91,422.34L186.91,422.76L185.92,423.25L184.92,423.83L183.93,424.37L182.94,424.94L181.94,425.47L180.95,425.73L179.95,426.08L178.96,426.53L177.97,426.95L176.97,427.28L175.98,427.6L174.98,427.73L173.99,427.82L172.99,427.88L172,428.03L171.01,428.12L170.01,428.21L169.02,428.36L168.02,428.48L167.03,428.57L166.03,428.61L165.04,428.78L164.05,428.79L163.05,428.9L162.06,428.93L161.06,429.01L160.07,429L159.08,429L158.08,429L157.09,429.02L156.09,429.14L155.1,428.93L154.1,428.94L153.11,428.95L152.12,428.96L151.12,429.02L150.13,429.08L149.13,429.03L148.14,429.08L147.14,429.12L146.15,429.05L145.16,429.03L144.16,429.07L143.17,429.03L142.17,429.02L141.18,429.03L140.18,428.8L139.19,428.68L138.2,428.68L137.2,428.64L136.21,428.58L135.21,428.58L134.22,428.53L133.23,428.22L132.23,427.98L131.24,428.01L130.24,428.02L129.25,427.9L128.25,427.81L127.26,427.75L126.27,427.63L125.27,427.17L124.28,427.09L123.28,427.06L122.29,426.71L121.29,426.44L120.3,426.32L119.31,425.97L118.31,425.53L117.32,425.51L116.32,425.47L115.33,425.39L114.34,424.71L113.34,424.41L112.35,424.19L111.35,423.61L110.36,423.48L109.36,422.94L108.37,422.24L107.38,421.53L106.38,421.08L105.39,420.63L104.39,419.76L103.4,419.56L102.4,419.32L101.41,418.92L100.42,418.29L99.42,417.98L98.43,417.79L97.43,417.13L96.44,416.91L95.45,416.25L94.45,415.2L93.46,414.43L92.46,413.09L91.47,412.18L90.47,411.12L89.48,410.68L88.49,410.14L87.49,409.48L86.5,408.82L85.5,408.11L84.51,407.1L83.51,406.49L82.52,405.63L81.53,404.74L80.53,403.99L79.54,402.12L78.54,401.47L77.55,400.42L76.55,400.16L75.56,399.78L74.57,399.12L73.57,398L72.58,397.5L71.58,396.84L70.59,393.59L69.6,393.12L68.6,393.24L67.61,393.05L66.61,393.06L65.62,393.1L64.62,392.11L63.63,392.12L62.64,392.18L61.64,392.58L60.65,392.85L59.65,392.81L58.66,393.1L57.66,393.21L56.67,393.41L55.68,393.59L54.68,393.68L53.69,393.96L52.69,394.82L51.7,395.63L50.71,396.7L49.71,397.52L48.72,397.91L47.72,398.56L46.73,399.75L45.73,400.88L44.74,401.74L43.75,402.65L42.75,403.44L41.76,404.07L40.76,405.1L39.77,406.66L38.77,408.04L37.78,409.13L36.79,410.32L35.79,411.71L34.8,412.57L33.8,413.16L32.81,414.73L31.82,416.21L30.82,417.75L29.83,419.15L28.83,420.29L27.84,421.4L26.84,422.81L25.85,423.66L24.86,425.16L23.86,427.34L22.87,428.8L21.87,429.3L20.88,429.77L19.88,430.25L18.89,430.97L17.9,431.82L16.9,432.42L15.91,433.09L14.91,433.67L13.92,433.49L12.92,433.88L11.93,434.06L10.94,434.46L9.94,434.41L8.95,434.45L7.95,434.49L6.96,434.52L5.97,434.59L4.97,434.72L3.98,434.79L2.98,434.85L1.99,434.89L0.99,434.92L0,434.95Z" style="fill: rgb(228, 19, 23); fill-opacity: 1; stroke-width: 0;"/></g></g><g class="errorbars"/><g class="lines"/><g class="points"/><g class="text"/></g><g class="trace scatter trace3e0f6c" style="stroke-miterlimit: 2;"><g class="fills"><g><path class="js-fill" d="M0,434.89L0.99,434.84L1.99,434.8L2.98,434.7L3.98,434.58L4.97,434.46L5.97,434.19L6.96,434.06L7.95,433.84L8.95,433.61L9.94,433.31L10.94,432.99L11.93,432.4L12.92,431.73L13.92,430.91L14.91,430.63L15.91,429.57L16.9,428.42L17.9,427.33L18.89,425.9L19.88,424.44L20.88,423.17L21.87,421.64L22.87,420.28L23.86,417.98L24.86,415.59L25.85,413.12L26.84,411.09L27.84,409.15L28.83,407.3L29.83,405.51L30.82,403.2L31.82,400.95L32.81,399.07L33.8,397.12L34.8,396.27L35.79,395.19L36.79,393.69L37.78,392.42L38.77,391.22L39.77,389.74L40.76,388.21L41.76,387.22L42.75,386.77L43.75,386.15L44.74,385.33L45.73,384.61L46.73,383.59L47.72,382.57L48.72,381.87L49.71,381.52L50.71,380.95L51.7,380.34L52.69,380.16L53.69,379.74L54.68,379.49L55.68,379.5L56.67,379.77L57.66,379.78L58.66,380.21L59.65,380.38L60.65,380.73L61.64,380.6L62.64,380.74L63.63,381.06L64.62,381.34L65.62,382.93L66.61,383.24L67.61,383.36L68.6,383.63L69.6,383.74L70.59,384.51L71.58,388.07L72.58,389.05L73.57,389.9L74.57,391.5L75.56,392.28L76.55,392.7L77.55,393.33L78.54,394.77L79.54,395.81L80.53,398.05L81.53,399.01L82.52,399.95L83.51,400.87L84.51,401.61L85.5,402.82L86.5,403.74L87.49,404.58L88.49,405.39L89.48,405.98L90.47,406.64L91.47,407.85L92.46,408.87L93.46,410.4L94.45,411.32L95.45,412.6L96.44,413.41L97.43,413.79L98.43,414.54L99.42,414.85L100.42,415.3L101.41,416.04L102.4,416.6L103.4,416.92L104.39,417.19L105.39,418.14L106.38,418.74L107.38,419.29L108.37,420.13L109.36,420.91L110.36,421.53L111.35,421.72L112.35,422.4L113.34,422.73L114.34,423.15L115.33,423.95L116.32,424.12L117.32,424.25L118.31,424.42L119.31,424.96L120.3,425.43L121.29,425.62L122.29,425.96L123.28,426.37L124.28,426.45L125.27,426.54L126.27,427.02L127.26,427.18L128.25,427.28L129.25,427.37L130.24,427.5L131.24,427.49L132.23,427.46L133.23,427.7L134.22,428.03L135.21,428.1L136.21,428.11L137.2,428.18L138.2,428.24L139.19,428.25L140.18,428.38L141.18,428.59L142.17,428.6L143.17,428.61L144.16,428.66L145.16,428.62L146.15,428.64L147.14,428.72L148.14,428.68L149.13,428.64L150.13,428.69L151.12,428.62L152.12,428.56L153.11,428.55L154.1,428.53L155.1,428.53L156.09,428.73L157.09,428.63L158.08,428.61L159.08,428.61L160.07,428.6L161.06,428.6L162.06,428.52L163.05,428.49L164.05,428.37L165.04,428.36L166.03,428.2L167.03,428.15L168.02,428.05L169.02,427.93L170.01,427.78L171.01,427.69L172,427.61L172.99,427.45L173.99,427.38L174.98,427.26L175.98,427.12L176.97,426.79L177.97,426.45L178.96,426.03L179.95,425.55L180.95,425.16L181.94,424.89L182.94,424.36L183.93,423.75L184.92,423.19L185.92,422.61L186.91,422.08L187.91,421.63L188.9,421.28L189.9,420.74L190.89,420.17L191.88,419.57L192.88,419.01L193.87,418.55L194.87,418.08L195.86,417.67L196.86,417.19L197.85,416.69L198.84,416.15L199.84,415.77L200.83,415.25L201.83,414.91L202.82,414.64L203.82,414.22L204.81,413.77L205.8,413.23L206.8,412.87L207.79,412.39L208.79,411.89L209.78,411.68L210.77,411.36L211.77,411.01L212.76,410.53L213.76,410.08L214.75,409.56L215.75,409.2L216.74,409.04L217.73,408.71L218.73,408.01L219.72,407.31L220.72,406.51L221.71,405.55L222.71,404.8L223.7,404.17L224.69,402.91L225.69,401.18L226.68,399.05L227.68,396.63L228.67,394.45L229.66,392.56L230.66,390.29L231.65,387.6L232.65,384.1L233.64,379.98L234.64,375.04L235.63,370.27L236.62,366.29L237.62,361.81L238.61,355.3L239.61,348.19L240.6,339.63L241.6,330.82L242.59,321.05L243.58,313.64L244.58,304.2L245.57,293.25L246.57,281.59L247.56,267.95L248.55,254.83L249.55,241.11L250.54,231.69L251.54,220.6L252.53,207.73L253.53,192.8L254.52,179.08L255.51,161.94L256.51,148.56L257.5,141.02L258.5,132.42L259.49,120.5L260.49,109.38L261.48,94.57L262.47,82L263.47,69.67L264.46,66.96L265.46,58.74L266.45,53.94L267.45,44.45L268.44,36.5L269.43,29.03L270.43,21.75L271.42,26.42L272.42,25.63L273.41,29.06L274.4,26.93L275.4,31.01L276.39,30.28L277.39,26.97L278.38,30.71L279.38,35.08L280.37,44.68L281.36,45.32L282.36,46.49L283.35,48.3L284.35,47.72L285.34,51.04L286.34,56.83L287.33,70.68L288.32,77.86L289.32,81.04L290.31,83.84L291.31,83.24L292.3,88.84L293.29,94.89L294.29,103.91L295.28,109.23L296.28,113.1L297.27,117.01L298.27,115.68L299.26,120.39L300.25,124.3L301.25,127.96L302.24,130.61L303.24,137.66L304.23,137.12L305.23,136.7L306.22,140.05L307.21,143.38L308.21,145.61L309.2,142.79L310.2,140.29L311.19,139.11L312.18,139.55L313.18,142.5L314.17,143.16L315.17,143.39L316.16,142.19L317.16,142.53L318.15,141.27L319.14,137.64L320.14,139.67L321.13,142.71L322.13,145.41L323.12,147.15L324.12,148.85L325.11,149.03L326.1,151.26L327.1,154.5L328.09,160.41L329.09,166.55L330.08,170.13L331.08,177.57L332.07,179.22L333.06,178.99L334.06,182.92L335.05,187.64L336.05,189.92L337.04,191.64L338.03,195.12L339.03,197.42L340.02,202.23L341.02,205.5L342.01,210.54L343.01,212.1L344,214.38L344.99,214.97L345.99,216.04L346.98,216.04L347.98,219.85L348.97,222.74L349.97,224.72L350.96,227.33L351.95,228.78L352.95,229.18L353.94,228.47L354.94,230.87L355.93,233.14L356.92,235.61L357.92,237.85L358.91,238.9L359.91,237.78L360.9,235.59L361.9,236.1L362.89,236.08L363.88,235.32L364.88,231.88L365.87,227.51L366.87,223.76L367.86,218.43L368.86,217.42L369.85,214.01L370.84,210.71L371.84,206.09L372.83,200.94L373.83,196.15L374.82,192.54L375.82,192.71L376.81,189.45L377.8,185.25L378.8,179.98L379.79,173.85L380.79,168.34L381.78,162.59L382.77,163.06L383.77,160.11L384.76,158.62L385.76,154.26L386.75,149.63L387.75,145.06L388.74,141.87L389.73,146.29L390.73,147.52L391.72,147.19L392.72,146.34L393.71,144.42L394.71,141.8L395.7,141.11L396.69,144.82L397.69,146.44L398.68,147.32L399.68,146.08L400.67,145.14L401.66,145.37L402.66,143.23L403.65,142.68L404.65,150.06L405.64,154.1L406.64,155.89L407.63,159.98L408.62,161.66L409.62,161.7L410.61,166.1L411.61,168.77L412.6,171.11L413.6,173.49L414.59,175.17L415.58,175.9L416.58,176.26L417.57,181.96L418.57,187.49L419.56,191.12L420.55,192.88L421.55,196.29L422.54,198.39L423.54,198.51L424.53,202.82L425.53,205.21L426.52,207.97L427.51,210.05L428.51,211.3L429.5,214.24L430.5,214.05L431.49,217.82L432.49,222.78L433.48,226.24L434.47,228.46L435.47,231.15L436.46,234.97L437.46,238.18L438.45,243.4L439.45,248.43L440.44,254.3L441.43,257.58L442.43,260.87L443.42,264.34L444.42,266.37L445.41,269.44L446.4,273.33L447.4,277.72L448.39,281.44L449.39,285.39L450.38,289.51L451.38,290.87L452.37,293.26L453.36,297.51L454.36,301.67L455.35,305.18L456.35,308.72L457.34,310.93L458.34,312.81L459.33,315.18L460.32,319.25L461.32,327.3L462.31,329.6L463.31,332.35L464.3,334.82L465.29,336.41L466.29,338.37L467.28,341.82L468.28,345.3L469.27,348.19L470.27,350.27L471.26,351.72L472.25,352.8L473.25,354.09L474.24,380.7L475.24,382.77L476.23,384.44L477.23,387.79L478.22,389.29L479.21,390.03L480.21,395.59L481.2,397.59L482.2,399.82L483.19,403.05L484.18,404.11L485.18,405.4L486.17,405.69L487.17,406.96L488.16,407.91L489.16,409.14L490.15,409.69L491.14,410.5L492.14,411.63L493.13,412.1L494.13,412.68L495.12,413.17L496.12,413.55L497.11,413.74L498.1,413.77L499.1,413.97L500.09,413.94L501.09,414.27L502.08,414.16L503.08,413.62L504.07,414.03L505.06,413.1L506.06,412.7L507.05,411.36L508.05,410.63L509.04,409.72L510.03,408.69L511.03,406.87L512.02,404.87L513.02,402.94L514.01,401.03L515.01,400.01L516,398.95L516,399.05L515.01,400.11L514.01,401.12L513.02,403.03L512.02,404.95L511.03,406.95L510.03,408.77L509.04,409.8L508.05,410.71L507.05,411.44L506.06,412.78L505.06,413.18L504.07,414.11L503.08,413.7L502.08,414.24L501.09,414.35L500.09,414.02L499.1,414.05L498.1,413.86L497.11,413.83L496.12,413.64L495.12,413.26L494.13,412.78L493.13,412.2L492.14,411.74L491.14,410.61L490.15,409.81L489.16,409.26L488.16,408.05L487.17,407.11L486.17,405.84L485.18,405.55L484.18,404.27L483.19,403.22L482.2,399.99L481.2,397.77L480.21,395.79L479.21,390.23L478.22,389.49L477.23,388L476.23,384.67L475.24,383.02L474.24,380.96L473.25,354.37L472.25,353.09L471.26,352.02L470.27,350.58L469.27,348.51L468.28,345.64L467.28,342.17L466.29,338.76L465.29,336.81L464.3,335.23L463.31,332.78L462.31,330.06L461.32,327.78L460.32,319.75L459.33,315.71L458.34,313.36L457.34,311.49L456.35,309.31L455.35,305.79L454.36,302.33L453.36,298.19L452.37,293.96L451.38,291.59L450.38,290.24L449.39,286.14L448.39,282.23L447.4,278.57L446.4,274.19L445.41,270.34L444.42,267.28L443.42,265.27L442.43,261.82L441.43,258.55L440.44,255.32L439.45,249.49L438.45,244.51L437.46,239.3L436.46,236.1L435.47,232.3L434.47,229.65L433.48,227.46L432.49,224.02L431.49,219.1L430.5,215.35L429.5,215.53L428.51,212.63L427.51,211.41L426.52,209.36L425.53,206.62L424.53,204.28L423.54,199.98L422.54,199.88L421.55,197.82L420.55,194.43L419.56,192.69L418.57,189.1L417.57,183.63L416.58,177.96L415.58,177.62L414.59,176.9L413.6,175.24L412.6,172.9L411.61,170.58L410.61,167.95L409.62,163.54L408.62,163.5L407.63,161.83L406.64,157.77L405.64,155.98L404.65,151.98L403.65,144.6L402.66,145.13L401.66,147.27L400.67,147.04L399.68,147.96L398.68,149.22L397.69,148.35L396.69,146.73L395.7,142.99L394.71,143.67L393.71,146.28L392.72,148.2L391.72,149.03L390.73,149.34L389.73,148.09L388.74,143.64L387.75,146.8L386.75,151.36L385.76,155.97L384.76,160.32L383.77,161.78L382.77,164.68L381.78,164.17L380.79,169.87L379.79,175.34L378.8,181.45L377.8,186.7L376.81,190.87L375.82,194.09L374.82,193.88L373.83,197.47L372.83,202.24L371.84,207.36L370.84,211.95L369.85,215.2L368.86,218.6L367.86,219.57L366.87,224.9L365.87,228.63L364.88,232.99L363.88,236.42L362.89,237.18L361.9,237.19L360.9,236.67L359.91,238.84L358.91,239.96L357.92,238.9L356.92,236.66L355.93,234.2L354.94,231.95L353.94,229.54L352.95,230.23L351.95,229.86L350.96,228.42L349.97,225.81L348.97,223.84L347.98,220.95L346.98,217.12L345.99,217.12L344.99,216.07L344,215.48L343.01,213.2L342.01,211.67L341.02,206.65L340.02,203.36L339.03,198.55L338.03,196.29L337.04,192.81L336.05,191.13L335.05,188.86L334.06,184.16L333.06,180.23L332.07,180.45L331.08,178.8L330.08,171.37L329.09,167.81L328.09,161.68L327.1,155.8L326.1,152.54L325.11,150.32L324.12,150.14L323.12,148.46L322.13,146.73L321.13,144.06L320.14,141.02L319.14,138.98L318.15,142.6L317.16,143.86L316.16,143.52L315.17,144.71L314.17,144.48L313.18,143.82L312.18,140.87L311.19,140.43L310.2,141.6L309.2,144.1L308.21,146.9L307.21,144.69L306.22,141.37L305.23,138.02L304.23,138.44L303.24,138.99L302.24,131.94L301.25,129.3L300.25,125.67L299.26,121.79L298.27,117.09L297.27,118.44L296.28,114.54L295.28,110.69L294.29,105.41L293.29,96.43L292.3,90.42L291.31,84.86L290.31,85.48L289.32,82.71L288.32,79.54L287.33,72.39L286.34,58.55L285.34,52.78L284.35,49.49L283.35,50.1L282.36,48.32L281.36,47.16L280.37,46.53L279.38,36.96L278.38,32.63L277.39,28.89L276.39,32.21L275.4,32.95L274.4,28.9L273.41,31.03L272.42,27.58L271.42,28.37L270.43,23.7L269.43,30.96L268.44,38.42L267.45,46.36L266.45,55.82L265.46,60.59L264.46,68.75L263.47,71.42L262.47,83.7L261.48,96.23L260.49,111L259.49,122.08L258.5,133.94L257.5,142.48L256.51,149.97L255.51,163.29L254.52,180.37L253.53,194.03L252.53,208.91L251.54,221.74L250.54,232.72L249.55,242.11L248.55,255.77L247.56,268.85L246.57,282.44L245.57,294.03L244.58,304.93L243.58,314.3L242.59,321.67L241.6,331.4L240.6,340.17L239.61,348.7L238.61,355.77L237.62,362.26L236.62,366.7L235.63,370.66L234.64,375.4L233.64,380.3L232.65,384.4L231.65,387.88L230.66,390.56L229.66,392.79L228.67,394.67L227.68,396.83L226.68,399.25L225.69,401.37L224.69,403.09L223.7,404.33L222.71,404.96L221.71,405.71L220.72,406.66L219.72,407.46L218.73,408.15L217.73,408.86L216.74,409.18L215.75,409.33L214.75,409.69L213.76,410.21L212.76,410.66L211.77,411.14L210.77,411.48L209.78,411.8L208.79,412L207.79,412.5L206.8,412.98L205.8,413.34L204.81,413.87L203.82,414.32L202.82,414.74L201.83,415.01L200.83,415.35L199.84,415.86L198.84,416.24L197.85,416.77L196.86,417.27L195.86,417.75L194.87,418.16L193.87,418.62L192.88,419.07L191.88,419.63L190.89,420.24L189.9,420.79L188.9,421.34L187.91,421.68L186.91,422.12L185.92,422.65L184.92,423.23L183.93,423.79L182.94,424.39L181.94,424.93L180.95,425.19L179.95,425.58L178.96,426.06L177.97,426.48L176.97,426.82L175.98,427.16L174.98,427.29L173.99,427.41L172.99,427.47L172,427.64L171.01,427.72L170.01,427.81L169.02,427.96L168.02,428.07L167.03,428.17L166.03,428.22L165.04,428.38L164.05,428.39L163.05,428.51L162.06,428.54L161.06,428.62L160.07,428.62L159.08,428.63L158.08,428.63L157.09,428.65L156.09,428.75L155.1,428.55L154.1,428.56L153.11,428.57L152.12,428.58L151.12,428.64L150.13,428.72L149.13,428.66L148.14,428.71L147.14,428.74L146.15,428.66L145.16,428.65L144.16,428.68L143.17,428.64L142.17,428.63L141.18,428.62L140.18,428.41L139.19,428.29L138.2,428.28L137.2,428.21L136.21,428.15L135.21,428.13L134.22,428.07L133.23,427.73L132.23,427.49L131.24,427.53L130.24,427.54L129.25,427.41L128.25,427.32L127.26,427.22L126.27,427.07L125.27,426.59L124.28,426.5L123.28,426.42L122.29,426.01L121.29,425.67L120.3,425.49L119.31,425.02L118.31,424.48L117.32,424.32L116.32,424.2L115.33,424.04L114.34,423.24L113.34,422.82L112.35,422.49L111.35,421.82L110.36,421.64L109.36,421.02L108.37,420.25L107.38,419.41L106.38,418.87L105.39,418.28L104.39,417.34L103.4,417.07L102.4,416.75L101.41,416.2L100.42,415.47L99.42,415.03L98.43,414.75L97.43,414.01L96.44,413.64L95.45,412.83L94.45,411.57L93.46,410.65L92.46,409.13L91.47,408.12L90.47,406.92L89.48,406.26L88.49,405.68L87.49,404.89L86.5,404.07L85.5,403.17L84.51,401.97L83.51,401.26L82.52,400.34L81.53,399.41L80.53,398.46L79.54,396.24L78.54,395.23L77.55,393.82L76.55,393.22L75.56,392.8L74.57,392.03L73.57,390.5L72.58,389.72L71.58,388.75L70.59,385.24L69.6,384.49L68.6,384.4L67.61,384.15L66.61,384.05L65.62,383.8L64.62,382.26L63.63,382.01L62.64,381.75L61.64,381.63L60.65,381.8L59.65,381.49L58.66,381.38L57.66,381L56.67,381.04L55.68,380.82L54.68,380.84L53.69,381.14L52.69,381.6L51.7,381.84L50.71,382.53L49.71,383.16L48.72,383.54L47.72,384.28L46.73,385.32L45.73,386.4L44.74,387.17L43.75,388.05L42.75,388.71L41.76,389.22L40.76,390.25L39.77,391.79L38.77,393.3L37.78,394.49L36.79,395.76L35.79,397.26L34.8,398.31L33.8,399.12L32.81,401.05L31.82,402.86L30.82,405.05L29.83,407.3L28.83,409.04L27.84,410.79L26.84,412.63L25.85,414.58L24.86,416.95L23.86,419.26L22.87,421.44L21.87,422.69L20.88,424.12L19.88,425.29L18.89,426.68L17.9,428.01L16.9,429.01L15.91,430.1L14.91,431.08L13.92,431.28L12.92,432.06L11.93,432.7L10.94,433.23L9.94,433.49L8.95,433.76L7.95,433.96L6.96,434.14L5.97,434.26L4.97,434.52L3.98,434.61L2.98,434.73L1.99,434.82L0.99,434.86L0,434.9Z" style="fill: rgb(158, 0, 3); fill-opacity: 1; stroke-width: 0;"/></g></g><g class="errorbars"/><g class="lines"/><g class="points"/><g class="text"/></g><g class="trace scatter trace2918b0" style="stroke-miterlimit: 2;"><g class="fills"/><g class="errorbars"/><g class="lines"/><g class="points"/><g class="text"/></g></g></g><g class="overplot"/><path class="xlines-above crisp" style="fill: none;" d="M0,0"/><path class="ylines-above crisp" style="fill: none;" d="M0,0"/><g class="overlines-above"/><g class="xaxislayer-above"><g class="xtick"><text text-anchor="middle" x="0" y="473" transform="translate(96.78999999999999,0)" style="font-family: 'Open Sans', verdana, arial, sans-serif; font-size: 12px; fill: rgb(68, 68, 68); fill-opacity: 1; white-space: pre;">Apr 2020</text></g><g class="xtick"><text text-anchor="middle" x="0" y="473" transform="translate(187.26,0)" style="font-family: 'Open Sans', verdana, arial, sans-serif; font-size: 12px; fill: rgb(68, 68, 68); fill-opacity: 1; white-space: pre;">Jul 2020</text></g><g class="xtick"><text text-anchor="middle" x="0" y="473" transform="translate(278.73,0)" style="font-family: 'Open Sans', verdana, arial, sans-serif; font-size: 12px; fill: rgb(68, 68, 68); fill-opacity: 1; white-space: pre;">Oct 2020</text></g><g class="xtick"><text text-anchor="middle" x="0" y="473" transform="translate(370.2,0)" style="font-family: 'Open Sans', verdana, arial, sans-serif; font-size: 12px; fill: rgb(68, 68, 68); fill-opacity: 1; white-space: pre;">Jan 2021</text></g><g class="xtick"><text text-anchor="middle" x="0" y="473" transform="translate(459.68,0)" style="font-family: 'Open Sans', verdana, arial, sans-serif; font-size: 12px; fill: rgb(68, 68, 68); fill-opacity: 1; white-space: pre;">Apr 2021</text></g><g class="xtick"><text text-anchor="middle" x="0" y="473" transform="translate(550.15,0)" style="font-family: 'Open Sans', verdana, arial, sans-serif; font-size: 12px; fill: rgb(68, 68, 68); fill-opacity: 1; white-space: pre;">Jul 2021</text></g></g><g class="yaxislayer-above"><g class="ytick"><text text-anchor="end" x="59" y="4.199999999999999" transform="translate(0,460)" style="font-family: 'Open Sans', verdana, arial, sans-serif; font-size: 12px; fill: rgb(68, 68, 68); fill-opacity: 1; white-space: pre;">0</text></g><g class="ytick"><text text-anchor="end" x="59" y="4.199999999999999" transform="translate(0,408.72)" style="font-family: 'Open Sans', verdana, arial, sans-serif; font-size: 12px; fill: rgb(68, 68, 68); fill-opacity: 1; white-space: pre;">100k</text></g><g class="ytick"><text text-anchor="end" x="59" y="4.199999999999999" transform="translate(0,357.45)" style="font-family: 'Open Sans', verdana, arial, sans-serif; font-size: 12px; fill: rgb(68, 68, 68); fill-opacity: 1; white-space: pre;">200k</text></g><g class="ytick"><text text-anchor="end" x="59" y="4.199999999999999" transform="translate(0,306.17)" style="font-family: 'Open Sans', verdana, arial, sans-serif; font-size: 12px; fill: rgb(68, 68, 68); fill-opacity: 1; white-space: pre;">300k</text></g><g class="ytick"><text text-anchor="end" x="59" y="4.199999999999999" transform="translate(0,254.9)" style="font-family: 'Open Sans', verdana, arial, sans-serif; font-size: 12px; fill: rgb(68, 68, 68); fill-opacity: 1; white-space: pre;">400k</text></g><g class="ytick"><text text-anchor="end" x="59" y="4.199999999999999" transform="translate(0,203.62)" style="font-family: 'Open Sans', verdana, arial, sans-serif; font-size: 12px; fill: rgb(68, 68, 68); fill-opacity: 1; white-space: pre;">500k</text></g><g class="ytick"><text text-anchor="end" x="59" y="4.199999999999999" transform="translate(0,152.35)" style="font-family: 'Open Sans', verdana, arial, sans-serif; font-size: 12px; fill: rgb(68, 68, 68); fill-opacity: 1; white-space: pre;">600k</text></g><g class="ytick"><text text-anchor="end" x="59" y="4.199999999999999" transform="translate(0,101.07)" style="font-family: 'Open Sans', verdana, arial, sans-serif; font-size: 12px; fill: rgb(68, 68, 68); fill-opacity: 1; white-space: pre;">700k</text></g><g class="ytick"><text text-anchor="end" x="59" y="4.199999999999999" transform="translate(0,49.8)" style="font-family: 'Open Sans', verdana, arial, sans-serif; font-size: 12px; fill: rgb(68, 68, 68); fill-opacity: 1; white-space: pre;">800k</text></g></g><g class="overaxes-above"/></g></g><g class="polarlayer"/><g class="ternarylayer"/><g class="geolayer"/><g class="funnelarealayer"/><g class="pielayer"/><g class="treemaplayer"/><g class="sunburstlayer"/><g class="glimages"/><defs id="topdefs-1c2fe8"><g class="clips"/><clipPath id="legend1c2fe8"><rect width="217" height="67" x="0" y="0"/></clipPath></defs><g class="layer-above"><g class="imagelayer"/><g class="shapelayer"/></g><g class="infolayer"><g class="legend" pointer-events="all" transform="translate(472.8, 68.5)"><rect class="bg" shape-rendering="crispEdges" style="stroke: rgb(68, 68, 68); stroke-opacity: 1; fill: rgb(255, 255, 255); fill-opacity: 1; stroke-width: 0px;" width="217" height="67" x="0" y="0"/><g class="scrollbox" transform="translate(0, 0)" clip-path="url('#legend1c2fe8')"><g class="groups"><g class="traces" style="opacity: 1;" transform="translate(0, 14.5)"><text class="legendtext" text-anchor="start" x="40" y="4.680000000000001" style="font-family: 'Open Sans', verdana, arial, sans-serif; font-size: 12px; fill: rgb(68, 68, 68); fill-opacity: 1; white-space: pre;">Intensive Care</text><g class="layers"><g class="legendfill"><path class="js-fill" d="M5,-3h30v6h-30z" style="stroke-width: 0; fill: rgb(158, 0, 3); fill-opacity: 1;"/></g><g class="legendlines"/><g class="legendsymbols"><g class="legendpoints"/></g></g><rect class="legendtoggle" x="0" y="-9.5" width="211.046875" height="19" style="fill: rgb(0, 0, 0); fill-opacity: 0;"/></g><g class="traces" style="opacity: 1;" transform="translate(0, 33.5)"><text class="legendtext" text-anchor="start" x="40" y="4.680000000000001" style="font-family: 'Open Sans', verdana, arial, sans-serif; font-size: 12px; fill: rgb(68, 68, 68); fill-opacity: 1; white-space: pre;">Hospitalized with Symptoms</text><g class="layers"><g class="legendfill"><path class="js-fill" d="M5,-3h30v6h-30z" style="stroke-width: 0; fill: rgb(228, 19, 23); fill-opacity: 1;"/></g><g class="legendlines"/><g class="legendsymbols"><g class="legendpoints"/></g></g><rect class="legendtoggle" x="0" y="-9.5" width="211.046875" height="19" style="fill: rgb(0, 0, 0); fill-opacity: 0;"/></g><g class="traces" style="opacity: 1;" transform="translate(0, 52.5)"><text class="legendtext" text-anchor="start" x="40" y="4.680000000000001" style="font-family: 'Open Sans', verdana, arial, sans-serif; font-size: 12px; fill: rgb(68, 68, 68); fill-opacity: 1; white-space: pre;">Home Confinement</text><g class="layers"><g class="legendfill"><path class="js-fill" d="M5,-3h30v6h-30z" style="stroke-width: 0; fill: rgb(253, 187, 188); fill-opacity: 1;"/></g><g class="legendlines"/><g class="legendsymbols"><g class="legendpoints"/></g></g><rect class="legendtoggle" x="0" y="-9.5" width="211.046875" height="19" style="fill: rgb(0, 0, 0); fill-opacity: 0;"/></g></g></g><rect class="scrollbar" rx="20" ry="3" width="0" height="0" style="fill: rgb(128, 139, 164); fill-opacity: 1;" x="0" y="0"/></g><g class="g-gtitle"><text class="gtitle" x="350" y="12.5" text-anchor="middle" dy="0em" style="font-family: 'Open Sans', verdana, arial, sans-serif; font-size: 17px; fill: rgb(68, 68, 68); opacity: 1; font-weight: normal; white-space: pre;">Italy - Distribution of Active Covid19 Cases</text></g><g class="g-xtitle" transform="translate(0,-15)"><text class="xtitle" x="318" y="512" text-anchor="middle" style="font-family: 'Open Sans', verdana, arial, sans-serif; font-size: 14px; fill: rgb(68, 68, 68); opacity: 1; font-weight: normal; white-space: pre;">Source: Italy Department of Civil Protection</text></g><g class="g-ytitle"><text class="ytitle" transform="rotate(-90,22,242.5)" x="22" y="242.5" text-anchor="middle" style="font-family: 'Open Sans', verdana, arial, sans-serif; font-size: 14px; fill: rgb(68, 68, 68); opacity: 1; font-weight: normal; white-space: pre;">Number of Cases</text></g></g></svg>